<?xml version="1.0" encoding="UTF-8" standalone="no"?>
<svg
   enable-background="new 0 0 128 128"
   viewBox="0 0 128 128"
   version="1.1"
   id="svg1591"
   sodipodi:docname="1f604.svg"
   inkscape:version="1.1.1 (3bf5ae0d25, 2021-09-20)"
   xmlns:inkscape="http://www.inkscape.org/namespaces/inkscape"
   xmlns:sodipodi="http://sodipodi.sourceforge.net/DTD/sodipodi-0.dtd"
   xmlns:xlink="http://www.w3.org/1999/xlink"
   xmlns="http://www.w3.org/2000/svg"
   xmlns:svg="http://www.w3.org/2000/svg">
  <sodipodi:namedview
     id="namedview1593"
     pagecolor="#ffffff"
     bordercolor="#666666"
     borderopacity="1.0"
     inkscape:pageshadow="2"
     inkscape:pageopacity="0.0"
     inkscape:pagecheckerboard="0"
     showgrid="false"
     inkscape:zoom="12.573243"
     inkscape:cx="75.318676"
     inkscape:cy="53.725202"
     inkscape:window-width="1920"
     inkscape:window-height="991"
     inkscape:window-x="-9"
     inkscape:window-y="-9"
     inkscape:window-maximized="1"
     inkscape:current-layer="svg1591" />
  <symbol
     viewBox="-64.5 -64.5 129 129"
     id="symbol1544">
    <g
       fill="none"
       stroke="#4285F4"
       stroke-miterlimit="10"
       id="g1542">
      <rect
         x="-64"
         y="-64"
         width="128"
         height="128"
         id="rect1526" />
      <path
         d="M36.95,37.82C27.32,46.32,14.2,51,0,51 c-14.27,0-27.39-4.62-36.96-13.01C-47.45,28.79-53,15.65-53,0c0-15.58,5.55-28.69,16.04-37.92C-27.36-46.35-14.24-51,0-51 c14.17,0,27.29,4.71,36.95,13.25C47.45-28.45,53-15.4,53,0C53,15.47,47.45,28.55,36.95,37.82z"
         id="path1528" />
      <path
         d="m0 55c-29.59 0-57-19.01-57-55 0-35.8 27.41-55 57-55s57 19.69 57 55c0 35.51-27.41 55-57 55z"
         id="path1530" />
      <path
         d="M0-43c-12.29,0-23.54,3.94-31.68,11.09 C-40.39-24.25-45-13.21-45,0c0,29.7,22.6,43,45,43c21.67,0,45-13.46,45-43S21.67-43,0-43L0-43z"
         id="path1532" />
      <line
         x1="-.01"
         x2="-.01"
         y1="51"
         y2="-51"
         id="line1534" />
      <line
         x1="-16"
         x2="-16"
         y1="48.95"
         y2="-48.93"
         id="line1536" />
      <line
         x1="15.99"
         x2="15.99"
         y1="48.91"
         y2="-48.93"
         id="line1538" />
      <line
         x1="53"
         x2="-53"
         y1=".08"
         y2=".08"
         id="line1540" />
    </g>
  </symbol>
  <linearGradient
     id="e"
     x1="64"
     x2="64"
     y1="19.717"
     y2="107.7"
     gradientUnits="userSpaceOnUse">
    <stop
       stop-color="#FEE133"
       offset=".5"
       id="stop1546" />
    <stop
       stop-color="#FEDE32"
       offset=".6118"
       id="stop1548" />
    <stop
       stop-color="#FCD32F"
       offset=".7076"
       id="stop1550" />
    <stop
       stop-color="#FAC12B"
       offset=".7975"
       id="stop1552" />
    <stop
       stop-color="#F7A924"
       offset=".8834"
       id="stop1554" />
    <stop
       stop-color="#F6A323"
       offset=".9"
       id="stop1556" />
  </linearGradient>
  <path
     d="M64,119.89C36.07,119.89,6,102.4,6,64S36.07,8.11,64,8.11c15.48,0,29.81,5.12,40.36,14.43 C115.9,32.72,122,47.06,122,64c0,16.86-6.1,31.17-17.64,41.39C93.78,114.74,79.45,119.89,64,119.89z"
     fill="url(#e)"
     id="path1559"
     style="stroke:#eb8f00;stroke-opacity:1;stroke-width:4;stroke-miterlimit:4;stroke-dasharray:none" />
  <defs
     id="defs1564">
    <path
       id="d"
       d="m63.47 62.53c-15.71 0-30.31-1.32-42.49-3.57-3.02-0.56-5.69 2.1-5.08 5.11 4.04 19.81 23.55 36.08 47.55 36.08 26.27 0 43.94-16.8 47.61-36.15 0.57-2.99-2.1-5.6-5.09-5.04-12.18 2.25-26.78 3.57-42.5 3.57z" />
  </defs>
  <clipPath
     id="a">
    <use
       xlink:href="#d"
       id="use1566" />
  </clipPath>
  <path
     style="fill:#422b0d;stroke-width:1.08708"
     d="M 65.029548,101.50852"
     id="path921" />
  <path
     style="fill:#422b0d;stroke-width:1.08708"
     d="M 65.029548,101.50852"
     id="path923" />
  <path
     style="fill:#422b0d;stroke-width:1.08708"
     d="M 65.029548,101.80204"
     id="path925" />
  <path
     style="fill:#422b0d;stroke-width:1.08708"
     d="M 65.094768,73.168329"
     id="path927" />
  <path
     style="fill:#422b0d;stroke-width:1.08708"
     d="M 65.094768,73.168329"
     id="path929" />
  <path
     style="fill:#422b0d;stroke-width:1.08708"
     d="M 65.029548,101.80204"
     id="path931" />
  <path
     style="fill:#242424;fill-opacity:1;stroke:#eb8f00;stroke-width:7;stroke-miterlimit:4;stroke-dasharray:none;stroke-opacity:1"
     d="m 107.03436,69.863605 c -1.52192,-2.750315 -4.82664,-3.956975 -7.761762,-2.848152 -11.15345,3.250372 -22.72,4.870123 -34.34089,4.815768 -11.6209,0.05436 -23.18744,-1.565396 -34.34089,-4.815768 -2.92424,-1.108823 -6.22897,0.08696 -7.75088,2.826409 -1.47843,2.728574 -0.41309,5.891978 0.83705,8.620552 6.97906,15.32784 22.36125,24.502806 41.16775,24.557156 h 0.17394 c 18.80649,0 34.18869,-9.229315 41.178622,-24.557156 1.23928,-2.750314 2.31549,-5.870237 0.83706,-8.598809 z"
     id="path933" />
  <path
     style="fill:#242424;fill-opacity:1;stroke:none;stroke-width:4;stroke-miterlimit:4;stroke-dasharray:none;stroke-opacity:1"
     d="m 107.03436,69.863605 c -1.52192,-2.750315 -4.82664,-3.956975 -7.761762,-2.848152 -11.15345,3.250372 -22.72,4.870123 -34.34089,4.815768 -11.6209,0.05436 -23.18744,-1.565396 -34.34089,-4.815768 -2.92424,-1.108823 -6.22897,0.08696 -7.75088,2.826409 -1.47843,2.728574 -0.41309,5.891978 0.83705,8.620555 6.97906,15.32784 22.36125,24.502803 41.16775,24.557153 h 0.17394 c 18.80649,0 34.18869,-9.229313 41.178622,-24.557153 1.23928,-2.750317 2.31549,-5.87024 0.83706,-8.598812 z"
     id="path933-8" />
  <path
     style="fill:#422b0d;stroke-width:1.08708"
     d="M 65.018678,101.68246"
     id="path935" />
  <path
     style="fill:#422b0d;stroke-width:1.08708"
     d="M 65.094768,73.211813"
     id="path937" />
  <path
     style="fill:#422b0d;stroke-width:1.08708"
     d="M 65.094768,73.211813"
     id="path939" />
  <path
     style="fill:#422b0d;stroke-width:1.08708"
     d="M 65.018678,101.68246"
     id="path941" />
  <path
     style="fill:#ed7770;stroke-width:1.08708"
     d="m 82.335868,98.69299 c -0.40222,-0.36961 -0.81531,-0.706605 -1.2284,-1.087085 -4.43529,-3.902616 -10.17507,-6.000683 -16.08879,-5.881104 -6.08766,-0.09784 -12.01225,1.924134 -16.76279,5.728915 -0.41309,0.336995 -0.84793,0.663124 -1.25015,1.087074 -0.40222,0.42397 -0.61963,0.72835 -0.88053,1.08708 5.97894,2.33724 12.34924,3.53303 18.77389,3.50041 h 0.17393 c 6.15288,0 12.2514,-1.09795 18.01293,-3.26124 -0.21742,-0.4131 -0.46745,-0.80445 -0.75009,-1.17405 z"
     id="path943" />
  <path
     style="fill:#ffffff;stroke-width:1.08708"
     d="m 99.272598,67.015453 c -11.15345,3.250372 -22.72,4.870122 -34.34089,4.815767 -11.6209,0.05436 -23.18744,-1.565395 -34.34089,-4.815767 -2.92424,-1.108823 -6.22897,0.08696 -7.75088,2.826409 -0.21742,0.413091 -0.39135,0.847923 -0.50006,1.293627 0.35874,0.184804 0.77183,0.369608 1.26101,0.565281 13.08846,6.555098 27.5575,9.881566 42.18961,9.707634 14.03422,0.163061 27.90537,-2.891637 40.580742,-8.914064 0.51093,-0.217416 0.93489,-0.423962 1.31537,-0.619636 -0.0869,-0.706602 -0.31526,-1.402334 -0.65225,-2.032842 -1.52192,-2.739444 -4.82664,-3.946104 -7.761762,-2.826409 z"
     id="path945" />
  <g
     id="smiling-eyes-grinning-face"
     transform="translate(0.601468,-5.508038)"
     style="fill:#242424;fill-opacity:1">
    <g
       id="eyes"
       style="fill:#242424;fill-opacity:1">
      <path
         style="fill:#242424;fill-opacity:1"
         d="m 49,56.89 -0.15,-0.2 -0.43,-0.55 -0.53,-0.57 c -0.22,-0.25 -0.48,-0.49 -0.73,-0.75 -0.25,-0.26 -0.56,-0.51 -0.84,-0.72 -0.26,-0.2 -0.54,-0.39 -0.84,-0.54 -0.2,-0.11 -0.42,-0.2 -0.65,-0.25 -0.07,-0.01 -0.14,-0.01 -0.21,0 0,0 -0.06,0 -0.09,0 h -0.08 c 0.12,0 -0.27,0 0.27,0 h -0.55 c -0.15,0 -0.05,0 0,0 h 0.08 c 0.08,0 0,0 0,0 h -0.11 c -0.23,0.05 -0.45,0.13 -0.66,0.25 -0.29,0.16 -0.58,0.34 -0.84,0.54 -0.29,0.22 -0.57,0.46 -0.83,0.72 -0.53,0.51 -1,1 -1.3,1.39 l -0.52,0.6 -0.23,0.27 c -1.44,1.61 -3.87,1.87 -5.62,0.61 -1.12,-0.78 -1.69,-2.13 -1.47,-3.48 0,0 0.07,-0.4 0.26,-1.11 0.3,-1.01 0.72,-1.99 1.25,-2.91 0.85,-1.5 2,-2.81 3.38,-3.85 0.91,-0.7 1.92,-1.26 3,-1.65 0.3,-0.12 0.61,-0.21 0.92,-0.29 0.33,-0.1 0.66,-0.17 1,-0.23 l 0.61,-0.09 0.51,-0.06 h 0.55 0.79 0.51 c 0.34,0 0.67,0.09 1,0.14 0.64,0.11 1.28,0.28 1.89,0.51 1.08,0.39 2.09,0.95 3,1.65 1.38,1.04 2.53,2.35 3.38,3.85 0.31,0.52 0.58,1.07 0.8,1.63 0.19,0.45 0.35,0.9 0.48,1.37 0.07,0.24 0.13,0.48 0.16,0.72 v 0.25 c 0.3,2.04 -1.12,3.94 -3.16,4.24 -0.05,0.01 -0.1,0.01 -0.15,0.02 -1.46,0.21 -2.92,-0.37 -3.85,-1.51 z"
         id="path966" />
      <path
         style="fill:#242424;fill-opacity:1"
         d="m 88.46,56.89 -0.16,-0.2 -0.43,-0.55 -0.53,-0.57 c -0.22,-0.25 -0.48,-0.49 -0.73,-0.75 -0.25,-0.26 -0.56,-0.51 -0.84,-0.72 -0.26,-0.2 -0.54,-0.39 -0.84,-0.54 -0.2,-0.11 -0.42,-0.2 -0.65,-0.25 -0.07,-0.01 -0.14,-0.01 -0.21,0 0,0 -0.06,0 -0.09,0 H 83.9 c 0.12,0 -0.27,0 0.27,0 h -0.55 c -0.15,0 -0.05,0 0,0 h 0.08 c 0.08,0 0,0 0,0 h -0.11 c -0.23,0.05 -0.45,0.13 -0.66,0.25 -0.29,0.15 -0.57,0.34 -0.83,0.54 -0.3,0.22 -0.58,0.46 -0.84,0.72 -0.53,0.51 -1,1 -1.3,1.39 l -0.52,0.6 -0.22,0.27 c -1.45,1.61 -3.87,1.87 -5.63,0.61 -1.12,-0.78 -1.69,-2.13 -1.47,-3.48 0,0 0.07,-0.4 0.27,-1.11 0.3,-1.02 0.71,-2 1.25,-2.91 0.85,-1.5 1.99,-2.81 3.37,-3.85 0.91,-0.7 1.92,-1.26 3,-1.65 0.3,-0.12 0.61,-0.21 0.92,-0.29 0.33,-0.1 0.66,-0.17 1,-0.23 l 0.62,-0.09 0.5,-0.06 h 0.55 0.79 0.51 c 0.34,0 0.67,0.09 1,0.14 0.65,0.11 1.28,0.28 1.89,0.51 1.08,0.39 2.09,0.95 3,1.65 1.38,1.04 2.53,2.35 3.38,3.85 0.31,0.52 0.58,1.07 0.8,1.63 0.19,0.44 0.35,0.89 0.48,1.35 0.07,0.24 0.13,0.48 0.16,0.72 v 0.25 c 0.32,2.04 -1.08,3.95 -3.12,4.27 -0.03,0 -0.06,0.01 -0.09,0.01 -1.49,0.25 -3,-0.33 -3.94,-1.51 z"
         id="path968" />
    </g>
  </g>
</svg>
