<?xml version="1.0" encoding="UTF-8" standalone="no"?>
<svg
   enable-background="new 0 0 128 128"
   viewBox="0 0 128 128"
   version="1.1"
   id="svg1591"
   sodipodi:docname="1f609.svg"
   inkscape:version="1.1.1 (3bf5ae0d25, 2021-09-20)"
   xmlns:inkscape="http://www.inkscape.org/namespaces/inkscape"
   xmlns:sodipodi="http://sodipodi.sourceforge.net/DTD/sodipodi-0.dtd"
   xmlns:xlink="http://www.w3.org/1999/xlink"
   xmlns="http://www.w3.org/2000/svg"
   xmlns:svg="http://www.w3.org/2000/svg">
  <sodipodi:namedview
     id="namedview1593"
     pagecolor="#ffffff"
     bordercolor="#666666"
     borderopacity="1.0"
     inkscape:pageshadow="2"
     inkscape:pageopacity="0.0"
     inkscape:pagecheckerboard="0"
     showgrid="false"
     inkscape:zoom="2.2226563"
     inkscape:cx="8.0984183"
     inkscape:cy="29.019332"
     inkscape:window-width="1920"
     inkscape:window-height="991"
     inkscape:window-x="-9"
     inkscape:window-y="-9"
     inkscape:window-maximized="1"
     inkscape:current-layer="svg1591" />
  <symbol
     viewBox="-64.5 -64.5 129 129"
     id="symbol1544">
    <g
       fill="none"
       stroke="#4285F4"
       stroke-miterlimit="10"
       id="g1542">
      <rect
         x="-64"
         y="-64"
         width="128"
         height="128"
         id="rect1526" />
      <path
         d="M36.95,37.82C27.32,46.32,14.2,51,0,51 c-14.27,0-27.39-4.62-36.96-13.01C-47.45,28.79-53,15.65-53,0c0-15.58,5.55-28.69,16.04-37.92C-27.36-46.35-14.24-51,0-51 c14.17,0,27.29,4.71,36.95,13.25C47.45-28.45,53-15.4,53,0C53,15.47,47.45,28.55,36.95,37.82z"
         id="path1528" />
      <path
         d="m0 55c-29.59 0-57-19.01-57-55 0-35.8 27.41-55 57-55s57 19.69 57 55c0 35.51-27.41 55-57 55z"
         id="path1530" />
      <path
         d="M0-43c-12.29,0-23.54,3.94-31.68,11.09 C-40.39-24.25-45-13.21-45,0c0,29.7,22.6,43,45,43c21.67,0,45-13.46,45-43S21.67-43,0-43L0-43z"
         id="path1532" />
      <line
         x1="-.01"
         x2="-.01"
         y1="51"
         y2="-51"
         id="line1534" />
      <line
         x1="-16"
         x2="-16"
         y1="48.95"
         y2="-48.93"
         id="line1536" />
      <line
         x1="15.99"
         x2="15.99"
         y1="48.91"
         y2="-48.93"
         id="line1538" />
      <line
         x1="53"
         x2="-53"
         y1=".08"
         y2=".08"
         id="line1540" />
    </g>
  </symbol>
  <linearGradient
     id="e"
     x1="64"
     x2="64"
     y1="19.717"
     y2="107.7"
     gradientUnits="userSpaceOnUse">
    <stop
       stop-color="#FEE133"
       offset=".5"
       id="stop1546" />
    <stop
       stop-color="#FEDE32"
       offset=".6118"
       id="stop1548" />
    <stop
       stop-color="#FCD32F"
       offset=".7076"
       id="stop1550" />
    <stop
       stop-color="#FAC12B"
       offset=".7975"
       id="stop1552" />
    <stop
       stop-color="#F7A924"
       offset=".8834"
       id="stop1554" />
    <stop
       stop-color="#F6A323"
       offset=".9"
       id="stop1556" />
  </linearGradient>
  <path
     d="M64,119.89C36.07,119.89,6,102.4,6,64S36.07,8.11,64,8.11c15.48,0,29.81,5.12,40.36,14.43 C115.9,32.72,122,47.06,122,64c0,16.86-6.1,31.17-17.64,41.39C93.78,114.74,79.45,119.89,64,119.89z"
     fill="url(#e)"
     id="path1559"
     style="stroke:#eb8f00;stroke-opacity:1;stroke-width:4;stroke-miterlimit:4;stroke-dasharray:none" />
  <defs
     id="defs1564">
    <path
       id="d"
       d="m63.47 62.53c-15.71 0-30.31-1.32-42.49-3.57-3.02-0.56-5.69 2.1-5.08 5.11 4.04 19.81 23.55 36.08 47.55 36.08 26.27 0 43.94-16.8 47.61-36.15 0.57-2.99-2.1-5.6-5.09-5.04-12.18 2.25-26.78 3.57-42.5 3.57z" />
    <radialGradient
       id="SVGID_1_"
       cx="111.32"
       cy="-687.37512"
       r="25.66"
       gradientTransform="matrix(1,0,0,-1.54,-0.44720811,-1045.3471)"
       gradientUnits="userSpaceOnUse">
      <stop
         offset="0.46"
         style="stop-color:#29B6F6"
         id="stop1538" />
      <stop
         offset="1"
         style="stop-color:#1E88E5"
         id="stop1540" />
    </radialGradient>
    <linearGradient
       id="a-1"
       x1="4.2033"
       x2="123.7"
       y1="15.125"
       y2="15.125"
       gradientUnits="userSpaceOnUse"
       gradientTransform="translate(48.303072,64.509446)">
      <stop
         stop-color="#0846FF"
         offset=".0121"
         id="stop17000" />
      <stop
         stop-color="#089CFF"
         offset=".4777"
         id="stop17002" />
      <stop
         stop-color="#088AFF"
         offset=".5609"
         id="stop17004" />
      <stop
         stop-color="#0865FF"
         offset=".7498"
         id="stop17006" />
      <stop
         stop-color="#084EFF"
         offset=".9029"
         id="stop17008" />
      <stop
         stop-color="#0846FF"
         offset="1"
         id="stop17010" />
    </linearGradient>
  </defs>
  <clipPath
     id="a">
    <use
       xlink:href="#d"
       id="use1566" />
  </clipPath>
  <path
     style="fill:#422b0d;stroke-width:1.08708"
     d="M 65.029548,101.50852"
     id="path921" />
  <path
     style="fill:#422b0d;stroke-width:1.08708"
     d="M 65.029548,101.50852"
     id="path923" />
  <path
     style="fill:#422b0d;stroke-width:1.08708"
     d="M 65.029548,101.80204"
     id="path925" />
  <path
     style="fill:#422b0d;stroke-width:1.08708"
     d="M 65.029548,101.80204"
     id="path931" />
  <path
     style="fill:#422b0d;stroke-width:1.08708"
     d="M 65.018678,101.68246"
     id="path935" />
  <path
     style="fill:#422b0d;stroke-width:1.08708"
     d="M 65.018678,101.68246"
     id="path941" />
  <path
     id="mouth-9"
     d="m 65.029548,97.50852 c -12.74,0 -21.82,-6.61 -24.55,-10.77 -1.03,-1.33 -1.25,-3.13 -0.56,-4.67 0.53,-0.97 1.56,-1.57 2.67,-1.56 0.41,0 0.82,0.07 1.21,0.2 6.9,2.08 14.07,3.11 21.28,3.07 7.17,0.04 14.31,-1 21.18,-3.07 0.39,-0.13 0.8,-0.19 1.21,-0.2 1.11,-0.01 2.14,0.59 2.67,1.56 0.69,1.54 0.47,3.34 -0.56,4.67 -2.73,4.16 -11.8,10.77 -24.55,10.77 z"
     style="fill:#242424;fill-opacity:1" />
  <g
     id="peepers"
     style="fill:#242424;fill-opacity:1"
     transform="translate(0.779548,2.06852)">
    <path
       d="m 97.51,62 -0.2,-0.28 c -0.18,-0.26 -0.37,-0.51 -0.58,-0.75 -0.72,-0.81 -1.53,-1.54 -2.42,-2.16 -1.2,-0.84 -2.5,-1.53 -3.87,-2.05 -0.75,-0.29 -1.52,-0.54 -2.3,-0.74 -0.39,-0.1 -0.82,-0.19 -1.26,-0.28 l -0.6,-0.11 0.59,-0.31 1.75,-0.92 c 1.13,-0.58 2.2,-1.08 3.1,-1.49 0.9,-0.41 1.64,-0.7 2.14,-0.89 l 0.76,-0.27 0.22,-0.09 c 1.41,-0.58 2.07,-2.2 1.49,-3.61 -0.4,-0.96 -1.3,-1.61 -2.33,-1.69 -0.41,-0.02 -0.83,-0.02 -1.24,0 -1.01,0.09 -2.02,0.27 -3,0.52 -1.34,0.34 -2.65,0.77 -3.93,1.29 -0.68,0.3 -1.4,0.58 -2.09,0.94 -0.69,0.36 -1.44,0.74 -2.06,1.07 -0.62,0.33 -1.37,0.82 -2,1.25 -0.63,0.43 -1.27,0.88 -1.87,1.32 -1.11,0.82 -2.16,1.72 -3.13,2.7 -0.73,0.72 -1.39,1.5 -2,2.33 -0.18,0.24 -0.35,0.5 -0.5,0.76 -0.08,0.16 -0.13,0.24 -0.13,0.24 -0.37,0.9 -0.4,1.9 -0.08,2.82 0.56,1.41 2.16,2.1 3.57,1.54 0.01,0 0.02,-0.01 0.03,-0.01 L 75.81,63.04 76,63 76.24,62.94 c 0.17,0 0.48,-0.12 0.8,-0.19 0.32,-0.07 0.71,-0.14 1.13,-0.21 0.99,-0.14 2,-0.22 3,-0.22 1.18,0 2.37,0.08 3.54,0.25 0.21,0 0.74,0.1 1,0.15 0.26,0.05 0.54,0.09 0.84,0.16 0.58,0.14 1.15,0.26 1.69,0.42 0.96,0.27 1.9,0.6 2.82,1 0.6,0.28 1.19,0.59 1.76,0.94 0.4,0.24 0.6,0.39 0.6,0.39 l 0.28,0.21 c 1.2,0.91 2.92,0.67 3.82,-0.54 0.74,-0.98 0.73,-2.33 -0.01,-3.3 z"
       id="path17446"
       style="fill:#242424;fill-opacity:1" />
    <path
       d="m 44.67,46.94 v 0 c -4.19,0 -8,3.54 -8,9.42 0,5.88 3.81,9.41 8,9.41 v 0 c 4.19,0 8,-3.54 8,-9.41 0,-5.87 -3.81,-9.42 -8,-9.42 z"
       id="path17448"
       style="fill:#242424;fill-opacity:1" />
  </g>
  <path
     id="eyebrows"
     d="m 30.619548,46.86852 c -0.87,0.01 -1.68,-0.41 -2.19,-1.11 -0.48,-0.72 -0.57,-1.64 -0.23,-2.44 2.04,-5.12 5.98,-9.26 11,-11.54 1.85,-0.86 3.82,-1.44 5.85,-1.71 0.13,-0.01 0.26,-0.01 0.39,0 1.26,-0.05 2.35,0.86 2.53,2.11 0.18,1.33 -0.61,2.59 -1.89,3 l -0.37,-0.7 0.25,0.74 c -5.37,1.88 -9.95,5.52 -13,10.32 -0.48,0.82 -1.36,1.32 -2.31,1.32 z"
     style="fill:#eb8f00;fill-opacity:1" />
</svg>
