<?xml version="1.0" encoding="UTF-8" standalone="no"?>
<svg
   enable-background="new 0 0 128 128"
   viewBox="0 0 128 128"
   version="1.1"
   id="svg45"
   sodipodi:docname="1f60a.svg"
   inkscape:version="1.1.1 (3bf5ae0d25, 2021-09-20)"
   xmlns:inkscape="http://www.inkscape.org/namespaces/inkscape"
   xmlns:sodipodi="http://sodipodi.sourceforge.net/DTD/sodipodi-0.dtd"
   xmlns="http://www.w3.org/2000/svg"
   xmlns:svg="http://www.w3.org/2000/svg">
  <defs
     id="defs49">
    <linearGradient
       id="e"
       x1="64"
       x2="64"
       y1="19.716999"
       y2="107.7"
       gradientUnits="userSpaceOnUse"
       gradientTransform="translate(0.05636133,0.4936037)">
      <stop
         stop-color="#FEE133"
         offset=".5"
         id="stop1546" />
      <stop
         stop-color="#FEDE32"
         offset=".6118"
         id="stop1548" />
      <stop
         stop-color="#FCD32F"
         offset=".7076"
         id="stop1550" />
      <stop
         stop-color="#FAC12B"
         offset=".7975"
         id="stop1552" />
      <stop
         stop-color="#F7A924"
         offset=".8834"
         id="stop1554" />
      <stop
         stop-color="#F6A323"
         offset=".9"
         id="stop1556" />
    </linearGradient>
    <radialGradient
       id="SVGID_1_"
       cx="25.7006"
       cy="68.023201"
       r="19.444401"
       gradientTransform="matrix(0.9791,0,0,0.9301,2.0871,8.5603)"
       gradientUnits="userSpaceOnUse">
      <stop
         offset="0"
         style="stop-color:#ED7770"
         id="stop1147" />
      <stop
         offset="0.9"
         style="stop-color:#ED7770;stop-opacity:0"
         id="stop1149" />
    </radialGradient>
    <radialGradient
       id="SVGID_2_"
       cx="100.7714"
       cy="68.023201"
       r="19.444401"
       gradientTransform="matrix(0.9791,0,0,0.9301,2.0871,8.5603)"
       gradientUnits="userSpaceOnUse">
      <stop
         offset="0"
         style="stop-color:#ED7770"
         id="stop1154" />
      <stop
         offset="0.9"
         style="stop-color:#ED7770;stop-opacity:0"
         id="stop1156" />
    </radialGradient>
  </defs>
  <sodipodi:namedview
     id="namedview47"
     pagecolor="#ffffff"
     bordercolor="#666666"
     borderopacity="1.0"
     inkscape:pageshadow="2"
     inkscape:pageopacity="0.0"
     inkscape:pagecheckerboard="0"
     showgrid="false"
     inkscape:zoom="4.574097"
     inkscape:cx="106.4691"
     inkscape:cy="85.809287"
     inkscape:window-width="1920"
     inkscape:window-height="991"
     inkscape:window-x="-9"
     inkscape:window-y="-9"
     inkscape:window-maximized="1"
     inkscape:current-layer="svg45" />
  <path
     d="m 64.056351,120.38361 c -27.93,0 -57.9999897,-17.49 -57.9999897,-55.890002 0,-38.400005 30.0699897,-55.8900043 57.9999897,-55.8900043 15.48,0 29.81,5.1200003 40.360009,14.4299993 11.54,10.18 17.64,24.52 17.64,41.460005 0,16.86 -6.1,31.17 -17.64,41.390002 -10.580009,9.35 -24.910009,14.5 -40.360009,14.5 z"
     fill="url(#e)"
     id="path1559"
     style="fill:url(#e);stroke:#eb8f00;stroke-width:4;stroke-miterlimit:4;stroke-dasharray:none;stroke-opacity:1" />
  <symbol
     viewBox="-64.5 -64.5 129 129"
     id="symbol20">
    <g
       fill="none"
       stroke="#4285F4"
       stroke-miterlimit="10"
       id="g18">
      <rect
         x="-64"
         y="-64"
         width="128"
         height="128"
         id="rect2" />
      <path
         d="M36.95,37.82C27.32,46.32,14.2,51,0,51 c-14.27,0-27.39-4.62-36.96-13.01C-47.45,28.79-53,15.65-53,0c0-15.58,5.55-28.69,16.04-37.92C-27.36-46.35-14.24-51,0-51 c14.17,0,27.29,4.71,36.95,13.25C47.45-28.45,53-15.4,53,0C53,15.47,47.45,28.55,36.95,37.82z"
         id="path4" />
      <path
         d="m0 55c-29.59 0-57-19.01-57-55 0-35.8 27.41-55 57-55s57 19.69 57 55c0 35.51-27.41 55-57 55z"
         id="path6" />
      <path
         d="M0-43c-12.29,0-23.54,3.94-31.68,11.09 C-40.39-24.25-45-13.21-45,0c0,29.7,22.6,43,45,43c21.67,0,45-13.46,45-43S21.67-43,0-43L0-43z"
         id="path8" />
      <line
         x1="-.01"
         x2="-.01"
         y1="51"
         y2="-51"
         id="line10" />
      <line
         x1="-16"
         x2="-16"
         y1="48.95"
         y2="-48.93"
         id="line12" />
      <line
         x1="15.99"
         x2="15.99"
         y1="48.91"
         y2="-48.93"
         id="line14" />
      <line
         x1="53"
         x2="-53"
         y1=".08"
         y2=".08"
         id="line16" />
    </g>
  </symbol>
  <linearGradient
     id="a"
     x1="64"
     x2="64"
     y1="19.717"
     y2="107.7"
     gradientUnits="userSpaceOnUse"
     gradientTransform="translate(46.566568,2.842091)">
    <stop
       stop-color="#FEE133"
       offset=".5"
       id="stop22" />
    <stop
       stop-color="#FEDE32"
       offset=".6118"
       id="stop24" />
    <stop
       stop-color="#FCD32F"
       offset=".7076"
       id="stop26" />
    <stop
       stop-color="#FAC12B"
       offset=".7975"
       id="stop28" />
    <stop
       stop-color="#F7A924"
       offset=".8834"
       id="stop30" />
    <stop
       stop-color="#F6A323"
       offset=".9"
       id="stop32" />
  </linearGradient>
  <g
     id="smiling-eyes-smiling-face_2_"
     transform="translate(0.49360375,-0.12394831)">
    <g
       id="blush_2_">
      <radialGradient
         id="radialGradient1257"
         cx="25.7006"
         cy="68.023201"
         r="19.444401"
         gradientTransform="matrix(0.9791,0,0,0.9301,2.0871,8.5603)"
         gradientUnits="userSpaceOnUse">
        <stop
           offset="0"
           style="stop-color:#ED7770"
           id="stop1253" />
        <stop
           offset="0.9"
           style="stop-color:#ED7770;stop-opacity:0"
           id="stop1255" />
      </radialGradient>
      <circle
         style="opacity:0.8;fill:url(#SVGID_1_)"
         cx="27.25"
         cy="71.830002"
         r="17.5"
         id="circle1152" />
      <radialGradient
         id="radialGradient1264"
         cx="100.7714"
         cy="68.023201"
         r="19.444401"
         gradientTransform="matrix(0.9791,0,0,0.9301,2.0871,8.5603)"
         gradientUnits="userSpaceOnUse">
        <stop
           offset="0"
           style="stop-color:#ED7770"
           id="stop1260" />
        <stop
           offset="0.9"
           style="stop-color:#ED7770;stop-opacity:0"
           id="stop1262" />
      </radialGradient>
      <circle
         style="opacity:0.8;fill:url(#SVGID_2_)"
         cx="100.75"
         cy="71.830002"
         r="17.5"
         id="circle1159" />
    </g>
    <path
       id="mouth_22_"
       style="display:none;fill:#35220b"
       d="M 64.49,97.55 C 76.78,97.55 87.75,90.44 95,79.29 96.1,77.59 93.77,75 91.77,77 84.65,84.12 75.2,88.03 64.49,88.03 H 64.28 C 53.58,88.03 44.12,84.13 37,77 c -2,-2 -4.33,0.59 -3.23,2.29 7.24,11.15 18.22,18.26 30.51,18.26 z" />
  </g>
  <g
     id="g1174"
     transform="translate(0.49360375,-0.12394831)"
     style="fill:#242424;fill-opacity:1">
    <g
       id="smiling-eyes-grinning-face_11_"
       style="fill:#242424;fill-opacity:1">
      <g
         id="eyes_22_"
         style="fill:#242424;fill-opacity:1">
        <g
           id="g1166"
           style="fill:#242424;fill-opacity:1">
          <path
             style="fill:#242424;fill-opacity:1"
             d="m 48.96,56.89 c 0,0 -0.05,-0.07 -0.16,-0.2 -0.1,-0.13 -0.24,-0.31 -0.42,-0.54 -0.15,-0.16 -0.33,-0.35 -0.54,-0.57 -0.21,-0.24 -0.47,-0.49 -0.73,-0.75 -0.27,-0.25 -0.55,-0.51 -0.84,-0.72 -0.28,-0.23 -0.59,-0.4 -0.84,-0.54 -0.26,-0.16 -0.5,-0.2 -0.65,-0.25 -0.08,-0.03 -0.15,-0.03 -0.21,-0.04 -0.03,0.01 -0.06,-0.01 -0.09,0 l -0.04,0.01 h -0.02 -0.01 v 0 0 0 c 0.12,0 -0.27,0.01 0.27,-0.01 l -0.55,0.02 c -0.14,0 -0.05,0.01 -0.04,0.01 0.03,0 0.05,0 0.07,-0.01 0.08,-0.03 0,0 -0.02,0 -0.03,0 -0.07,0.01 -0.11,0.03 -0.16,0.05 -0.4,0.09 -0.65,0.25 -0.25,0.14 -0.56,0.31 -0.84,0.54 -0.28,0.22 -0.57,0.47 -0.84,0.72 -0.52,0.51 -0.98,1.02 -1.3,1.39 -0.33,0.38 -0.51,0.6 -0.51,0.6 l -0.23,0.27 c -1.37,1.6 -3.89,1.87 -5.62,0.61 -1.18,-0.86 -1.69,-2.2 -1.47,-3.48 0,0 0.07,-0.41 0.27,-1.12 0.21,-0.71 0.56,-1.72 1.25,-2.91 0.69,-1.18 1.69,-2.57 3.38,-3.84 0.83,-0.62 1.84,-1.24 3.04,-1.66 0.29,-0.11 0.6,-0.21 0.92,-0.29 0.33,-0.08 0.59,-0.17 1.04,-0.23 l 0.62,-0.09 c 0.19,-0.02 0.47,-0.05 0.51,-0.05 L 44.15,44 44.46,43.99 h 0.03 0.06 L 44.68,44 h 0.24 l 0.51,0.03 c 0.34,0.03 0.67,0.09 1,0.14 0.65,0.12 1.3,0.29 1.89,0.51 1.2,0.42 2.21,1.03 3.04,1.66 1.69,1.27 2.69,2.66 3.38,3.84 0.35,0.59 0.61,1.15 0.8,1.64 0.21,0.47 0.36,0.97 0.48,1.34 0.11,0.36 0.11,0.55 0.16,0.72 0.03,0.16 0.04,0.25 0.04,0.25 0.37,2.02 -1.12,3.93 -3.31,4.26 -1.57,0.25 -3.08,-0.38 -3.95,-1.5 z"
             id="path1164" />
        </g>
        <g
           id="g1170"
           style="fill:#242424;fill-opacity:1">
          <path
             style="fill:#242424;fill-opacity:1"
             d="m 88.46,56.89 c 0,0 -0.05,-0.07 -0.16,-0.2 -0.1,-0.13 -0.24,-0.31 -0.42,-0.54 -0.15,-0.16 -0.33,-0.35 -0.54,-0.57 -0.21,-0.24 -0.47,-0.49 -0.73,-0.75 -0.27,-0.25 -0.55,-0.51 -0.84,-0.72 -0.28,-0.23 -0.59,-0.4 -0.84,-0.54 -0.26,-0.16 -0.5,-0.2 -0.65,-0.25 -0.08,-0.03 -0.15,-0.03 -0.21,-0.04 -0.03,0.01 -0.06,-0.01 -0.09,0 l -0.04,0.01 H 83.92 83.91 83.9 v 0 0 c 0.12,0 -0.27,0.01 0.27,-0.01 l -0.55,0.02 c -0.14,0 -0.05,0.01 -0.04,0.01 0.03,0 0.05,0 0.07,-0.01 0.08,-0.03 0,0 -0.02,0 -0.03,0 -0.07,0.01 -0.11,0.03 -0.16,0.05 -0.4,0.09 -0.65,0.25 -0.25,0.14 -0.56,0.31 -0.84,0.54 -0.28,0.22 -0.57,0.47 -0.84,0.72 -0.52,0.51 -0.98,1.02 -1.3,1.39 -0.33,0.38 -0.51,0.6 -0.51,0.6 l -0.23,0.27 c -1.37,1.6 -3.89,1.87 -5.62,0.61 -1.18,-0.86 -1.69,-2.2 -1.47,-3.48 0,0 0.07,-0.41 0.27,-1.12 0.21,-0.71 0.56,-1.72 1.25,-2.91 0.69,-1.18 1.69,-2.57 3.38,-3.84 0.83,-0.62 1.84,-1.24 3.04,-1.66 0.29,-0.11 0.6,-0.21 0.92,-0.29 0.33,-0.08 0.59,-0.17 1.04,-0.23 l 0.62,-0.09 c 0.19,-0.02 0.47,-0.05 0.51,-0.05 L 83.64,44 83.95,43.99 h 0.03 0.06 L 84.17,44 h 0.24 l 0.51,0.03 c 0.34,0.03 0.67,0.09 1,0.14 0.65,0.12 1.3,0.29 1.89,0.51 1.2,0.42 2.21,1.03 3.04,1.66 1.69,1.27 2.69,2.66 3.38,3.84 0.35,0.59 0.61,1.15 0.8,1.64 0.21,0.47 0.36,0.97 0.48,1.34 0.11,0.36 0.11,0.55 0.16,0.72 0.03,0.16 0.04,0.25 0.04,0.25 0.37,2.02 -1.12,3.93 -3.31,4.26 -1.57,0.25 -3.08,-0.38 -3.94,-1.5 z"
             id="path1168" />
        </g>
      </g>
    </g>
  </g>
  <path
     id="mouth_9_"
     style="fill:#242424;fill-opacity:1"
     d="m 64.513604,93.866052 c -12.57,0 -22.51,-5.95 -27.99,-12.32 -0.55,-0.64 -0.68,-1.5 -0.33,-2.25 0.35,-0.77 1.11,-1.27 1.93,-1.27 v 0 c 0.37,0 0.75,0.1 1.08,0.29 5.65,3.26 15.14,7.29 25.28,7.29 h 0.16 c 10.15,0 19.63,-4.04 25.280004,-7.29 0.34,-0.19 0.71,-0.3 1.08,-0.29 v 0 c 0.82,0 1.58,0.5 1.93,1.27 0.34,0.75 0.22,1.62 -0.33,2.25 -5.48,6.36 -15.430004,12.32 -27.990004,12.32" />
</svg>
