<?xml version="1.0" encoding="UTF-8" standalone="no"?>
<svg
   enable-background="new 0 0 128 128"
   viewBox="0 0 128 128"
   version="1.1"
   id="svg1591"
   sodipodi:docname="1f602.svg"
   inkscape:version="1.1.1 (3bf5ae0d25, 2021-09-20)"
   xmlns:inkscape="http://www.inkscape.org/namespaces/inkscape"
   xmlns:sodipodi="http://sodipodi.sourceforge.net/DTD/sodipodi-0.dtd"
   xmlns:xlink="http://www.w3.org/1999/xlink"
   xmlns="http://www.w3.org/2000/svg"
   xmlns:svg="http://www.w3.org/2000/svg">
  <sodipodi:namedview
     id="namedview1593"
     pagecolor="#ffffff"
     bordercolor="#666666"
     borderopacity="1.0"
     inkscape:pageshadow="2"
     inkscape:pageopacity="0.0"
     inkscape:pagecheckerboard="0"
     showgrid="false"
     inkscape:zoom="4.4453125"
     inkscape:cx="82.558875"
     inkscape:cy="93.919156"
     inkscape:window-width="1920"
     inkscape:window-height="991"
     inkscape:window-x="-9"
     inkscape:window-y="-9"
     inkscape:window-maximized="1"
     inkscape:current-layer="svg1591" />
  <symbol
     viewBox="-64.5 -64.5 129 129"
     id="symbol1544">
    <g
       fill="none"
       stroke="#4285F4"
       stroke-miterlimit="10"
       id="g1542">
      <rect
         x="-64"
         y="-64"
         width="128"
         height="128"
         id="rect1526" />
      <path
         d="M36.95,37.82C27.32,46.32,14.2,51,0,51 c-14.27,0-27.39-4.62-36.96-13.01C-47.45,28.79-53,15.65-53,0c0-15.58,5.55-28.69,16.04-37.92C-27.36-46.35-14.24-51,0-51 c14.17,0,27.29,4.71,36.95,13.25C47.45-28.45,53-15.4,53,0C53,15.47,47.45,28.55,36.95,37.82z"
         id="path1528" />
      <path
         d="m0 55c-29.59 0-57-19.01-57-55 0-35.8 27.41-55 57-55s57 19.69 57 55c0 35.51-27.41 55-57 55z"
         id="path1530" />
      <path
         d="M0-43c-12.29,0-23.54,3.94-31.68,11.09 C-40.39-24.25-45-13.21-45,0c0,29.7,22.6,43,45,43c21.67,0,45-13.46,45-43S21.67-43,0-43L0-43z"
         id="path1532" />
      <line
         x1="-.01"
         x2="-.01"
         y1="51"
         y2="-51"
         id="line1534" />
      <line
         x1="-16"
         x2="-16"
         y1="48.95"
         y2="-48.93"
         id="line1536" />
      <line
         x1="15.99"
         x2="15.99"
         y1="48.91"
         y2="-48.93"
         id="line1538" />
      <line
         x1="53"
         x2="-53"
         y1=".08"
         y2=".08"
         id="line1540" />
    </g>
  </symbol>
  <linearGradient
     id="e"
     x1="64"
     x2="64"
     y1="19.717"
     y2="107.7"
     gradientUnits="userSpaceOnUse">
    <stop
       stop-color="#FEE133"
       offset=".5"
       id="stop1546" />
    <stop
       stop-color="#FEDE32"
       offset=".6118"
       id="stop1548" />
    <stop
       stop-color="#FCD32F"
       offset=".7076"
       id="stop1550" />
    <stop
       stop-color="#FAC12B"
       offset=".7975"
       id="stop1552" />
    <stop
       stop-color="#F7A924"
       offset=".8834"
       id="stop1554" />
    <stop
       stop-color="#F6A323"
       offset=".9"
       id="stop1556" />
  </linearGradient>
  <path
     d="M64,119.89C36.07,119.89,6,102.4,6,64S36.07,8.11,64,8.11c15.48,0,29.81,5.12,40.36,14.43 C115.9,32.72,122,47.06,122,64c0,16.86-6.1,31.17-17.64,41.39C93.78,114.74,79.45,119.89,64,119.89z"
     fill="url(#e)"
     id="path1559"
     style="stroke:#eb8f00;stroke-opacity:1;stroke-width:4;stroke-miterlimit:4;stroke-dasharray:none" />
  <defs
     id="defs1564">
    <path
       id="d"
       d="m63.47 62.53c-15.71 0-30.31-1.32-42.49-3.57-3.02-0.56-5.69 2.1-5.08 5.11 4.04 19.81 23.55 36.08 47.55 36.08 26.27 0 43.94-16.8 47.61-36.15 0.57-2.99-2.1-5.6-5.09-5.04-12.18 2.25-26.78 3.57-42.5 3.57z" />
    <radialGradient
       id="SVGID_1_"
       cx="111.32"
       cy="-687.37512"
       r="25.66"
       gradientTransform="matrix(1,0,0,-1.54,-0.44720811,-1045.3471)"
       gradientUnits="userSpaceOnUse">
      <stop
         offset="0.46"
         style="stop-color:#29B6F6"
         id="stop1538" />
      <stop
         offset="1"
         style="stop-color:#1E88E5"
         id="stop1540" />
    </radialGradient>
  </defs>
  <clipPath
     id="a">
    <use
       xlink:href="#d"
       id="use1566" />
  </clipPath>
  <path
     style="fill:#422b0d;stroke-width:1.08708"
     d="M 64.129724,101.50852"
     id="path921" />
  <path
     style="fill:#422b0d;stroke-width:1.08708"
     d="M 64.129724,101.50852"
     id="path923" />
  <path
     style="fill:#422b0d;stroke-width:1.08708"
     d="M 64.129724,101.80204"
     id="path925" />
  <path
     style="fill:#422b0d;stroke-width:1.08708"
     d="M 64.194944,73.168329"
     id="path927" />
  <path
     style="fill:#422b0d;stroke-width:1.08708"
     d="M 64.194944,73.168329"
     id="path929" />
  <path
     style="fill:#422b0d;stroke-width:1.08708"
     d="M 64.129724,101.80204"
     id="path931" />
  <path
     style="fill:#242424;fill-opacity:1;stroke:#eb8f00;stroke-width:7;stroke-miterlimit:4;stroke-dasharray:none;stroke-opacity:1"
     d="m 106.13454,69.863605 c -1.52192,-2.750315 -4.82664,-3.956975 -7.761766,-2.848152 -11.15345,3.250372 -22.72,4.870123 -34.34089,4.815768 -11.6209,0.05436 -23.18744,-1.565396 -34.34089,-4.815768 -2.92424,-1.108823 -6.22897,0.08696 -7.75088,2.826409 -1.47843,2.728574 -0.41309,5.891978 0.83705,8.620552 6.97906,15.32784 22.36125,24.502806 41.16775,24.557156 h 0.17394 c 18.80649,0 34.18869,-9.229315 41.178626,-24.557156 1.23928,-2.750314 2.31549,-5.870237 0.83706,-8.598809 z"
     id="path933" />
  <path
     style="fill:#242424;fill-opacity:1;stroke:none;stroke-width:4;stroke-miterlimit:4;stroke-dasharray:none;stroke-opacity:1"
     d="m 106.13454,69.863605 c -1.52192,-2.750315 -4.82664,-3.956975 -7.761766,-2.848152 -11.15345,3.250372 -22.72,4.870123 -34.34089,4.815768 -11.6209,0.05436 -23.18744,-1.565396 -34.34089,-4.815768 -2.92424,-1.108823 -6.22897,0.08696 -7.75088,2.826409 -1.47843,2.728574 -0.41309,5.891978 0.83705,8.620555 6.97906,15.32784 22.36125,24.502803 41.16775,24.557153 h 0.17394 c 18.80649,0 34.18869,-9.229313 41.178626,-24.557153 1.23928,-2.750317 2.31549,-5.87024 0.83706,-8.598812 z"
     id="path933-8" />
  <path
     style="fill:#422b0d;stroke-width:1.08708"
     d="M 64.118854,101.68246"
     id="path935" />
  <path
     style="fill:#422b0d;stroke-width:1.08708"
     d="M 64.194944,73.211813"
     id="path937" />
  <path
     style="fill:#422b0d;stroke-width:1.08708"
     d="M 64.194944,73.211813"
     id="path939" />
  <path
     style="fill:#422b0d;stroke-width:1.08708"
     d="M 64.118854,101.68246"
     id="path941" />
  <path
     style="fill:#ed7770;stroke-width:1.08708"
     d="m 81.436044,98.69299 c -0.40222,-0.36961 -0.81531,-0.706605 -1.2284,-1.087085 -4.43529,-3.902616 -10.17507,-6.000683 -16.08879,-5.881104 -6.08766,-0.09784 -12.01225,1.924134 -16.76279,5.728915 -0.41309,0.336995 -0.84793,0.663124 -1.25015,1.087074 -0.40222,0.42397 -0.61963,0.72835 -0.88053,1.08708 5.97894,2.33724 12.34924,3.53303 18.77389,3.50041 h 0.17393 c 6.15288,0 12.2514,-1.09795 18.01293,-3.26124 -0.21742,-0.4131 -0.46745,-0.80445 -0.75009,-1.17405 z"
     id="path943" />
  <path
     style="fill:#ffffff;stroke-width:1.08708"
     d="m 98.372774,67.015453 c -11.15345,3.250372 -22.72,4.870122 -34.34089,4.815767 -11.6209,0.05436 -23.18744,-1.565395 -34.34089,-4.815767 -2.92424,-1.108823 -6.22897,0.08696 -7.75088,2.826409 -0.21742,0.413091 -0.39135,0.847923 -0.50006,1.293627 0.35874,0.184804 0.77183,0.369608 1.26101,0.565281 13.08846,6.555098 27.5575,9.881566 42.18961,9.707634 14.03422,0.163061 27.90537,-2.891637 40.580746,-8.914064 0.51093,-0.217416 0.93489,-0.423962 1.31537,-0.619636 -0.0869,-0.706602 -0.31526,-1.402334 -0.65225,-2.032842 -1.52192,-2.739444 -4.82664,-3.946104 -7.761766,-2.826409 z"
     id="path945" />
  <path
     id="left-eyebrow"
     style="fill:#eb8f00;fill-opacity:1"
     d="m 39.544841,30.518353 c -0.44,-1.06 -1.64,-1.6 -2.72,-1.21 -1.62,0.53 -3.18,1.22 -4.67,2.05 -3.96,2.18 -7.350003,5.27 -9.890003,9 -0.7,0.95 -0.52,2.28 0.41,3 0.49,0.41 1.13,0.61 1.77,0.53 0.48,-0.07 0.92,-0.3 1.26,-0.65 3.840003,-3.76 8.140003,-7.02 12.790003,-9.7 l 0.11,-0.06 c 1.06,-0.57 1.48,-1.88 0.94,-2.96 z" />
  <path
     id="left-eyebrow-2"
     style="fill:#eb8f00;fill-opacity:1"
     d="m 90.794841,29.518353 c 0.44,-1.06 1.64,-1.6 2.72,-1.21 1.61,0.52 3.17,1.19 4.66,2 3.959999,2.18 7.349999,5.26 9.899999,9 0.69,0.95 0.51,2.27 -0.41,3 -0.49,0.41 -1.13,0.6 -1.77,0.53 -0.48,-0.07 -0.92,-0.3 -1.26,-0.65 -3.84,-3.76 -8.139999,-7.02 -12.789999,-9.7 l -0.11,-0.06 c -1.03,-0.57 -1.45,-1.84 -0.94,-2.91 z" />
  <g
     id="tears-of-joy"
     transform="translate(0.10483825,-0.69164737)">
    <path
       style="fill:#5f7aff;fill-opacity:1;stroke:#4864ed;stroke-opacity:1;stroke-width:4;stroke-miterlimit:4;stroke-dasharray:none"
       d="m 100.69,57.09 c 0,0 17,0.47 23.79,13 2.84,5.26 3,14 -2.88,17.19 -7.11,3.91 -13.78,-1.64 -14.63,-7.56 -2.29,-16.06 -6.28,-22.63 -6.28,-22.63 z"
       id="path15735" />
    <path
       style="fill:#5f7aff;fill-opacity:1;stroke:#4864ed;stroke-opacity:1;stroke-width:4;stroke-miterlimit:4;stroke-dasharray:none"
       d="m 27.31,57.09 c 0,0 -17,0.47 -23.79,13 C 0.68,75.3 0.57,84 6.4,87.23 c 7.11,3.91 13.78,-1.64 14.63,-7.56 2.29,-16.01 6.28,-22.58 6.28,-22.58 z"
       id="path15741" />
    <path
       style="fill:#242424;fill-opacity:1"
       d="M 48.15,55.87 48,55.65 47.79,55.38 c -0.08,-0.11 -0.16,-0.2 -0.26,-0.29 l -0.61,-0.62 c -0.26,-0.26 -0.55,-0.52 -0.87,-0.79 -0.66,-0.57 -1.4,-1.03 -2.2,-1.39 -0.77,-0.34 -1.61,-0.52 -2.45,-0.52 0.35,0 0.09,0 0.17,0 H 41 c -0.1,-0.01 -0.19,-0.01 -0.29,0 -0.18,0.02 -0.36,0.05 -0.54,0.09 -0.41,0.1 -0.82,0.23 -1.21,0.39 -0.8,0.35 -1.54,0.82 -2.2,1.39 -0.54,0.45 -1.05,0.94 -1.52,1.47 l -0.57,0.64 -0.3,0.34 c -1.21,1.38 -3.3,1.52 -4.68,0.32 -1.03,-0.9 -1.4,-2.35 -0.94,-3.64 l 0.11,-0.32 c 0.09,-0.21 0.17,-0.53 0.36,-0.91 0.46,-1.08 1.06,-2.11 1.78,-3.04 1.75,-2.31 4.21,-3.99 7,-4.79 0.57,-0.15 1.15,-0.26 1.74,-0.34 0.3,0 0.74,-0.09 0.87,-0.09 h 0.76 c 1.13,0.02 2.26,0.18 3.36,0.46 1.05,0.29 2.05,0.71 3,1.25 1.55,0.91 2.91,2.11 4,3.54 0.74,0.97 1.37,2.02 1.86,3.14 0.08,0.16 0.15,0.32 0.19,0.49 0.05,0.13 0.08,0.24 0.11,0.33 l 0.09,0.27 c 0.57,1.77 -0.4,3.67 -2.17,4.24 -1.33,0.43 -2.8,-0.01 -3.67,-1.1 z"
       id="path15745" />
    <path
       style="fill:#242424;fill-opacity:1"
       d="M 93.48,55.87 93.3,55.65 93.09,55.38 c -0.08,-0.11 -0.16,-0.2 -0.26,-0.29 l -0.62,-0.62 c -0.27,-0.28 -0.56,-0.54 -0.86,-0.79 -0.66,-0.57 -1.4,-1.03 -2.2,-1.39 -0.77,-0.34 -1.61,-0.52 -2.45,-0.52 0.35,0 0.09,0 0.17,0 h -0.58 c -0.1,-0.01 -0.19,-0.01 -0.29,0 -0.18,0.02 -0.36,0.05 -0.54,0.09 -0.41,0.1 -0.82,0.23 -1.21,0.39 -0.81,0.37 -1.57,0.85 -2.25,1.43 -0.54,0.46 -1.04,0.95 -1.51,1.47 l -0.57,0.64 -0.3,0.34 c -1.21,1.38 -3.3,1.52 -4.68,0.32 -1.03,-0.9 -1.4,-2.35 -0.94,-3.64 l 0.11,-0.32 c 0.09,-0.21 0.17,-0.53 0.35,-0.91 0.48,-1.1 1.09,-2.13 1.83,-3.08 1.75,-2.31 4.21,-3.99 7,-4.79 0.57,-0.15 1.15,-0.26 1.74,-0.34 0.3,0 0.74,-0.09 0.87,-0.09 h 0.76 c 1.13,0.02 2.26,0.18 3.36,0.46 1.04,0.3 2.04,0.72 2.98,1.26 1.55,0.9 2.91,2.11 4,3.54 0.42,0.54 0.79,1.11 1.13,1.7 0.27,0.47 0.51,0.95 0.73,1.44 0.08,0.16 0.14,0.32 0.19,0.49 0,0.13 0.08,0.24 0.11,0.33 l 0.09,0.27 c 0.57,1.77 -0.4,3.67 -2.17,4.24 -1.33,0.43 -2.8,-0.01 -3.67,-1.1 z"
       id="path15747" />
  </g>
</svg>
