<?xml version="1.0" encoding="UTF-8" standalone="no"?>
<svg
   enable-background="new 0 0 128 128"
   viewBox="0 0 128 128"
   version="1.1"
   id="svg1591"
   sodipodi:docname="1f607.svg"
   inkscape:version="1.1.1 (3bf5ae0d25, 2021-09-20)"
   xmlns:inkscape="http://www.inkscape.org/namespaces/inkscape"
   xmlns:sodipodi="http://sodipodi.sourceforge.net/DTD/sodipodi-0.dtd"
   xmlns:xlink="http://www.w3.org/1999/xlink"
   xmlns="http://www.w3.org/2000/svg"
   xmlns:svg="http://www.w3.org/2000/svg">
  <sodipodi:namedview
     id="namedview1593"
     pagecolor="#ffffff"
     bordercolor="#666666"
     borderopacity="1.0"
     inkscape:pageshadow="2"
     inkscape:pageopacity="0.0"
     inkscape:pagecheckerboard="0"
     showgrid="false"
     inkscape:zoom="2.2226563"
     inkscape:cx="8.0984183"
     inkscape:cy="29.019332"
     inkscape:window-width="1920"
     inkscape:window-height="991"
     inkscape:window-x="-9"
     inkscape:window-y="-9"
     inkscape:window-maximized="1"
     inkscape:current-layer="svg1591" />
  <symbol
     viewBox="-64.5 -64.5 129 129"
     id="symbol1544">
    <g
       fill="none"
       stroke="#4285F4"
       stroke-miterlimit="10"
       id="g1542">
      <rect
         x="-64"
         y="-64"
         width="128"
         height="128"
         id="rect1526" />
      <path
         d="M36.95,37.82C27.32,46.32,14.2,51,0,51 c-14.27,0-27.39-4.62-36.96-13.01C-47.45,28.79-53,15.65-53,0c0-15.58,5.55-28.69,16.04-37.92C-27.36-46.35-14.24-51,0-51 c14.17,0,27.29,4.71,36.95,13.25C47.45-28.45,53-15.4,53,0C53,15.47,47.45,28.55,36.95,37.82z"
         id="path1528" />
      <path
         d="m0 55c-29.59 0-57-19.01-57-55 0-35.8 27.41-55 57-55s57 19.69 57 55c0 35.51-27.41 55-57 55z"
         id="path1530" />
      <path
         d="M0-43c-12.29,0-23.54,3.94-31.68,11.09 C-40.39-24.25-45-13.21-45,0c0,29.7,22.6,43,45,43c21.67,0,45-13.46,45-43S21.67-43,0-43L0-43z"
         id="path1532" />
      <line
         x1="-.01"
         x2="-.01"
         y1="51"
         y2="-51"
         id="line1534" />
      <line
         x1="-16"
         x2="-16"
         y1="48.95"
         y2="-48.93"
         id="line1536" />
      <line
         x1="15.99"
         x2="15.99"
         y1="48.91"
         y2="-48.93"
         id="line1538" />
      <line
         x1="53"
         x2="-53"
         y1=".08"
         y2=".08"
         id="line1540" />
    </g>
  </symbol>
  <linearGradient
     id="e"
     x1="64"
     x2="64"
     y1="19.717"
     y2="107.7"
     gradientUnits="userSpaceOnUse">
    <stop
       stop-color="#FEE133"
       offset=".5"
       id="stop1546" />
    <stop
       stop-color="#FEDE32"
       offset=".6118"
       id="stop1548" />
    <stop
       stop-color="#FCD32F"
       offset=".7076"
       id="stop1550" />
    <stop
       stop-color="#FAC12B"
       offset=".7975"
       id="stop1552" />
    <stop
       stop-color="#F7A924"
       offset=".8834"
       id="stop1554" />
    <stop
       stop-color="#F6A323"
       offset=".9"
       id="stop1556" />
  </linearGradient>
  <path
     d="M64,119.89C36.07,119.89,6,102.4,6,64S36.07,8.11,64,8.11c15.48,0,29.81,5.12,40.36,14.43 C115.9,32.72,122,47.06,122,64c0,16.86-6.1,31.17-17.64,41.39C93.78,114.74,79.45,119.89,64,119.89z"
     fill="url(#e)"
     id="path1559"
     style="stroke:#eb8f00;stroke-opacity:1;stroke-width:4;stroke-miterlimit:4;stroke-dasharray:none" />
  <defs
     id="defs1564">
    <path
       id="d"
       d="m63.47 62.53c-15.71 0-30.31-1.32-42.49-3.57-3.02-0.56-5.69 2.1-5.08 5.11 4.04 19.81 23.55 36.08 47.55 36.08 26.27 0 43.94-16.8 47.61-36.15 0.57-2.99-2.1-5.6-5.09-5.04-12.18 2.25-26.78 3.57-42.5 3.57z" />
    <radialGradient
       id="SVGID_1_"
       cx="111.32"
       cy="-687.37512"
       r="25.66"
       gradientTransform="matrix(1,0,0,-1.54,-0.44720811,-1045.3471)"
       gradientUnits="userSpaceOnUse">
      <stop
         offset="0.46"
         style="stop-color:#29B6F6"
         id="stop1538" />
      <stop
         offset="1"
         style="stop-color:#1E88E5"
         id="stop1540" />
    </radialGradient>
    <linearGradient
       id="a-1"
       x1="4.2033"
       x2="123.7"
       y1="15.125"
       y2="15.125"
       gradientUnits="userSpaceOnUse"
       gradientTransform="translate(48.303072,64.509446)">
      <stop
         stop-color="#0846FF"
         offset=".0121"
         id="stop17000" />
      <stop
         stop-color="#089CFF"
         offset=".4777"
         id="stop17002" />
      <stop
         stop-color="#088AFF"
         offset=".5609"
         id="stop17004" />
      <stop
         stop-color="#0865FF"
         offset=".7498"
         id="stop17006" />
      <stop
         stop-color="#084EFF"
         offset=".9029"
         id="stop17008" />
      <stop
         stop-color="#0846FF"
         offset="1"
         id="stop17010" />
    </linearGradient>
    <linearGradient
       inkscape:collect="always"
       xlink:href="#a-1"
       id="linearGradient17184"
       x1="4.1999998"
       y1="16.125"
       x2="123.75"
       y2="16.125"
       gradientUnits="userSpaceOnUse" />
    <linearGradient
       inkscape:collect="always"
       xlink:href="#a-1"
       id="linearGradient17346"
       gradientUnits="userSpaceOnUse"
       x1="4.1999998"
       y1="16.125"
       x2="123.75"
       y2="16.125" />
    <linearGradient
       inkscape:collect="always"
       xlink:href="#a-1"
       id="linearGradient17348"
       gradientUnits="userSpaceOnUse"
       x1="4.1999998"
       y1="16.125"
       x2="123.75"
       y2="16.125" />
  </defs>
  <clipPath
     id="a">
    <use
       xlink:href="#d"
       id="use1566" />
  </clipPath>
  <path
     style="fill:#422b0d;stroke-width:1.08708"
     d="M 65.029548,101.50852"
     id="path921" />
  <path
     style="fill:#422b0d;stroke-width:1.08708"
     d="M 65.029548,101.50852"
     id="path923" />
  <path
     style="fill:#422b0d;stroke-width:1.08708"
     d="M 65.029548,101.80204"
     id="path925" />
  <path
     style="fill:#422b0d;stroke-width:1.08708"
     d="M 65.094768,73.168329"
     id="path927" />
  <path
     style="fill:#422b0d;stroke-width:1.08708"
     d="M 65.094768,73.168329"
     id="path929" />
  <path
     style="fill:#422b0d;stroke-width:1.08708"
     d="M 65.029548,101.80204"
     id="path931" />
  <path
     style="fill:#422b0d;stroke-width:1.08708"
     d="M 65.018678,101.68246"
     id="path935" />
  <path
     style="fill:#422b0d;stroke-width:1.08708"
     d="M 65.094768,73.211813"
     id="path937" />
  <path
     style="fill:#422b0d;stroke-width:1.08708"
     d="M 65.094768,73.211813"
     id="path939" />
  <path
     style="fill:#422b0d;stroke-width:1.08708"
     d="M 65.018678,101.68246"
     id="path941" />
  <g
     id="smiling-face-with-halo"
     transform="translate(0.35859345,2.6735145)"
     style="fill:url(#linearGradient17184);fill-opacity:1;stroke:none;stroke-width:4;stroke-miterlimit:4;stroke-dasharray:none;stroke-opacity:1">
    <g
       id="prop"
       style="fill:url(#linearGradient17348);fill-opacity:1;stroke:none;stroke-width:4;stroke-miterlimit:4;stroke-dasharray:none;stroke-opacity:1">
      <path
         style="fill:url(#linearGradient17346);fill-opacity:1;stroke:none;stroke-width:4;stroke-miterlimit:4;stroke-dasharray:none;stroke-opacity:1"
         d="M 64,0 C 31,0 4.2,6.77 4.2,15.12 c 0,8.35 15.18,17.13 59.8,17.13 42.16,0 59.75,-8.77 59.75,-17.13 C 123.75,6.76 97,0 64,0 Z m 0,21.44 c -25.52,0 -46.22,-2 -46.22,-6.92 0,-4.92 20.7,-10 46.22,-10 25.52,0 46.22,5.12 46.22,10.05 0,4.93 -20.74,6.87 -46.22,6.87 z"
         id="path11026" />
    </g>
  </g>
  <path
     id="mouth"
     style="fill:#242424;fill-opacity:1"
     d="m 63.358593,94.283515 c -9.07,0.07 -17.73,-3.74 -23.8,-10.480001 -0.46,-0.53 -0.57,-1.28 -0.28,-1.92 0.29,-0.65 0.93,-1.069999 1.64,-1.08 v 0 c 0.32,0 0.64,0.09 0.92,0.25 4.82,2.77 12.88,6.21 21.52,6.21 h 0.14 c 8.63,0 16.7,-3.44 21.51,-6.21 0.28,-0.16 0.6,-0.25 0.92,-0.25 v 0 c 0.71,0.01 1.35,0.430001 1.64,1.08 0.3,0.64 0.19,1.39 -0.28,1.92 -6.07,6.74 -14.75,10.56 -23.82,10.480001" />
  <g
     id="smiling-eyes-grinning-face-6"
     transform="translate(0.35859345,2.6735145)"
     style="fill:#242424;fill-opacity:1">
    <g
       id="eyes-3"
       style="fill:#242424;fill-opacity:1">
      <path
         style="fill:#242424;fill-opacity:1"
         d="m 49,56.89 -0.15,-0.2 -0.43,-0.55 -0.53,-0.57 c -0.22,-0.25 -0.48,-0.49 -0.73,-0.75 -0.25,-0.26 -0.56,-0.51 -0.84,-0.72 -0.26,-0.2 -0.54,-0.39 -0.84,-0.54 -0.2,-0.11 -0.42,-0.2 -0.65,-0.25 -0.07,-0.01 -0.14,-0.01 -0.21,0 0,0 -0.06,0 -0.09,0 h -0.08 c 0.12,0 -0.27,0 0.27,0 h -0.55 c -0.15,0 -0.05,0 0,0 h 0.08 c 0.08,0 0,0 0,0 h -0.11 c -0.23,0.05 -0.45,0.13 -0.66,0.25 -0.29,0.16 -0.58,0.34 -0.84,0.54 -0.29,0.22 -0.57,0.46 -0.83,0.72 -0.53,0.51 -1,1 -1.3,1.39 l -0.52,0.6 -0.23,0.27 c -1.44,1.61 -3.87,1.87 -5.62,0.61 -1.12,-0.78 -1.69,-2.13 -1.47,-3.48 0,0 0.07,-0.4 0.26,-1.11 0.3,-1.01 0.72,-1.99 1.25,-2.91 0.85,-1.5 2,-2.81 3.38,-3.85 0.91,-0.7 1.92,-1.26 3,-1.65 0.3,-0.12 0.61,-0.21 0.92,-0.29 0.33,-0.1 0.66,-0.17 1,-0.23 l 0.61,-0.09 0.51,-0.06 h 0.55 0.79 0.51 c 0.34,0 0.67,0.09 1,0.14 0.64,0.11 1.28,0.28 1.89,0.51 1.08,0.39 2.09,0.95 3,1.65 1.38,1.04 2.53,2.35 3.38,3.85 0.31,0.52 0.58,1.07 0.8,1.63 0.19,0.45 0.35,0.9 0.48,1.37 0.07,0.24 0.13,0.48 0.16,0.72 v 0.25 c 0.3,2.04 -1.12,3.94 -3.16,4.24 -0.05,0.01 -0.1,0.01 -0.15,0.02 -1.46,0.21 -2.92,-0.37 -3.85,-1.51 z"
         id="path11031" />
      <path
         style="fill:#242424;fill-opacity:1"
         d="m 88.46,56.89 -0.16,-0.2 -0.43,-0.55 -0.53,-0.57 c -0.22,-0.25 -0.48,-0.49 -0.73,-0.75 -0.25,-0.26 -0.56,-0.51 -0.84,-0.72 -0.26,-0.2 -0.54,-0.39 -0.84,-0.54 -0.2,-0.11 -0.42,-0.2 -0.65,-0.25 -0.07,-0.01 -0.14,-0.01 -0.21,0 0,0 -0.06,0 -0.09,0 H 83.9 c 0.12,0 -0.27,0 0.27,0 h -0.55 c -0.15,0 -0.05,0 0,0 h 0.08 c 0.08,0 0,0 0,0 h -0.11 c -0.23,0.05 -0.45,0.13 -0.66,0.25 -0.29,0.15 -0.57,0.34 -0.83,0.54 -0.3,0.22 -0.58,0.46 -0.84,0.72 -0.53,0.51 -1,1 -1.3,1.39 l -0.52,0.6 -0.22,0.27 c -1.45,1.61 -3.87,1.87 -5.63,0.61 -1.12,-0.78 -1.69,-2.13 -1.47,-3.48 0,0 0.07,-0.4 0.27,-1.11 0.3,-1.02 0.71,-2 1.25,-2.91 0.85,-1.5 1.99,-2.81 3.37,-3.85 0.91,-0.7 1.92,-1.26 3,-1.65 0.3,-0.12 0.61,-0.21 0.92,-0.29 0.33,-0.1 0.66,-0.17 1,-0.23 l 0.62,-0.09 0.5,-0.06 h 0.55 0.79 0.51 c 0.34,0 0.67,0.09 1,0.14 0.65,0.11 1.28,0.28 1.89,0.51 1.08,0.39 2.09,0.95 3,1.65 1.38,1.04 2.53,2.35 3.38,3.85 0.31,0.52 0.58,1.07 0.8,1.63 0.19,0.44 0.35,0.89 0.48,1.35 0.07,0.24 0.13,0.48 0.16,0.72 v 0.25 c 0.32,2.04 -1.08,3.95 -3.12,4.27 -0.03,0 -0.06,0.01 -0.09,0.01 -1.49,0.25 -3,-0.33 -3.94,-1.51 z"
         id="path11033" />
    </g>
  </g>
</svg>
