<?xml version="1.0" encoding="UTF-8" standalone="no"?>
<svg
   enable-background="new 0 0 128 128"
   viewBox="0 0 128 128"
   version="1.1"
   id="svg1591"
   sodipodi:docname="1f601.svg"
   inkscape:version="1.1.1 (3bf5ae0d25, 2021-09-20)"
   xmlns:inkscape="http://www.inkscape.org/namespaces/inkscape"
   xmlns:sodipodi="http://sodipodi.sourceforge.net/DTD/sodipodi-0.dtd"
   xmlns:xlink="http://www.w3.org/1999/xlink"
   xmlns="http://www.w3.org/2000/svg"
   xmlns:svg="http://www.w3.org/2000/svg">
  <sodipodi:namedview
     id="namedview1593"
     pagecolor="#ffffff"
     bordercolor="#666666"
     borderopacity="1.0"
     inkscape:pageshadow="2"
     inkscape:pageopacity="0.0"
     inkscape:pagecheckerboard="0"
     showgrid="false"
     inkscape:zoom="3.1433106"
     inkscape:cx="176.2473"
     inkscape:cy="118.50563"
     inkscape:window-width="1920"
     inkscape:window-height="991"
     inkscape:window-x="-9"
     inkscape:window-y="-9"
     inkscape:window-maximized="1"
     inkscape:current-layer="svg1591" />
  <symbol
     viewBox="-64.5 -64.5 129 129"
     id="symbol1544">
    <g
       fill="none"
       stroke="#4285F4"
       stroke-miterlimit="10"
       id="g1542">
      <rect
         x="-64"
         y="-64"
         width="128"
         height="128"
         id="rect1526" />
      <path
         d="M36.95,37.82C27.32,46.32,14.2,51,0,51 c-14.27,0-27.39-4.62-36.96-13.01C-47.45,28.79-53,15.65-53,0c0-15.58,5.55-28.69,16.04-37.92C-27.36-46.35-14.24-51,0-51 c14.17,0,27.29,4.71,36.95,13.25C47.45-28.45,53-15.4,53,0C53,15.47,47.45,28.55,36.95,37.82z"
         id="path1528" />
      <path
         d="m0 55c-29.59 0-57-19.01-57-55 0-35.8 27.41-55 57-55s57 19.69 57 55c0 35.51-27.41 55-57 55z"
         id="path1530" />
      <path
         d="M0-43c-12.29,0-23.54,3.94-31.68,11.09 C-40.39-24.25-45-13.21-45,0c0,29.7,22.6,43,45,43c21.67,0,45-13.46,45-43S21.67-43,0-43L0-43z"
         id="path1532" />
      <line
         x1="-.01"
         x2="-.01"
         y1="51"
         y2="-51"
         id="line1534" />
      <line
         x1="-16"
         x2="-16"
         y1="48.95"
         y2="-48.93"
         id="line1536" />
      <line
         x1="15.99"
         x2="15.99"
         y1="48.91"
         y2="-48.93"
         id="line1538" />
      <line
         x1="53"
         x2="-53"
         y1=".08"
         y2=".08"
         id="line1540" />
    </g>
  </symbol>
  <linearGradient
     id="e"
     x1="64"
     x2="64"
     y1="19.717"
     y2="107.7"
     gradientUnits="userSpaceOnUse">
    <stop
       stop-color="#FEE133"
       offset=".5"
       id="stop1546" />
    <stop
       stop-color="#FEDE32"
       offset=".6118"
       id="stop1548" />
    <stop
       stop-color="#FCD32F"
       offset=".7076"
       id="stop1550" />
    <stop
       stop-color="#FAC12B"
       offset=".7975"
       id="stop1552" />
    <stop
       stop-color="#F7A924"
       offset=".8834"
       id="stop1554" />
    <stop
       stop-color="#F6A323"
       offset=".9"
       id="stop1556" />
  </linearGradient>
  <path
     d="M64,119.89C36.07,119.89,6,102.4,6,64S36.07,8.11,64,8.11c15.48,0,29.81,5.12,40.36,14.43 C115.9,32.72,122,47.06,122,64c0,16.86-6.1,31.17-17.64,41.39C93.78,114.74,79.45,119.89,64,119.89z"
     fill="url(#e)"
     id="path1559"
     style="stroke:#eb8f00;stroke-opacity:1;stroke-width:4;stroke-miterlimit:4;stroke-dasharray:none" />
  <defs
     id="defs1564">
    <path
       id="d"
       d="m63.47 62.53c-15.71 0-30.31-1.32-42.49-3.57-3.02-0.56-5.69 2.1-5.08 5.11 4.04 19.81 23.55 36.08 47.55 36.08 26.27 0 43.94-16.8 47.61-36.15 0.57-2.99-2.1-5.6-5.09-5.04-12.18 2.25-26.78 3.57-42.5 3.57z" />
    <radialGradient
       id="SVGID_1_"
       cx="111.32"
       cy="-687.37512"
       r="25.66"
       gradientTransform="matrix(1,0,0,-1.54,-0.44720811,-1045.3471)"
       gradientUnits="userSpaceOnUse">
      <stop
         offset="0.46"
         style="stop-color:#29B6F6"
         id="stop1538" />
      <stop
         offset="1"
         style="stop-color:#1E88E5"
         id="stop1540" />
    </radialGradient>
  </defs>
  <clipPath
     id="a">
    <use
       xlink:href="#d"
       id="use1566" />
  </clipPath>
  <path
     style="fill:#ffffff;stroke:#eb8f00;stroke-width:4.43297;stroke-miterlimit:4;stroke-dasharray:none;stroke-opacity:1"
     d="m 106.90313,69.594794 c -1.55154,-2.792774 -4.9206,-4.022924 -7.912861,-2.881434 -9.974194,3.103082 -22.164872,4.244573 -34.44421,4.255655 -11.847123,0.04433 -23.638834,-1.606953 -35.009412,-4.931683 -2.992269,-1.141491 -6.361318,0.08866 -7.912859,2.881433 -1.507211,2.781691 -0.410061,6.00668 0.853347,8.788371 7.181418,15.648398 22.807652,25.001974 41.980264,25.057394 h 0.177319 c 19.172613,0 34.289051,-8.755132 41.415062,-24.381365 1.2634,-2.781692 2.36056,-6.00668 0.85335,-8.788371 z"
     id="path914-5" />
  <g
     id="smiling-eyes-grinning-face-3"
     transform="translate(2.0327996,-4.4869716)"
     style="fill:#242424;fill-opacity:1">
    <g
       id="eyes"
       style="fill:#242424;fill-opacity:1">
      <path
         style="fill:#242424;fill-opacity:1"
         d="m 49,56.89 -0.15,-0.2 -0.43,-0.55 -0.53,-0.57 c -0.22,-0.25 -0.48,-0.49 -0.73,-0.75 -0.25,-0.26 -0.56,-0.51 -0.84,-0.72 -0.26,-0.2 -0.54,-0.39 -0.84,-0.54 -0.2,-0.11 -0.42,-0.2 -0.65,-0.25 -0.07,-0.01 -0.14,-0.01 -0.21,0 0,0 -0.06,0 -0.09,0 h -0.08 c 0.12,0 -0.27,0 0.27,0 h -0.55 c -0.15,0 -0.05,0 0,0 h 0.08 c 0.08,0 0,0 0,0 h -0.11 c -0.23,0.05 -0.45,0.13 -0.66,0.25 -0.29,0.16 -0.58,0.34 -0.84,0.54 -0.29,0.22 -0.57,0.46 -0.83,0.72 -0.53,0.51 -1,1 -1.3,1.39 l -0.52,0.6 -0.23,0.27 c -1.44,1.61 -3.87,1.87 -5.62,0.61 -1.12,-0.78 -1.69,-2.13 -1.47,-3.48 0,0 0.07,-0.4 0.26,-1.11 0.3,-1.01 0.72,-1.99 1.25,-2.91 0.85,-1.5 2,-2.81 3.38,-3.85 0.91,-0.7 1.92,-1.26 3,-1.65 0.3,-0.12 0.61,-0.21 0.92,-0.29 0.33,-0.1 0.66,-0.17 1,-0.23 l 0.61,-0.09 0.51,-0.06 h 0.55 0.79 0.51 c 0.34,0 0.67,0.09 1,0.14 0.64,0.11 1.28,0.28 1.89,0.51 1.08,0.39 2.09,0.95 3,1.65 1.38,1.04 2.53,2.35 3.38,3.85 0.31,0.52 0.58,1.07 0.8,1.63 0.19,0.45 0.35,0.9 0.48,1.37 0.07,0.24 0.13,0.48 0.16,0.72 v 0.25 c 0.3,2.04 -1.12,3.94 -3.16,4.24 -0.05,0.01 -0.1,0.01 -0.15,0.02 -1.46,0.21 -2.92,-0.37 -3.85,-1.51 z"
         id="path966" />
      <path
         style="fill:#242424;fill-opacity:1"
         d="m 88.46,56.89 -0.16,-0.2 -0.43,-0.55 -0.53,-0.57 c -0.22,-0.25 -0.48,-0.49 -0.73,-0.75 -0.25,-0.26 -0.56,-0.51 -0.84,-0.72 -0.26,-0.2 -0.54,-0.39 -0.84,-0.54 -0.2,-0.11 -0.42,-0.2 -0.65,-0.25 -0.07,-0.01 -0.14,-0.01 -0.21,0 0,0 -0.06,0 -0.09,0 H 83.9 c 0.12,0 -0.27,0 0.27,0 h -0.55 c -0.15,0 -0.05,0 0,0 h 0.08 c 0.08,0 0,0 0,0 h -0.11 c -0.23,0.05 -0.45,0.13 -0.66,0.25 -0.29,0.15 -0.57,0.34 -0.83,0.54 -0.3,0.22 -0.58,0.46 -0.84,0.72 -0.53,0.51 -1,1 -1.3,1.39 l -0.52,0.6 -0.22,0.27 c -1.45,1.61 -3.87,1.87 -5.63,0.61 -1.12,-0.78 -1.69,-2.13 -1.47,-3.48 0,0 0.07,-0.4 0.27,-1.11 0.3,-1.02 0.71,-2 1.25,-2.91 0.85,-1.5 1.99,-2.81 3.37,-3.85 0.91,-0.7 1.92,-1.26 3,-1.65 0.3,-0.12 0.61,-0.21 0.92,-0.29 0.33,-0.1 0.66,-0.17 1,-0.23 l 0.62,-0.09 0.5,-0.06 h 0.55 0.79 0.51 c 0.34,0 0.67,0.09 1,0.14 0.65,0.11 1.28,0.28 1.89,0.51 1.08,0.39 2.09,0.95 3,1.65 1.38,1.04 2.53,2.35 3.38,3.85 0.31,0.52 0.58,1.07 0.8,1.63 0.19,0.44 0.35,0.89 0.48,1.35 0.07,0.24 0.13,0.48 0.16,0.72 v 0.25 c 0.32,2.04 -1.08,3.95 -3.12,4.27 -0.03,0 -0.06,0.01 -0.09,0.01 -1.49,0.25 -3,-0.33 -3.94,-1.51 z"
         id="path968" />
    </g>
  </g>
  <path
     style="fill:#422b0d;stroke-width:1.10824"
     d="M 63.836783,72.35432"
     id="path922" />
  <path
     style="fill:#422b0d;stroke-width:1.10824"
     d="M 63.836783,72.35432"
     id="path924" />
  <path
     style="fill:#422b0d;stroke-width:1.10824"
     d="M 64.479564,101.37922"
     id="path926" />
  <path
     style="fill:#422b0d;stroke-width:1.10824"
     d="M 64.557141,72.35432"
     id="path928" />
  <path
     style="fill:#422b0d;stroke-width:1.10824"
     d="M 64.557141,72.35432"
     id="path930" />
  <path
     style="fill:#422b0d;stroke-width:1.10824"
     d="M 64.479564,101.37922"
     id="path932" />
  <path
     style="fill:#b3b3b3;stroke-width:1.10824"
     d="m 106.00545,73.606646 c -0.0997,0.06649 -6.871111,5.131168 -19.604829,8.411568 V 69.495063 c -1.451799,0.221648 -2.936846,0.41005 -4.432974,0.576286 v 12.944284 c -5.153333,1.019584 -10.395324,1.584789 -15.648399,1.695613 V 70.946862 h -1.751024 c -0.897678,0 -1.784272,0 -2.68195,0 v 13.764384 c 0.476545,0.01108 0.476545,0.02217 0,0.02217 l -0.02217,-0.02217 C 56.732942,84.622587 51.62394,84.134959 46.570349,83.237282 V 69.727794 C 45.063138,69.52831 43.589163,69.295579 42.137364,69.040683 V 82.306358 C 29.037926,79.192193 22.454971,74.21618 22.3663,74.138603 c -0.365709,-0.288143 -0.820089,-0.45438 -1.285562,-0.465462 0.310308,1.396387 0.775781,2.759526 1.396397,4.056171 0.387886,0.853347 0.809018,1.673448 1.252316,2.493548 5.796102,3.069834 11.991194,5.308486 18.407913,6.649461 v 0.02217 10.905116 c 1.440728,0.698193 2.925774,1.329892 4.432985,1.872931 V 87.758916 c 5.053591,0.842265 10.173675,1.307727 15.29376,1.385304 l 0.02217,0.02217 c -0.01108,0 -0.01108,0 -0.02217,0 v 13.53166 c 0.853348,0 1.717778,0.0887 2.59329,0.0887 h 0.177319 c 0.565204,0 1.108244,0 1.662365,0 V 89.14422 h -0.06649 0.06649 c 5.253075,-0.09974 10.495066,-0.631699 15.670564,-1.584788 v 12.423409 c 1.507211,-0.509792 2.992257,-1.108243 4.432974,-1.784272 V 86.617425 c 6.760285,-1.551541 13.265678,-4.089419 19.294529,-7.524974 0.11082,-0.243813 0.24381,-0.465462 0.35463,-0.709275 0.80902,-1.640201 1.34098,-3.402308 1.55155,-5.219827 -0.56521,-0.0665 -1.1415,0.09974 -1.59588,0.443297 z"
     id="path935-4" />
  <path
     style="fill:none;stroke:#eb8f00;stroke-width:4.43297;stroke-miterlimit:4;stroke-dasharray:none;stroke-opacity:1"
     d="m 106.90313,69.594794 c -1.55154,-2.792774 -4.9206,-4.022924 -7.912861,-2.881434 -9.974194,3.103082 -22.164872,4.244573 -34.44421,4.255655 -11.847123,0.04433 -23.638834,-1.606953 -35.009412,-4.931683 -2.992269,-1.141491 -6.361318,0.08866 -7.912859,2.881433 -1.507211,2.781691 -0.410061,6.00668 0.853347,8.788371 7.181418,15.648398 22.807652,25.001974 41.980264,25.057394 h 0.177319 c 19.172613,0 34.289051,-8.755132 41.415062,-24.381365 1.2634,-2.781692 2.36056,-6.00668 0.85335,-8.788371 z"
     id="path914" />
</svg>
