<?xml version="1.0" encoding="UTF-8" standalone="no"?>
<svg
   enable-background="new 0 0 128 128"
   viewBox="0 0 128 128"
   version="1.1"
   id="svg45"
   sodipodi:docname="1f619.svg"
   inkscape:version="1.1.1 (3bf5ae0d25, 2021-09-20)"
   xmlns:inkscape="http://www.inkscape.org/namespaces/inkscape"
   xmlns:sodipodi="http://sodipodi.sourceforge.net/DTD/sodipodi-0.dtd"
   xmlns="http://www.w3.org/2000/svg"
   xmlns:svg="http://www.w3.org/2000/svg">
  <defs
     id="defs49">
    <linearGradient
       id="e"
       x1="64"
       x2="64"
       y1="19.716999"
       y2="107.7"
       gradientUnits="userSpaceOnUse"
       gradientTransform="translate(0.05636133,0.4936037)">
      <stop
         stop-color="#FEE133"
         offset=".5"
         id="stop1546" />
      <stop
         stop-color="#FEDE32"
         offset=".6118"
         id="stop1548" />
      <stop
         stop-color="#FCD32F"
         offset=".7076"
         id="stop1550" />
      <stop
         stop-color="#FAC12B"
         offset=".7975"
         id="stop1552" />
      <stop
         stop-color="#F7A924"
         offset=".8834"
         id="stop1554" />
      <stop
         stop-color="#F6A323"
         offset=".9"
         id="stop1556" />
    </linearGradient>
  </defs>
  <sodipodi:namedview
     id="namedview47"
     pagecolor="#ffffff"
     bordercolor="#666666"
     borderopacity="1.0"
     inkscape:pageshadow="2"
     inkscape:pageopacity="0.0"
     inkscape:pagecheckerboard="0"
     showgrid="false"
     inkscape:zoom="4.574097"
     inkscape:cx="106.4691"
     inkscape:cy="85.809287"
     inkscape:window-width="1920"
     inkscape:window-height="991"
     inkscape:window-x="-9"
     inkscape:window-y="-9"
     inkscape:window-maximized="1"
     inkscape:current-layer="svg45" />
  <path
     d="m 64.056351,120.38361 c -27.93,0 -57.9999897,-17.49 -57.9999897,-55.890002 0,-38.400005 30.0699897,-55.8900043 57.9999897,-55.8900043 15.48,0 29.81,5.1200003 40.360009,14.4299993 11.54,10.18 17.64,24.52 17.64,41.460005 0,16.86 -6.1,31.17 -17.64,41.390002 -10.580009,9.35 -24.910009,14.5 -40.360009,14.5 z"
     fill="url(#e)"
     id="path1559"
     style="fill:url(#e);stroke:#eb8f00;stroke-width:4;stroke-miterlimit:4;stroke-dasharray:none;stroke-opacity:1" />
  <symbol
     viewBox="-64.5 -64.5 129 129"
     id="symbol20">
    <g
       fill="none"
       stroke="#4285F4"
       stroke-miterlimit="10"
       id="g18">
      <rect
         x="-64"
         y="-64"
         width="128"
         height="128"
         id="rect2" />
      <path
         d="M36.95,37.82C27.32,46.32,14.2,51,0,51 c-14.27,0-27.39-4.62-36.96-13.01C-47.45,28.79-53,15.65-53,0c0-15.58,5.55-28.69,16.04-37.92C-27.36-46.35-14.24-51,0-51 c14.17,0,27.29,4.71,36.95,13.25C47.45-28.45,53-15.4,53,0C53,15.47,47.45,28.55,36.95,37.82z"
         id="path4" />
      <path
         d="m0 55c-29.59 0-57-19.01-57-55 0-35.8 27.41-55 57-55s57 19.69 57 55c0 35.51-27.41 55-57 55z"
         id="path6" />
      <path
         d="M0-43c-12.29,0-23.54,3.94-31.68,11.09 C-40.39-24.25-45-13.21-45,0c0,29.7,22.6,43,45,43c21.67,0,45-13.46,45-43S21.67-43,0-43L0-43z"
         id="path8" />
      <line
         x1="-.01"
         x2="-.01"
         y1="51"
         y2="-51"
         id="line10" />
      <line
         x1="-16"
         x2="-16"
         y1="48.95"
         y2="-48.93"
         id="line12" />
      <line
         x1="15.99"
         x2="15.99"
         y1="48.91"
         y2="-48.93"
         id="line14" />
      <line
         x1="53"
         x2="-53"
         y1=".08"
         y2=".08"
         id="line16" />
    </g>
  </symbol>
  <linearGradient
     id="a"
     x1="64"
     x2="64"
     y1="19.717"
     y2="107.7"
     gradientUnits="userSpaceOnUse"
     gradientTransform="translate(46.566568,2.842091)">
    <stop
       stop-color="#FEE133"
       offset=".5"
       id="stop22" />
    <stop
       stop-color="#FEDE32"
       offset=".6118"
       id="stop24" />
    <stop
       stop-color="#FCD32F"
       offset=".7076"
       id="stop26" />
    <stop
       stop-color="#FAC12B"
       offset=".7975"
       id="stop28" />
    <stop
       stop-color="#F7A924"
       offset=".8834"
       id="stop30" />
    <stop
       stop-color="#F6A323"
       offset=".9"
       id="stop32" />
  </linearGradient>
  <path
     style="fill:#242424;fill-opacity:1"
     d="m 71.937994,88.947434 c 1.71,-1.51 2.78,-3.6 3,-5.87 0.19,-3.599996 -0.73,-4.839996 -1.91,-6.409996 -2.71,-3.65 -10.4,-2.78 -10.4,-2.78 -2,0.08 -4.44,1.06 -4.15,3.44 0.39,1.35 1.49,2.379996 2.87,2.689996 3,0.73 7.37,0 7.49,3.09 0.14,3.46 -5.18,2 -5.6,5.7 -0.42,3.7 5.6,3.19 5.6,5.71 0,1.93 -2,2.26 -4.07,2.7 -1.79,0.37 -5.23,0.93 -5.51,2.999996 -0.28,2.07 0.91,4.57 5.75,3.84 7.61,-1.15 10.17,-5.319996 10.17,-7.879996 0.05,-2.77 -1.14,-5.42 -3.24,-7.23 z"
     id="path22" />
  <g
     id="smiling-eyes-grinning-face"
     transform="translate(-0.9220062,4.0174377)"
     style="fill:#242424;fill-opacity:1">
    <g
       id="eyes"
       style="fill:#242424;fill-opacity:1">
      <path
         style="fill:#242424;fill-opacity:1"
         d="m 49,56.89 -0.15,-0.2 -0.43,-0.55 -0.53,-0.57 c -0.22,-0.25 -0.48,-0.49 -0.73,-0.75 -0.25,-0.26 -0.56,-0.51 -0.84,-0.72 -0.26,-0.2 -0.54,-0.39 -0.84,-0.54 -0.2,-0.11 -0.42,-0.2 -0.65,-0.25 -0.07,-0.01 -0.14,-0.01 -0.21,0 0,0 -0.06,0 -0.09,0 h -0.08 c 0.12,0 -0.27,0 0.27,0 h -0.55 c -0.15,0 -0.05,0 0,0 h 0.08 c 0.08,0 0,0 0,0 h -0.11 c -0.23,0.05 -0.45,0.13 -0.66,0.25 -0.29,0.16 -0.58,0.34 -0.84,0.54 -0.29,0.22 -0.57,0.46 -0.83,0.72 -0.53,0.51 -1,1 -1.3,1.39 l -0.52,0.6 -0.23,0.27 c -1.44,1.61 -3.87,1.87 -5.62,0.61 -1.12,-0.78 -1.69,-2.13 -1.47,-3.48 0,0 0.07,-0.4 0.26,-1.11 0.3,-1.01 0.72,-1.99 1.25,-2.91 0.85,-1.5 2,-2.81 3.38,-3.85 0.91,-0.7 1.92,-1.26 3,-1.65 0.3,-0.12 0.61,-0.21 0.92,-0.29 0.33,-0.1 0.66,-0.17 1,-0.23 l 0.61,-0.09 0.51,-0.06 h 0.55 0.79 0.51 c 0.34,0 0.67,0.09 1,0.14 0.64,0.11 1.28,0.28 1.89,0.51 1.08,0.39 2.09,0.95 3,1.65 1.38,1.04 2.53,2.35 3.38,3.85 0.31,0.52 0.58,1.07 0.8,1.63 0.19,0.45 0.35,0.9 0.48,1.37 0.07,0.24 0.13,0.48 0.16,0.72 v 0.25 c 0.3,2.04 -1.12,3.94 -3.16,4.24 -0.05,0.01 -0.1,0.01 -0.15,0.02 -1.46,0.21 -2.92,-0.37 -3.85,-1.51 z"
         id="path7016" />
      <path
         style="fill:#242424;fill-opacity:1"
         d="m 88.46,56.89 -0.16,-0.2 -0.43,-0.55 -0.53,-0.57 c -0.22,-0.25 -0.48,-0.49 -0.73,-0.75 -0.25,-0.26 -0.56,-0.51 -0.84,-0.72 -0.26,-0.2 -0.54,-0.39 -0.84,-0.54 -0.2,-0.11 -0.42,-0.2 -0.65,-0.25 -0.07,-0.01 -0.14,-0.01 -0.21,0 0,0 -0.06,0 -0.09,0 H 83.9 c 0.12,0 -0.27,0 0.27,0 h -0.55 c -0.15,0 -0.05,0 0,0 h 0.08 c 0.08,0 0,0 0,0 h -0.11 c -0.23,0.05 -0.45,0.13 -0.66,0.25 -0.29,0.15 -0.57,0.34 -0.83,0.54 -0.3,0.22 -0.58,0.46 -0.84,0.72 -0.53,0.51 -1,1 -1.3,1.39 l -0.52,0.6 -0.22,0.27 c -1.45,1.61 -3.87,1.87 -5.63,0.61 -1.12,-0.78 -1.69,-2.13 -1.47,-3.48 0,0 0.07,-0.4 0.27,-1.11 0.3,-1.02 0.71,-2 1.25,-2.91 0.85,-1.5 1.99,-2.81 3.37,-3.85 0.91,-0.7 1.92,-1.26 3,-1.65 0.3,-0.12 0.61,-0.21 0.92,-0.29 0.33,-0.1 0.66,-0.17 1,-0.23 l 0.62,-0.09 0.5,-0.06 h 0.55 0.79 0.51 c 0.34,0 0.67,0.09 1,0.14 0.65,0.11 1.28,0.28 1.89,0.51 1.08,0.39 2.09,0.95 3,1.65 1.38,1.04 2.53,2.35 3.38,3.85 0.31,0.52 0.58,1.07 0.8,1.63 0.19,0.44 0.35,0.89 0.48,1.35 0.07,0.24 0.13,0.48 0.16,0.72 v 0.25 c 0.32,2.04 -1.08,3.95 -3.12,4.27 -0.03,0 -0.06,0.01 -0.09,0.01 -1.49,0.25 -3,-0.33 -3.94,-1.51 z"
         id="path7018" />
    </g>
  </g>
</svg>
