<?xml version="1.0" encoding="UTF-8" standalone="no"?>
<svg
   enable-background="new 0 0 128 128"
   viewBox="0 0 128 128"
   version="1.1"
   id="svg45"
   sodipodi:docname="1f614.svg"
   inkscape:version="1.1.1 (3bf5ae0d25, 2021-09-20)"
   xmlns:inkscape="http://www.inkscape.org/namespaces/inkscape"
   xmlns:sodipodi="http://sodipodi.sourceforge.net/DTD/sodipodi-0.dtd"
   xmlns="http://www.w3.org/2000/svg"
   xmlns:svg="http://www.w3.org/2000/svg">
  <defs
     id="defs49">
    <linearGradient
       id="e"
       x1="64"
       x2="64"
       y1="19.716999"
       y2="107.7"
       gradientUnits="userSpaceOnUse"
       gradientTransform="translate(0.77294886)">
      <stop
         stop-color="#FEE133"
         offset=".5"
         id="stop1546" />
      <stop
         stop-color="#FEDE32"
         offset=".6118"
         id="stop1548" />
      <stop
         stop-color="#FCD32F"
         offset=".7076"
         id="stop1550" />
      <stop
         stop-color="#FAC12B"
         offset=".7975"
         id="stop1552" />
      <stop
         stop-color="#F7A924"
         offset=".8834"
         id="stop1554" />
      <stop
         stop-color="#F6A323"
         offset=".9"
         id="stop1556" />
    </linearGradient>
  </defs>
  <sodipodi:namedview
     id="namedview47"
     pagecolor="#ffffff"
     bordercolor="#666666"
     borderopacity="1.0"
     inkscape:pageshadow="2"
     inkscape:pageopacity="0.0"
     inkscape:pagecheckerboard="0"
     showgrid="false"
     inkscape:zoom="6.46875"
     inkscape:cx="64"
     inkscape:cy="64.077295"
     inkscape:window-width="1920"
     inkscape:window-height="991"
     inkscape:window-x="-9"
     inkscape:window-y="-9"
     inkscape:window-maximized="1"
     inkscape:current-layer="svg45" />
  <symbol
     viewBox="-64.5 -64.5 129 129"
     id="symbol20">
    <g
       fill="none"
       stroke="#4285F4"
       stroke-miterlimit="10"
       id="g18">
      <rect
         x="-64"
         y="-64"
         width="128"
         height="128"
         id="rect2" />
      <path
         d="M36.95,37.82C27.32,46.32,14.2,51,0,51 c-14.27,0-27.39-4.62-36.96-13.01C-47.45,28.79-53,15.65-53,0c0-15.58,5.55-28.69,16.04-37.92C-27.36-46.35-14.24-51,0-51 c14.17,0,27.29,4.71,36.95,13.25C47.45-28.45,53-15.4,53,0C53,15.47,47.45,28.55,36.95,37.82z"
         id="path4" />
      <path
         d="m0 55c-29.59 0-57-19.01-57-55 0-35.8 27.41-55 57-55s57 19.69 57 55c0 35.51-27.41 55-57 55z"
         id="path6" />
      <path
         d="M0-43c-12.29,0-23.54,3.94-31.68,11.09 C-40.39-24.25-45-13.21-45,0c0,29.7,22.6,43,45,43c21.67,0,45-13.46,45-43S21.67-43,0-43L0-43z"
         id="path8" />
      <line
         x1="-.01"
         x2="-.01"
         y1="51"
         y2="-51"
         id="line10" />
      <line
         x1="-16"
         x2="-16"
         y1="48.95"
         y2="-48.93"
         id="line12" />
      <line
         x1="15.99"
         x2="15.99"
         y1="48.91"
         y2="-48.93"
         id="line14" />
      <line
         x1="53"
         x2="-53"
         y1=".08"
         y2=".08"
         id="line16" />
    </g>
  </symbol>
  <linearGradient
     id="a"
     x1="64"
     x2="64"
     y1="19.717"
     y2="107.7"
     gradientUnits="userSpaceOnUse">
    <stop
       stop-color="#FEE133"
       offset=".5"
       id="stop22" />
    <stop
       stop-color="#FEDE32"
       offset=".6118"
       id="stop24" />
    <stop
       stop-color="#FCD32F"
       offset=".7076"
       id="stop26" />
    <stop
       stop-color="#FAC12B"
       offset=".7975"
       id="stop28" />
    <stop
       stop-color="#F7A924"
       offset=".8834"
       id="stop30" />
    <stop
       stop-color="#F6A323"
       offset=".9"
       id="stop32" />
  </linearGradient>
  <path
     d="M 64.772947,119.89 C 36.842949,119.89 6.7729488,102.4 6.7729488,64 c 0,-38.4 30.0700002,-55.89 57.9999982,-55.89 15.48,0 29.81,5.12 40.360003,14.43 11.54,10.18 17.64,24.52 17.64,41.46 0,16.86 -6.1,31.17 -17.64,41.39 -10.580003,9.35 -24.910003,14.5 -40.360003,14.5 z"
     fill="url(#e)"
     id="path1559"
     style="fill:url(#e);stroke:#eb8f00;stroke-width:4;stroke-miterlimit:4;stroke-dasharray:none;stroke-opacity:1" />
  <g
     id="pensive-face"
     style="fill:#242424;fill-opacity:1"
     transform="translate(-0.01884976,6.0386344)">
    <line
       id="mouth-2"
       style="fill:#242424;fill-opacity:1;stroke:#35220b;stroke-width:8;stroke-linecap:round;stroke-linejoin:round"
       x1="53"
       y1="95"
       x2="75"
       y2="95" />
    <g
       id="eyes"
       style="fill:#242424;fill-opacity:1">
      <g
         id="peepers-5"
         style="fill:#242424;fill-opacity:1">
        <path
           style="fill:#242424;fill-opacity:1"
           d="m 49.6,64 -0.2,0.2 -0.5,0.5 c -0.2,0.2 -0.4,0.3 -0.7,0.6 -0.32,0.26 -0.65,0.49 -1,0.7 -0.4,0.2 -0.8,0.5 -1.2,0.7 -0.4,0.2 -0.9,0.4 -1.4,0.6 -0.49,0.18 -0.99,0.31 -1.5,0.4 -0.53,0.09 -1.06,0.12 -1.6,0.1 h -0.9 c -0.2,0 -0.5,-0.1 -0.7,-0.1 C 39.39,67.61 38.89,67.48 38.4,67.3 37.91,67.16 37.44,66.96 37,66.7 36.58,66.5 36.18,66.27 35.8,66 35.1,65.5 34.5,65 34.1,64.7 l -0.6,-0.6 -0.2,-0.2 c -1.29,-1.16 -3.22,-1.24 -4.6,-0.2 -0.97,0.76 -1.3,2.08 -0.8,3.2 l 0.1,0.3 c 0.11,0.28 0.25,0.54 0.4,0.8 0.61,1.03 1.35,1.97 2.2,2.8 0.59,0.58 1.23,1.12 1.9,1.6 0.79,0.55 1.62,1.02 2.5,1.4 0.96,0.44 1.97,0.77 3,1 0.5,0.1 1.1,0.2 1.7,0.3 0.3,0 0.7,0.1 0.8,0.1 h 0.8 c 1.11,0 2.21,-0.1 3.3,-0.3 1.04,-0.21 2.04,-0.55 3,-1 0.88,-0.38 1.71,-0.85 2.5,-1.4 0.72,-0.43 1.36,-0.97 1.9,-1.6 0.49,-0.45 0.93,-0.95 1.3,-1.5 0.2,-0.2 0.3,-0.5 0.5,-0.7 0.2,-0.2 0.3,-0.4 0.4,-0.6 0.17,-0.24 0.31,-0.51 0.4,-0.8 l 0.1,-0.2 C 55.32,65.7 54.68,64.05 53.28,63.43 53.16,63.38 53.03,63.33 52.9,63.3 51.76,62.83 50.45,63.11 49.6,64 Z"
           id="path888" />
        <path
           style="fill:#242424;fill-opacity:1"
           d="m 94.51,64.37 -0.2,0.2 c -0.16,0.18 -0.33,0.35 -0.51,0.5 l -0.69,0.57 c -0.29,0.22 -0.62,0.46 -1,0.7 -0.38,0.24 -0.77,0.47 -1.2,0.69 -0.44,0.22 -0.9,0.41 -1.37,0.57 -0.49,0.15 -0.99,0.27 -1.5,0.37 -0.52,0.08 -1.04,0.12 -1.57,0.12 H 86 c -0.26,0 -0.31,0 -0.41,0 L 84.89,68 C 84.38,67.9 83.88,67.78 83.39,67.63 82.91,67.45 82.45,67.24 82,67 81.57,66.78 81.17,66.54 80.8,66.31 80.21,65.92 79.66,65.48 79.14,65 L 78.51,64.42 78.26,64.17 C 76.98,63 75.05,62.93 73.69,64 c -0.99,0.76 -1.32,2.12 -0.78,3.25 l 0.15,0.3 c 0.13,0.29 0.28,0.57 0.44,0.84 1.03,1.72 2.43,3.19 4.09,4.32 0.79,0.55 1.63,1.02 2.51,1.4 0.98,0.43 2,0.77 3.05,1 0.55,0.1 1.06,0.2 1.73,0.26 0.31,0 0.67,0.06 0.83,0.06 h 0.78 c 1.12,-0.02 2.23,-0.13 3.33,-0.35 1.05,-0.23 2.07,-0.57 3.05,-1 0.88,-0.38 1.72,-0.85 2.51,-1.4 1.24,-0.84 2.34,-1.88 3.25,-3.07 l 0.48,-0.67 0.4,-0.63 c 0.15,-0.24 0.28,-0.5 0.39,-0.77 l 0.11,-0.25 c 0.6,-1.43 -0.08,-3.08 -1.51,-3.68 -0.1,-0.04 -0.2,-0.08 -0.3,-0.1 -1.29,-0.45 -2.73,-0.11 -3.69,0.86 z"
           id="path890" />
      </g>
    </g>
  </g>
  <g
     id="eyebrows-0"
     style="fill:#eb8f00;fill-opacity:1"
     transform="translate(-0.01884976,6.0386344)">
    <path
       style="fill:#eb8f00;fill-opacity:1"
       d="m 23.4,46.8 c -2.2,0.4 -2.3,3.6 0.1,3.7 5.3,0.07 10.42,-1.9 14.3,-5.5 1.48,-1.28 2.73,-2.8 3.7,-4.5 0.58,-0.83 0.38,-1.97 -0.45,-2.55 -0.83,-0.58 -1.97,-0.38 -2.55,0.45 l -0.1,0.1 c -3.92,4.38 -9.21,7.31 -15,8.3 z"
       id="path895" />
    <path
       style="fill:#eb8f00;fill-opacity:1"
       d="m 89.5,38.4 c -0.58,-0.83 -1.72,-1.03 -2.55,-0.45 -0.83,0.58 -1.03,1.72 -0.45,2.55 0.97,1.7 2.22,3.22 3.7,4.5 3.9,3.57 9.01,5.54 14.3,5.5 2.5,-0.1 2.3,-3.3 0.1,-3.7 -5.86,-0.96 -11.19,-3.93 -15.1,-8.4 v 0"
       id="path897" />
  </g>
</svg>
