<?xml version="1.0" encoding="UTF-8" standalone="no"?>
<svg
   enable-background="new 0 0 128 128"
   viewBox="0 0 128 128"
   version="1.1"
   id="svg45"
   sodipodi:docname="1f612.svg"
   inkscape:version="1.1.1 (3bf5ae0d25, 2021-09-20)"
   xmlns:inkscape="http://www.inkscape.org/namespaces/inkscape"
   xmlns:sodipodi="http://sodipodi.sourceforge.net/DTD/sodipodi-0.dtd"
   xmlns="http://www.w3.org/2000/svg"
   xmlns:svg="http://www.w3.org/2000/svg">
  <defs
     id="defs49" />
  <sodipodi:namedview
     id="namedview47"
     pagecolor="#ffffff"
     bordercolor="#666666"
     borderopacity="1.0"
     inkscape:pageshadow="2"
     inkscape:pageopacity="0.0"
     inkscape:pagecheckerboard="0"
     showgrid="false"
     inkscape:zoom="6.46875"
     inkscape:cx="64"
     inkscape:cy="64.077295"
     inkscape:window-width="1920"
     inkscape:window-height="991"
     inkscape:window-x="-9"
     inkscape:window-y="-9"
     inkscape:window-maximized="1"
     inkscape:current-layer="svg45" />
  <symbol
     viewBox="-64.5 -64.5 129 129"
     id="symbol20">
    <g
       fill="none"
       stroke="#4285F4"
       stroke-miterlimit="10"
       id="g18">
      <rect
         x="-64"
         y="-64"
         width="128"
         height="128"
         id="rect2" />
      <path
         d="M36.95,37.82C27.32,46.32,14.2,51,0,51 c-14.27,0-27.39-4.62-36.96-13.01C-47.45,28.79-53,15.65-53,0c0-15.58,5.55-28.69,16.04-37.92C-27.36-46.35-14.24-51,0-51 c14.17,0,27.29,4.71,36.95,13.25C47.45-28.45,53-15.4,53,0C53,15.47,47.45,28.55,36.95,37.82z"
         id="path4" />
      <path
         d="m0 55c-29.59 0-57-19.01-57-55 0-35.8 27.41-55 57-55s57 19.69 57 55c0 35.51-27.41 55-57 55z"
         id="path6" />
      <path
         d="M0-43c-12.29,0-23.54,3.94-31.68,11.09 C-40.39-24.25-45-13.21-45,0c0,29.7,22.6,43,45,43c21.67,0,45-13.46,45-43S21.67-43,0-43L0-43z"
         id="path8" />
      <line
         x1="-.01"
         x2="-.01"
         y1="51"
         y2="-51"
         id="line10" />
      <line
         x1="-16"
         x2="-16"
         y1="48.95"
         y2="-48.93"
         id="line12" />
      <line
         x1="15.99"
         x2="15.99"
         y1="48.91"
         y2="-48.93"
         id="line14" />
      <line
         x1="53"
         x2="-53"
         y1=".08"
         y2=".08"
         id="line16" />
    </g>
  </symbol>
  <linearGradient
     id="a"
     x1="64"
     x2="64"
     y1="19.717"
     y2="107.7"
     gradientUnits="userSpaceOnUse">
    <stop
       stop-color="#FEE133"
       offset=".5"
       id="stop22" />
    <stop
       stop-color="#FEDE32"
       offset=".6118"
       id="stop24" />
    <stop
       stop-color="#FCD32F"
       offset=".7076"
       id="stop26" />
    <stop
       stop-color="#FAC12B"
       offset=".7975"
       id="stop28" />
    <stop
       stop-color="#F7A924"
       offset=".8834"
       id="stop30" />
    <stop
       stop-color="#F6A323"
       offset=".9"
       id="stop32" />
  </linearGradient>
  <path
     d="M64,119.89C36.07,119.89,6,102.4,6,64S36.07,8.11,64,8.11c15.48,0,29.81,5.12,40.36,14.43 C115.9,32.72,122,47.06,122,64c0,16.86-6.1,31.17-17.64,41.39C93.78,114.74,79.45,119.89,64,119.89z"
     fill="url(#a)"
     id="path35" />
  <path
     d="m64 10.11c14.99 0 28.86 4.95 39.03 13.93 11.1 9.79 16.97 23.61 16.97 39.96 0 16.27-5.87 30.07-16.97 39.89-10.21 9.03-24.07 14-39.03 14-15.04 0-28.9-4.91-39.04-13.82-11.1-9.75-16.96-23.61-16.96-40.07 0-16.54 5.86-30.42 16.96-40.15 10.11-8.86 23.97-13.74 39.04-13.74m0-4c-31.15 0-60 20-60 57.89 0 37.68 28.85 57.89 60 57.89s60-20.73 60-57.89c0-37.37-28.85-57.89-60-57.89z"
     fill="#EB8F00"
     id="path37" />
  <path
     id="mouth"
     style="fill:#242424;fill-opacity:1"
     d="m 64.957295,80.172263 c -10.49,0 -18,6.29 -20.23,9.78 -0.85,1.13 -1.02,2.62 -0.46,3.91 0.43,0.82 1.28,1.33 2.2,1.31 0.340001,-0.01 0.68,-0.06 1,-0.16 5.28,-1.69 9.9,-4.14 17.49,-4.14 7.590001,0 12.21,2.45 17.49,4.14 0.32,0.11 0.66,0.16 1,0.16 0.92,0.02 1.77,-0.49 2.2,-1.31 0.56,-1.29 0.39,-2.78 -0.459999,-3.91 -2.260001,-3.49 -9.75,-9.78 -20.230001,-9.78 z" />
  <g
     id="peepers"
     style="fill:#242424;fill-opacity:1"
     transform="translate(1.0672955,-1.8277371)">
    <path
       style="fill:#242424;fill-opacity:1"
       d="M 48.16,55.81 C 42.11,54.23 35.72,54.47 29.8,56.5 c -1.06,0.41 -1.59,1.59 -1.18,2.65 0.38,0.99 1.44,1.52 2.46,1.24 2.37,-0.46 4.79,-0.59 7.2,-0.4 0,0.06 0,0.39 0,0.39 0,4.89 3.17,7.85 6.67,7.85 1.79,-0.02 3.5,-0.76 4.74,-2.06 2.08,-2.21 2.51,-5.51 1.05,-8.17 -0.55,-1.03 -1.47,-1.82 -2.58,-2.19 z"
       id="path2451" />
    <path
       style="fill:#242424;fill-opacity:1"
       d="m 96,55.81 c -6.05,-1.58 -12.44,-1.34 -18.36,0.69 -1.07,0.38 -1.64,1.55 -1.26,2.62 0.38,1.07 1.55,1.64 2.62,1.26 v 0 c 2.37,-0.46 4.79,-0.59 7.19,-0.4 0,0.06 0,0.39 0,0.39 0,4.89 3.18,7.85 6.67,7.85 1.8,-0.02 3.51,-0.76 4.75,-2.06 2.05,-2.21 2.45,-5.49 1,-8.13 C 98.06,56.99 97.12,56.19 96,55.81 Z"
       id="path2453" />
  </g>
  <g
     id="eyebrows"
     style="fill:#eb8f00;fill-opacity:1"
     transform="translate(1.0672955,-1.8277371)">
    <path
       style="fill:#eb8f00;fill-opacity:1"
       d="m 87.68,44 c -1.01,0.02 -1.84,-0.79 -1.86,-1.8 -0.02,-1.01 0.79,-1.84 1.8,-1.86 1.94,-0.21 3.91,-0.09 5.81,0.35 5.18,1.05 9.78,4.02 12.86,8.31 1.38,2.08 -1.32,3.8 -2.94,2.25 C 99.12,47.09 93.59,44.53 87.68,44 v 0"
       id="path2456" />
    <path
       style="fill:#eb8f00;fill-opacity:1"
       d="m 37.88,44 c 1.01,0.02 1.84,-0.79 1.86,-1.8 0.02,-1.01 -0.79,-1.84 -1.8,-1.86 -1.94,-0.21 -3.91,-0.09 -5.81,0.35 -5.18,1.05 -9.78,4.02 -12.86,8.31 -1.39,2.08 1.32,3.8 2.94,2.25 4.23,-4.16 9.76,-6.72 15.67,-7.25 v 0"
       id="path2458" />
  </g>
</svg>
