<?xml version="1.0" encoding="UTF-8" standalone="no"?>
<svg
   enable-background="new 0 0 128 128"
   viewBox="0 0 128 128"
   version="1.1"
   id="svg45"
   sodipodi:docname="1f615.svg"
   inkscape:version="1.1.1 (3bf5ae0d25, 2021-09-20)"
   xmlns:inkscape="http://www.inkscape.org/namespaces/inkscape"
   xmlns:sodipodi="http://sodipodi.sourceforge.net/DTD/sodipodi-0.dtd"
   xmlns="http://www.w3.org/2000/svg"
   xmlns:svg="http://www.w3.org/2000/svg">
  <defs
     id="defs49">
    <linearGradient
       id="e"
       x1="64"
       x2="64"
       y1="19.716999"
       y2="107.7"
       gradientUnits="userSpaceOnUse"
       gradientTransform="translate(0.30917868,-0.4541064)">
      <stop
         stop-color="#FEE133"
         offset=".5"
         id="stop1546" />
      <stop
         stop-color="#FEDE32"
         offset=".6118"
         id="stop1548" />
      <stop
         stop-color="#FCD32F"
         offset=".7076"
         id="stop1550" />
      <stop
         stop-color="#FAC12B"
         offset=".7975"
         id="stop1552" />
      <stop
         stop-color="#F7A924"
         offset=".8834"
         id="stop1554" />
      <stop
         stop-color="#F6A323"
         offset=".9"
         id="stop1556" />
    </linearGradient>
  </defs>
  <sodipodi:namedview
     id="namedview47"
     pagecolor="#ffffff"
     bordercolor="#666666"
     borderopacity="1.0"
     inkscape:pageshadow="2"
     inkscape:pageopacity="0.0"
     inkscape:pagecheckerboard="0"
     showgrid="false"
     inkscape:zoom="1.6171875"
     inkscape:cx="-3.0917874"
     inkscape:cy="87.497584"
     inkscape:window-width="1920"
     inkscape:window-height="991"
     inkscape:window-x="-9"
     inkscape:window-y="-9"
     inkscape:window-maximized="1"
     inkscape:current-layer="svg45" />
  <path
     d="m 64.309179,119.43589 c -27.93,0 -58.0000003,-17.49 -58.0000003,-55.889996 0,-38.4 30.0700003,-55.8900005 58.0000003,-55.8900005 15.48,0 29.81,5.1200005 40.360001,14.4300005 11.54,10.18 17.64,24.52 17.64,41.46 0,16.86 -6.1,31.17 -17.64,41.389996 -10.580001,9.35 -24.910001,14.5 -40.360001,14.5 z"
     fill="url(#e)"
     id="path1559"
     style="fill:url(#e);stroke:#eb8f00;stroke-width:4;stroke-miterlimit:4;stroke-dasharray:none;stroke-opacity:1" />
  <symbol
     viewBox="-64.5 -64.5 129 129"
     id="symbol20">
    <g
       fill="none"
       stroke="#4285F4"
       stroke-miterlimit="10"
       id="g18">
      <rect
         x="-64"
         y="-64"
         width="128"
         height="128"
         id="rect2" />
      <path
         d="M36.95,37.82C27.32,46.32,14.2,51,0,51 c-14.27,0-27.39-4.62-36.96-13.01C-47.45,28.79-53,15.65-53,0c0-15.58,5.55-28.69,16.04-37.92C-27.36-46.35-14.24-51,0-51 c14.17,0,27.29,4.71,36.95,13.25C47.45-28.45,53-15.4,53,0C53,15.47,47.45,28.55,36.95,37.82z"
         id="path4" />
      <path
         d="m0 55c-29.59 0-57-19.01-57-55 0-35.8 27.41-55 57-55s57 19.69 57 55c0 35.51-27.41 55-57 55z"
         id="path6" />
      <path
         d="M0-43c-12.29,0-23.54,3.94-31.68,11.09 C-40.39-24.25-45-13.21-45,0c0,29.7,22.6,43,45,43c21.67,0,45-13.46,45-43S21.67-43,0-43L0-43z"
         id="path8" />
      <line
         x1="-.01"
         x2="-.01"
         y1="51"
         y2="-51"
         id="line10" />
      <line
         x1="-16"
         x2="-16"
         y1="48.95"
         y2="-48.93"
         id="line12" />
      <line
         x1="15.99"
         x2="15.99"
         y1="48.91"
         y2="-48.93"
         id="line14" />
      <line
         x1="53"
         x2="-53"
         y1=".08"
         y2=".08"
         id="line16" />
    </g>
  </symbol>
  <linearGradient
     id="a"
     x1="64"
     x2="64"
     y1="19.717"
     y2="107.7"
     gradientUnits="userSpaceOnUse">
    <stop
       stop-color="#FEE133"
       offset=".5"
       id="stop22" />
    <stop
       stop-color="#FEDE32"
       offset=".6118"
       id="stop24" />
    <stop
       stop-color="#FCD32F"
       offset=".7076"
       id="stop26" />
    <stop
       stop-color="#FAC12B"
       offset=".7975"
       id="stop28" />
    <stop
       stop-color="#F7A924"
       offset=".8834"
       id="stop30" />
    <stop
       stop-color="#F6A323"
       offset=".9"
       id="stop32" />
  </linearGradient>
  <g
     id="facial_expressions"
     transform="translate(0.23450475,2.2723047)"
     style="fill:#242424;fill-opacity:1">
    <path
       style="fill:#242424;fill-opacity:1"
       d="m 44,40.94 v 0 c -4.19,0 -8,3.54 -8,9.42 0,5.88 3.81,9.41 8,9.41 v 0 c 4.2,0 8,-3.54 8,-9.41 0,-5.87 -3.76,-9.42 -8,-9.42 z"
       id="path4309" />
    <g
       id="peepers"
       style="fill:#242424;fill-opacity:1">
      <path
         style="fill:#242424;fill-opacity:1"
         d="m 43.65,44.87 v 0 c -1.42,-0.68 -3.13,-0.08 -3.82,1.34 -0.53,1.11 -0.29,2.44 0.6,3.3 v 0 c 1.42,0.68 3.13,0.08 3.82,-1.34 0.53,-1.11 0.29,-2.44 -0.6,-3.3 z"
         id="path4311" />
    </g>
    <path
       style="fill:#242424;fill-opacity:1"
       d="m 82.4,40.94 v 0 c -4.19,0 -8,3.54 -8,9.42 0,5.88 3.81,9.41 8,9.41 v 0 c 4.19,0 8,-3.54 8,-9.41 0,-5.87 -3.81,-9.42 -8,-9.42 z"
       id="path4314" />
    <g
       id="peepers-2"
       style="fill:#242424;fill-opacity:1">
      <path
         style="fill:#242424;fill-opacity:1"
         d="m 82,44.87 v 0 c -1.42,-0.68 -3.13,-0.08 -3.82,1.34 -0.53,1.11 -0.29,2.44 0.6,3.3 v 0 c 1.42,0.68 3.13,0.08 3.82,-1.34 0.53,-1.11 0.29,-2.44 -0.6,-3.3 z"
         id="path4316" />
    </g>
    <path
       id="mouth"
       style="fill:#242424;fill-opacity:1"
       d="m 40,91.94 c 7.07,-5.28 15.3,-8.8 24,-10.27 8.65,-1.63 17.56,-1.17 26,1.33 1.41,0.43 2.51,-1.25 1.36,-2.09 -7.53,-5.48 -17.89,-8 -28.65,-6.06 C 51.95,76.79 43.13,82.7 38,90.46 c -0.81,1.18 0.8,2.38 2,1.48 z" />
  </g>
</svg>
