<?xml version="1.0" encoding="UTF-8" standalone="no"?>
<svg
   enable-background="new 0 0 128 128"
   viewBox="0 0 128 128"
   version="1.1"
   id="svg45"
   sodipodi:docname="1f618.svg"
   inkscape:version="1.1.1 (3bf5ae0d25, 2021-09-20)"
   xmlns:inkscape="http://www.inkscape.org/namespaces/inkscape"
   xmlns:sodipodi="http://sodipodi.sourceforge.net/DTD/sodipodi-0.dtd"
   xmlns="http://www.w3.org/2000/svg"
   xmlns:svg="http://www.w3.org/2000/svg">
  <defs
     id="defs49">
    <linearGradient
       id="e"
       x1="64"
       x2="64"
       y1="19.716999"
       y2="107.7"
       gradientUnits="userSpaceOnUse"
       gradientTransform="translate(0.6234646)">
      <stop
         stop-color="#FEE133"
         offset=".5"
         id="stop1546" />
      <stop
         stop-color="#FEDE32"
         offset=".6118"
         id="stop1548" />
      <stop
         stop-color="#FCD32F"
         offset=".7076"
         id="stop1550" />
      <stop
         stop-color="#FAC12B"
         offset=".7975"
         id="stop1552" />
      <stop
         stop-color="#F7A924"
         offset=".8834"
         id="stop1554" />
      <stop
         stop-color="#F6A323"
         offset=".9"
         id="stop1556" />
    </linearGradient>
  </defs>
  <sodipodi:namedview
     id="namedview47"
     pagecolor="#ffffff"
     bordercolor="#666666"
     borderopacity="1.0"
     inkscape:pageshadow="2"
     inkscape:pageopacity="0.0"
     inkscape:pagecheckerboard="0"
     showgrid="false"
     inkscape:zoom="4.574097"
     inkscape:cx="117.61884"
     inkscape:cy="85.809287"
     inkscape:window-width="1920"
     inkscape:window-height="991"
     inkscape:window-x="-9"
     inkscape:window-y="-9"
     inkscape:window-maximized="1"
     inkscape:current-layer="svg45" />
  <symbol
     viewBox="-64.5 -64.5 129 129"
     id="symbol20">
    <g
       fill="none"
       stroke="#4285F4"
       stroke-miterlimit="10"
       id="g18">
      <rect
         x="-64"
         y="-64"
         width="128"
         height="128"
         id="rect2" />
      <path
         d="M36.95,37.82C27.32,46.32,14.2,51,0,51 c-14.27,0-27.39-4.62-36.96-13.01C-47.45,28.79-53,15.65-53,0c0-15.58,5.55-28.69,16.04-37.92C-27.36-46.35-14.24-51,0-51 c14.17,0,27.29,4.71,36.95,13.25C47.45-28.45,53-15.4,53,0C53,15.47,47.45,28.55,36.95,37.82z"
         id="path4" />
      <path
         d="m0 55c-29.59 0-57-19.01-57-55 0-35.8 27.41-55 57-55s57 19.69 57 55c0 35.51-27.41 55-57 55z"
         id="path6" />
      <path
         d="M0-43c-12.29,0-23.54,3.94-31.68,11.09 C-40.39-24.25-45-13.21-45,0c0,29.7,22.6,43,45,43c21.67,0,45-13.46,45-43S21.67-43,0-43L0-43z"
         id="path8" />
      <line
         x1="-.01"
         x2="-.01"
         y1="51"
         y2="-51"
         id="line10" />
      <line
         x1="-16"
         x2="-16"
         y1="48.95"
         y2="-48.93"
         id="line12" />
      <line
         x1="15.99"
         x2="15.99"
         y1="48.91"
         y2="-48.93"
         id="line14" />
      <line
         x1="53"
         x2="-53"
         y1=".08"
         y2=".08"
         id="line16" />
    </g>
  </symbol>
  <linearGradient
     id="a"
     x1="64"
     x2="64"
     y1="19.717"
     y2="107.7"
     gradientUnits="userSpaceOnUse">
    <stop
       stop-color="#FEE133"
       offset=".5"
       id="stop22" />
    <stop
       stop-color="#FEDE32"
       offset=".6118"
       id="stop24" />
    <stop
       stop-color="#FCD32F"
       offset=".7076"
       id="stop26" />
    <stop
       stop-color="#FAC12B"
       offset=".7975"
       id="stop28" />
    <stop
       stop-color="#F7A924"
       offset=".8834"
       id="stop30" />
    <stop
       stop-color="#F6A323"
       offset=".9"
       id="stop32" />
  </linearGradient>
  <path
     d="m 64.623468,119.89 c -27.930004,0 -58.0000037,-17.49 -58.0000037,-55.889996 0,-38.4 30.0699997,-55.89 58.0000037,-55.89 15.48,0 29.81,5.12 40.360002,14.43 11.54,10.18 17.64,24.52 17.64,41.46 0,16.86 -6.1,31.17 -17.64,41.389996 -10.580002,9.35 -24.910002,14.5 -40.360002,14.5 z"
     fill="url(#e)"
     id="path1559"
     style="fill:url(#e);stroke:#eb8f00;stroke-width:4;stroke-miterlimit:4;stroke-dasharray:none;stroke-opacity:1" />
  <path
     style="fill:#cc1775;fill-opacity:1;stroke:#b3005c;stroke-width:4;stroke-miterlimit:4;stroke-dasharray:none;stroke-opacity:1"
     d="m 119.46799,86.097434 c -1.11,-5.52 -6.49,-9.099996 -12.02,-7.979996 -0.82,0.17 -1.62,0.43 -2.37,0.79 0.35,-5.61 -3.91,-10.45 -9.519996,-10.8 -3.57,-0.22 -6.99,1.44 -9.02,4.38 -3.65,5.46 -2.68,13.239996 -1,19.359996 1,3.61 -0.23,7.48 -3.13,9.849996 v 0 c 20.279996,3.89 30.229996,0.1 35.549996,-7.999996 1.5,-2.23 2.04,-4.97 1.51,-7.6 z"
     id="path12" />
  <path
     style="fill:#242424;fill-opacity:1"
     d="m 96.507994,59.447438 -0.19,-0.27 c -0.18,-0.26 -0.38,-0.51 -0.59,-0.75 -0.71,-0.82 -1.53,-1.55 -2.42,-2.17 -1.2,-0.84 -2.5,-1.53 -3.87,-2.05 -0.75,-0.29 -1.52,-0.54 -2.3,-0.73 -0.39,-0.1 -0.82,-0.2 -1.25,-0.28 l -0.6,-0.11 c 0.19,-0.11 0.38,-0.22 0.58,-0.32 l 1.75,-0.92 c 1.14,-0.58 2.2,-1.08 3.1,-1.49 0.9,-0.41 1.64,-0.69 2.14,-0.88 l 0.76,-0.28 0.22,-0.08 c 1.43,-0.52 2.17,-2.11 1.64,-3.54 -0.39,-1.05 -1.37,-1.77 -2.49,-1.81 -0.42,-0.02 -0.83,-0.02 -1.25,0 -1.01,0.09 -2.02,0.26 -3,0.51 -1.34,0.33 -2.65,0.77 -3.93,1.3 -0.68,0.29 -1.4,0.58 -2.09,0.93 -0.69,0.35 -1.44,0.74 -2.06,1.08 -0.62,0.34 -1.37,0.81 -2,1.24 -0.63,0.43 -1.28,0.88 -1.88,1.32 -1.11,0.82 -2.15,1.73 -3.13,2.7 -0.73,0.72 -1.4,1.5 -2,2.34 -0.21,0.26 -0.41,0.54 -0.57,0.83 l -0.14,0.23 c -0.37,0.65 -0.46,1.42 -0.25,2.14 0.03,0.24 0.09,0.47 0.17,0.69 0.57,1.41 2.18,2.1 3.6,1.53 l 0.25,-0.1 0.29,-0.12 0.24,-0.05 0.8,-0.2 c 0.32,-0.08 0.71,-0.14 1.13,-0.21 0.99,-0.14 2,-0.22 3,-0.22 1.19,0 2.37,0.09 3.55,0.25 0.2,0 0.73,0.1 0.94,0.15 l 0.84,0.17 c 0.59,0.13 1.16,0.25 1.69,0.42 0.96,0.26 1.91,0.6 2.82,1 0.61,0.27 1.19,0.59 1.76,0.94 0.4,0.24 0.6,0.38 0.6,0.38 l 0.28,0.21 c 1.21,0.9 2.92,0.64 3.82,-0.57 0.71,-0.96 0.72,-2.26 0.02,-3.22 z"
     id="path20" />
  <path
     style="fill:#242424;fill-opacity:1"
     d="m 71.937994,88.947434 c 1.71,-1.51 2.78,-3.6 3,-5.87 0.19,-3.599996 -0.73,-4.839996 -1.91,-6.409996 -2.71,-3.65 -10.4,-2.78 -10.4,-2.78 -2,0.08 -4.44,1.06 -4.15,3.44 0.39,1.35 1.49,2.379996 2.87,2.689996 3,0.73 7.37,0 7.49,3.09 0.14,3.46 -5.18,2 -5.6,5.7 -0.42,3.7 5.6,3.19 5.6,5.71 0,1.93 -2,2.26 -4.07,2.7 -1.79,0.37 -5.23,0.93 -5.51,2.999996 -0.28,2.07 0.91,4.57 5.75,3.84 7.61,-1.15 10.17,-5.319996 10.17,-7.879996 0.05,-2.77 -1.14,-5.42 -3.24,-7.23 z"
     id="path22" />
  <g
     id="eyes"
     transform="translate(-0.9220003,4.0174383)"
     style="fill:#eb8f00;fill-opacity:1;stroke:none;stroke-opacity:1">
    <g
       id="eyebrows"
       style="fill:#eb8f00;fill-opacity:1;stroke:none;stroke-opacity:1">
      <path
         style="fill:#eb8f00;fill-opacity:1;stroke:none;stroke-opacity:1"
         d="m 43.4,31.06 v 0 c 2.21,-0.67 1.89,-3.89 -0.6,-3.64 -1.94,0.23 -3.83,0.76 -5.6,1.58 -4.84,2.16 -8.66,6.1 -10.68,11 -0.9,2.3 2.14,3.45 3.33,1.57 3.21,-4.92 7.98,-8.63 13.55,-10.51 z"
         id="path24" />
    </g>
  </g>
  <path
     style="fill:#242424;fill-opacity:1"
     d="m 42.747994,44.957438 v 0 c -4.19,0 -8,3.54 -8,9.42 0,5.88 3.81,9.41 8,9.41 v 0 c 4.19,0 8,-3.54 8,-9.41 0,-5.87 -3.81,-9.42 -8,-9.42 z"
     id="path28" />
</svg>
