<?xml version="1.0" encoding="UTF-8" standalone="no"?>
<svg
   enable-background="new 0 0 128 128"
   viewBox="0 0 128 128"
   version="1.1"
   id="svg3267"
   sodipodi:docname="1f61b.svg"
   inkscape:version="1.1.1 (3bf5ae0d25, 2021-09-20)"
   xmlns:inkscape="http://www.inkscape.org/namespaces/inkscape"
   xmlns:sodipodi="http://sodipodi.sourceforge.net/DTD/sodipodi-0.dtd"
   xmlns="http://www.w3.org/2000/svg"
   xmlns:svg="http://www.w3.org/2000/svg">
  <sodipodi:namedview
     id="namedview3269"
     pagecolor="#ffffff"
     bordercolor="#666666"
     borderopacity="1.0"
     inkscape:pageshadow="2"
     inkscape:pageopacity="0.0"
     inkscape:pagecheckerboard="0"
     showgrid="false"
     inkscape:zoom="3.1328125"
     inkscape:cx="79.162095"
     inkscape:cy="113.15711"
     inkscape:window-width="1920"
     inkscape:window-height="991"
     inkscape:window-x="-9"
     inkscape:window-y="-9"
     inkscape:window-maximized="1"
     inkscape:current-layer="svg3267" />
  <symbol
     viewBox="-64.5 -64.5 129 129"
     id="symbol3212">
    <g
       fill="none"
       stroke="#4285F4"
       stroke-miterlimit="10"
       id="g3210">
      <rect
         x="-64"
         y="-64"
         width="128"
         height="128"
         id="rect3194" />
      <path
         d="M36.95,37.82C27.32,46.32,14.2,51,0,51 c-14.27,0-27.39-4.62-36.96-13.01C-47.45,28.79-53,15.65-53,0c0-15.58,5.55-28.69,16.04-37.92C-27.36-46.35-14.24-51,0-51 c14.17,0,27.29,4.71,36.95,13.25C47.45-28.45,53-15.4,53,0C53,15.47,47.45,28.55,36.95,37.82z"
         id="path3196" />
      <path
         d="m0 55c-29.59 0-57-19.01-57-55 0-35.8 27.41-55 57-55s57 19.69 57 55c0 35.51-27.41 55-57 55z"
         id="path3198" />
      <path
         d="M0-43c-12.29,0-23.54,3.94-31.68,11.09 C-40.39-24.25-45-13.21-45,0c0,29.7,22.6,43,45,43c21.67,0,45-13.46,45-43S21.67-43,0-43L0-43z"
         id="path3200" />
      <line
         x1="-.01"
         x2="-.01"
         y1="51"
         y2="-51"
         id="line3202" />
      <line
         x1="-16"
         x2="-16"
         y1="48.95"
         y2="-48.93"
         id="line3204" />
      <line
         x1="15.99"
         x2="15.99"
         y1="48.91"
         y2="-48.93"
         id="line3206" />
      <line
         x1="53"
         x2="-53"
         y1=".08"
         y2=".08"
         id="line3208" />
    </g>
  </symbol>
  <linearGradient
     id="e"
     x1="64"
     x2="64"
     y1="19.096"
     y2="107.08"
     gradientUnits="userSpaceOnUse">
    <stop
       stop-color="#FEE133"
       offset=".5"
       id="stop3214" />
    <stop
       stop-color="#FEDE32"
       offset=".6118"
       id="stop3216" />
    <stop
       stop-color="#FCD32F"
       offset=".7076"
       id="stop3218" />
    <stop
       stop-color="#FAC12B"
       offset=".7975"
       id="stop3220" />
    <stop
       stop-color="#F7A924"
       offset=".8834"
       id="stop3222" />
    <stop
       stop-color="#F6A323"
       offset=".9"
       id="stop3224" />
  </linearGradient>
  <defs
     id="defs3232">
    <path
       id="d"
       d="m62.66 80.43c-12.72 0-24.54-1.07-34.4-2.89-2.45-0.45-4.61 1.7-4.11 4.13 3.28 16.04 19.07 29.21 38.5 29.21 21.27 0 35.58-13.6 38.55-29.27 0.46-2.42-1.7-4.53-4.12-4.08-9.86 1.83-21.69 2.9-34.42 2.9z" />
  </defs>
  <defs
     id="defs3248">
    <path
       id="c"
       d="m28.26 82.35v44.16h68.05v-44.16c-10.12 1.76-21.72 2.69-33.66 2.69-11.92 0-23.5-0.92-33.62-2.68" />
  </defs>
  <path
     d="m 64,119.28 c -27.94,0 -58,-17.49 -58,-55.9 0,-38.4 30.07,-55.9 58,-55.9 15.48,0 29.81,5.13 40.36,14.43 C 115.9,32.1 122,46.44 122,63.38 c 0,16.86 -6.1,31.18 -17.64,41.39 -10.57,9.35 -24.91,14.51 -40.36,14.51 z"
     fill="url(#e)"
     id="path3227"
     style="fill:url(#e);stroke:#eb8f00;stroke-opacity:1;stroke-width:4;stroke-miterlimit:4;stroke-dasharray:none" />
  <path
     d="m 62.66,80.43 c -12.72,0 -24.54,-1.07 -34.4,-2.89 -2.45,-0.45 -4.61,1.7 -4.11,4.13 3.28,16.04 19.07,29.21 38.5,29.21 21.27,0 35.58,-13.6 38.55,-29.27 0.46,-2.42 -1.7,-4.53 -4.12,-4.08 -9.86,1.83 -21.69,2.9 -34.42,2.9 z"
     clip-path="none"
     fill="#242424"
     id="path3237" />
  <path
     d="m 62.66,80.43 c -12.72,0 -24.54,-1.07 -34.4,-2.89 -2.45,-0.45 -4.61,1.7 -4.11,4.13 3.28,16.04 19.07,29.21 38.5,29.21 21.27,0 35.58,-13.6 38.55,-29.27 0.46,-2.42 -1.7,-4.53 -4.12,-4.08 -9.86,1.83 -21.69,2.9 -34.42,2.9 z"
     fill="none"
     id="path3243" />
  <path
     d="m 62.66,80.43 c -12.72,0 -24.54,-1.07 -34.4,-2.89 -2.45,-0.45 -4.61,1.7 -4.11,4.13 3.28,16.04 19.07,29.21 38.5,29.21 21.27,0 35.58,-13.6 38.55,-29.27 0.46,-2.42 -1.7,-4.53 -4.12,-4.08 -9.86,1.83 -21.69,2.9 -34.42,2.9 z"
     fill="none"
     id="path3245" />
  <path
     d="m 65.03,126.16 h -3.28 c -9.51,0 -17.21,-7.71 -17.21,-17.21 L 45.018803,80.554065 82.24,81.032868 82.25,108.94 c -0.01,9.51 -7.71,17.22 -17.22,17.22 z"
     clip-path="none"
     fill="#e04c74"
     id="path3253"
     sodipodi:nodetypes="ssscccs" />
  <path
     d="m 78.24,74.18 v 34.76 c 0,7.29 -5.93,13.21 -13.21,13.21 h -3.28 c -7.29,0 -13.21,-5.93 -13.21,-13.21 V 84.713666 L 78.559202,84.554065 M 82.24,81.032868 45.018803,80.554065 44.54,108.94 c -0.160388,9.50865 7.71,17.21 17.21,17.21 h 3.28 c 9.51,0 17.21,-7.71 17.21,-17.21 z"
     fill="#ab3f2e"
     id="path3255"
     style="opacity:0.3;mix-blend-mode:multiply"
     sodipodi:nodetypes="cssssccccssssc" />
  <line
     x1="63.389999"
     x2="63.389999"
     y1="82.429771"
     y2="104.32"
     clip-path="none"
     fill="none"
     opacity="0.3"
     stroke="#ab3f2e"
     stroke-linecap="round"
     stroke-miterlimit="10"
     stroke-width="3.20297"
     id="line3259"
     style="mix-blend-mode:multiply" />
  <path
     style="fill:#242424;fill-opacity:1"
     d="m 43.68279,46.126148 v 0 c -4.19,0 -8,3.54 -8,9.42 0,5.88 3.81,9.409999 8,9.409999 v 0 c 4.2,0 8,-3.539999 8,-9.409999 0,-5.87 -3.76,-9.42 -8,-9.42 z"
     id="path28716" />
  <path
     style="fill:#242424;fill-opacity:1"
     d="m 82.08279,46.126148 v 0 c -4.19,0 -8,3.54 -8,9.42 0,5.88 3.81,9.409999 8,9.409999 v 0 c 4.19,0 8,-3.539999 8,-9.409999 0,-5.87 -3.81,-9.42 -8,-9.42 z"
     id="path28721" />
  <path
     d="m 62.500399,80.269617 c -12.72,0 -24.54,-0.176744 -34.4,-0.477374 -2.45,-0.07433 -4.61,0.280808 -4.11,0.682198 3.28,2.6495 19.07,4.824931 38.5,4.824931 21.27,0 35.58,-2.24646 38.550001,-4.834842 0.46,-0.399738 -1.700001,-0.748269 -4.120001,-0.673939 -9.86,0.302282 -21.69,0.479026 -34.42,0.479026 z"
     clip-path="none"
     fill="#242424"
     id="path3237-0"
     style="stroke-width:0.406424" />
</svg>
