<?xml version="1.0" encoding="UTF-8" standalone="no"?>
<svg
   enable-background="new 0 0 128 128"
   viewBox="0 0 128 128"
   version="1.1"
   id="svg25"
   sodipodi:docname="1f62b.svg"
   inkscape:version="1.1.1 (3bf5ae0d25, 2021-09-20)"
   xmlns:inkscape="http://www.inkscape.org/namespaces/inkscape"
   xmlns:sodipodi="http://sodipodi.sourceforge.net/DTD/sodipodi-0.dtd"
   xmlns="http://www.w3.org/2000/svg"
   xmlns:svg="http://www.w3.org/2000/svg">
  <defs
     id="defs29">
    <linearGradient
       id="effect_1_"
       gradientUnits="userSpaceOnUse"
       x1="63.599998"
       y1="1752.8"
       x2="63.599998"
       y2="1641"
       gradientTransform="translate(0.4,-1632.91)">
      <stop
         offset="0.39"
         style="stop-color:#40C0E7;stop-opacity:0"
         id="stop5244" />
      <stop
         offset="1"
         style="stop-color:#5F7AFF"
         id="stop5246" />
    </linearGradient>
    <linearGradient
       id="linearGradient5514"
       x1="64"
       x2="64"
       y1="110.28"
       y2="22.299999"
       gradientTransform="matrix(1,0,0,-1,0,130)"
       gradientUnits="userSpaceOnUse">
      <stop
         stop-color="#FEE133"
         offset=".5"
         id="stop2-7" />
      <stop
         stop-color="#FEDE32"
         offset=".6118"
         id="stop4-9" />
      <stop
         stop-color="#FCD32F"
         offset=".7076"
         id="stop6-7" />
      <stop
         stop-color="#FAC12B"
         offset=".7975"
         id="stop8-1" />
      <stop
         stop-color="#F7A924"
         offset=".8834"
         id="stop10-9" />
      <stop
         stop-color="#F6A323"
         offset=".9"
         id="stop12-6" />
    </linearGradient>
  </defs>
  <sodipodi:namedview
     id="namedview27"
     pagecolor="#ffffff"
     bordercolor="#666666"
     borderopacity="1.0"
     inkscape:pageshadow="2"
     inkscape:pageopacity="0.0"
     inkscape:pagecheckerboard="0"
     showgrid="false"
     inkscape:zoom="4.4304659"
     inkscape:cx="-1.1285495"
     inkscape:cy="90.171104"
     inkscape:window-width="1920"
     inkscape:window-height="991"
     inkscape:window-x="-9"
     inkscape:window-y="-9"
     inkscape:window-maximized="1"
     inkscape:current-layer="svg25" />
  <linearGradient
     id="a"
     x1="64"
     x2="64"
     y1="110.28"
     y2="22.3"
     gradientTransform="matrix(1,0,0,-1,-9.9999998e-7,130)"
     gradientUnits="userSpaceOnUse">
    <stop
       stop-color="#FEE133"
       offset=".5"
       id="stop2" />
    <stop
       stop-color="#FEDE32"
       offset=".6118"
       id="stop4" />
    <stop
       stop-color="#FCD32F"
       offset=".7076"
       id="stop6" />
    <stop
       stop-color="#FAC12B"
       offset=".7975"
       id="stop8" />
    <stop
       stop-color="#F7A924"
       offset=".8834"
       id="stop10" />
    <stop
       stop-color="#F6A323"
       offset=".9"
       id="stop12" />
  </linearGradient>
  <path
     d="M 64,119.89 C 36.07,119.89 5.999999,102.4 5.999999,63.999997 5.999999,25.599997 36.07,8.1099973 64,8.1099973 c 15.48,0 29.81,5.1199997 40.36,14.4299997 11.54,10.18 17.64,24.52 17.64,41.46 0,16.86 -6.1,31.17 -17.64,41.390003 -10.58,9.35 -24.91,14.5 -40.36,14.5 z"
     fill="url(#a)"
     id="path15"
     style="fill:url(#a);stroke:#eb8f00;stroke-width:4;stroke-miterlimit:4;stroke-dasharray:none;stroke-opacity:1" />
  <path
     id="path9786"
     style="fill:#242424;stroke:#eb8f00;stroke-width:4;stroke-miterlimit:4;stroke-dasharray:none;stroke-opacity:1;fill-opacity:1"
     d="m 63.875,70.515625 c -9.88,0 -20.298359,2.47 -26.068359,12 -1.607487,2.081011 -0.876943,1.381392 0,0 -2.93,4.77 -4.49125,10.249609 -4.53125,15.849609 -0.05,3.519996 2.76125,6.410936 6.28125,6.460936 1.01,0.01 2.019921,-0.21015 2.919921,-0.66015 6.710001,-3.14 13.998438,-4.840004 21.398438,-5.000004 7.41,0.14 14.700391,1.850004 21.400391,5.000004 3.15,1.56 6.971015,0.27914 8.541015,-2.88086 0.45,-0.91 0.680157,-1.909926 0.660156,-2.919926 -0.06,-5.69 -1.751328,-11.24 -4.861328,-16 -0.01364,-0.0041 -0.02738,-0.0076 -0.04102,-0.01172 C 83.527368,72.906378 72.944689,70.515625 63.875,70.515625 Z"
     sodipodi:nodetypes="scccccccccccs" />
  <path
     style="fill:#ffffff"
     d="m 89.616641,82.415625 c -6.04,-9.5 -16.65,-11.9 -25.74,-11.9 -9.88,0 -20.3,2.47 -26.07,12 8.45,-2.55 17.24,-3.8 26.07,-3.7 8.71,-0.11 17.39,1.1 25.74,3.6 z"
     id="path9788-3" />
  <path
     id="path9786-5"
     style="fill:none;stroke:#eb8f00;stroke-width:4;stroke-miterlimit:4;stroke-dasharray:none;stroke-opacity:1"
     d="m 63.875,70.515625 c -9.88,0 -20.298359,2.47 -26.068359,12 -1.607487,2.081011 -0.876943,1.381392 0,0 -2.93,4.77 -4.49125,10.249609 -4.53125,15.849611 -0.05,3.519994 2.76125,6.410934 6.28125,6.460934 1.01,0.01 2.019921,-0.21015 2.919921,-0.66015 6.710001,-3.14 13.998438,-4.840004 21.398438,-5.000004 7.41,0.14 14.700391,1.850004 21.400391,5.000004 3.15,1.56 6.97101,0.27914 8.54101,-2.88086 0.45,-0.91 0.68016,-1.909924 0.66016,-2.919924 -0.06,-5.690002 -1.75133,-11.240002 -4.86133,-16.000002 -0.0136,-0.0041 -0.0274,-0.0076 -0.041,-0.01172 C 83.527368,72.906378 72.944689,70.515625 63.875,70.515625 Z"
     sodipodi:nodetypes="scccccccccccs" />
  <g
     id="eyebrows"
     transform="translate(-0.5488838,1.0719495)"
     style="fill-opacity:1;fill:#eb8f00">
    <path
       style="fill:#eb8f00;fill-opacity:1"
       d="m 33.73,30.91 c -2.2,0.4 -2.3,3.6 0.1,3.7 5.3,0.07 10.42,-1.9 14.3,-5.5 1.48,-1.28 2.73,-2.8 3.7,-4.5 0.58,-0.83 0.38,-1.97 -0.45,-2.55 -0.83,-0.58 -1.97,-0.38 -2.55,0.45 l -0.1,0.1 c -3.92,4.38 -9.21,7.31 -15,8.3 z"
       id="path24598" />
    <path
       style="fill:#eb8f00;fill-opacity:1"
       d="m 78.44,22.51 c -0.58,-0.83 -1.72,-1.03 -2.55,-0.45 -0.83,0.58 -1.03,1.72 -0.45,2.55 0.97,1.7 2.22,3.22 3.7,4.5 3.9,3.57 9.01,5.54 14.3,5.5 2.5,-0.1 2.3,-3.3 0.1,-3.7 -5.86,-0.96 -11.19,-3.93 -15.1,-8.4 v 0"
       id="path24600" />
  </g>
  <path
     style="fill:#242424;fill-opacity:1"
     d="m 33.921116,42.291949 c 0,0 13.05,1.36 22.07,10.86 0.99,1.01 0.97,2.63 -0.05,3.62 -0.41,0.4 -0.93,0.65 -1.49,0.71 -3.49,0.32 -8.71,2.11 -16,7.64 0,0 -3.94,3.75 -7.06,0 -2.46,-3 2,-6.4 2,-6.4 0,0 5.25,-4.76 11.49,-5.09 l -11.58,-2.62 c -1.18,-0.16 -2.29,-0.69 -3.15,-1.52 -1.14,-0.96 -1.54,-2.53 -1,-3.92 0.73,-2 2.64,-3.31 4.77,-3.28 z"
     id="path24603" />
  <path
     style="fill:#242424;fill-opacity:1"
     d="m 93.451116,42.291949 c 0,0 -13,1.36 -22.06,10.86 -0.99,1.01 -0.96,2.63 0.05,3.62 0.41,0.4 0.95,0.65 1.52,0.71 3.49,0.32 8.7,2.11 16,7.64 0,0 3.93,3.75 7.06,0 2.46,-3 -2,-6.4 -2,-6.4 0,0 -5.25,-4.76 -11.49,-5.09 l 11.46,-2.62 c 1.19,-0.16 2.29,-0.69 3.16,-1.52 1.13,-0.96 1.54,-2.53 1,-3.92 -0.72,-1.97 -2.6,-3.28 -4.7,-3.28 z"
     id="path24605" />
</svg>
