<?xml version="1.0" encoding="UTF-8" standalone="no"?>
<svg
   enable-background="new 0 0 128 128"
   viewBox="0 0 128 128"
   version="1.1"
   id="svg25"
   sodipodi:docname="1f62c.svg"
   inkscape:version="1.1.1 (3bf5ae0d25, 2021-09-20)"
   xmlns:inkscape="http://www.inkscape.org/namespaces/inkscape"
   xmlns:sodipodi="http://sodipodi.sourceforge.net/DTD/sodipodi-0.dtd"
   xmlns="http://www.w3.org/2000/svg"
   xmlns:svg="http://www.w3.org/2000/svg">
  <defs
     id="defs29">
    <linearGradient
       id="effect_1_"
       gradientUnits="userSpaceOnUse"
       x1="63.599998"
       y1="1752.8"
       x2="63.599998"
       y2="1641"
       gradientTransform="translate(0.4,-1632.91)">
      <stop
         offset="0.39"
         style="stop-color:#40C0E7;stop-opacity:0"
         id="stop5244" />
      <stop
         offset="1"
         style="stop-color:#5F7AFF"
         id="stop5246" />
    </linearGradient>
    <linearGradient
       id="linearGradient5514"
       x1="64"
       x2="64"
       y1="110.28"
       y2="22.299999"
       gradientTransform="matrix(1,0,0,-1,0,130)"
       gradientUnits="userSpaceOnUse">
      <stop
         stop-color="#FEE133"
         offset=".5"
         id="stop2-7" />
      <stop
         stop-color="#FEDE32"
         offset=".6118"
         id="stop4-9" />
      <stop
         stop-color="#FCD32F"
         offset=".7076"
         id="stop6-7" />
      <stop
         stop-color="#FAC12B"
         offset=".7975"
         id="stop8-1" />
      <stop
         stop-color="#F7A924"
         offset=".8834"
         id="stop10-9" />
      <stop
         stop-color="#F6A323"
         offset=".9"
         id="stop12-6" />
    </linearGradient>
  </defs>
  <sodipodi:namedview
     id="namedview27"
     pagecolor="#ffffff"
     bordercolor="#666666"
     borderopacity="1.0"
     inkscape:pageshadow="2"
     inkscape:pageopacity="0.0"
     inkscape:pagecheckerboard="0"
     showgrid="false"
     inkscape:zoom="4.4304659"
     inkscape:cx="34.082194"
     inkscape:cy="93.105332"
     inkscape:window-width="1920"
     inkscape:window-height="991"
     inkscape:window-x="-9"
     inkscape:window-y="-9"
     inkscape:window-maximized="1"
     inkscape:current-layer="svg25" />
  <linearGradient
     id="a"
     x1="64"
     x2="64"
     y1="110.28"
     y2="22.3"
     gradientTransform="matrix(1,0,0,-1,-9.9999998e-7,130)"
     gradientUnits="userSpaceOnUse">
    <stop
       stop-color="#FEE133"
       offset=".5"
       id="stop2" />
    <stop
       stop-color="#FEDE32"
       offset=".6118"
       id="stop4" />
    <stop
       stop-color="#FCD32F"
       offset=".7076"
       id="stop6" />
    <stop
       stop-color="#FAC12B"
       offset=".7975"
       id="stop8" />
    <stop
       stop-color="#F7A924"
       offset=".8834"
       id="stop10" />
    <stop
       stop-color="#F6A323"
       offset=".9"
       id="stop12" />
  </linearGradient>
  <path
     d="M 64,119.89 C 36.07,119.89 5.999999,102.4 5.999999,63.999997 5.999999,25.599997 36.07,8.1099973 64,8.1099973 c 15.48,0 29.81,5.1199997 40.36,14.4299997 11.54,10.18 17.64,24.52 17.64,41.46 0,16.86 -6.1,31.17 -17.64,41.390003 -10.58,9.35 -24.91,14.5 -40.36,14.5 z"
     fill="url(#a)"
     id="path15"
     style="fill:url(#a);stroke:#eb8f00;stroke-width:4;stroke-miterlimit:4;stroke-dasharray:none;stroke-opacity:1" />
  <g
     id="g28660"
     transform="translate(-0.09768372,-0.42916075)"
     style="fill:#242424;fill-opacity:1">
    <path
       style="fill:#242424;fill-opacity:1"
       d="m 44.04,40.94 v 0 c -4.19,0 -8,3.54 -8,9.42 0,5.88 3.81,9.42 8,9.42 v 0 c 4.19,0 8,-3.54 8,-9.42 0,-5.88 -3.8,-9.42 -8,-9.42 z"
       id="path28646" />
    <g
       id="g28651"
       style="fill:#242424;fill-opacity:1">
      <g
         id="peepers_146_"
         style="fill:#242424;fill-opacity:1">
        <path
           style="fill:#242424;fill-opacity:1"
           d="m 43.65,44.87 v 0 c -1.03,-0.72 -2.58,-0.49 -3.58,0.95 -1,1.45 -0.67,2.97 0.36,3.69 v 0 c 1.03,0.72 2.58,0.49 3.58,-0.95 1,-1.44 0.68,-2.97 -0.36,-3.69 z"
           id="path28648" />
      </g>
    </g>
    <path
       style="fill:#242424;fill-opacity:1"
       d="m 82.4,40.94 v 0 c -4.19,0 -8,3.54 -8,9.42 0,5.88 3.81,9.42 8,9.42 v 0 c 4.19,0 8,-3.54 8,-9.42 0,-5.88 -3.81,-9.42 -8,-9.42 z"
       id="path28653" />
    <g
       id="g28658"
       style="fill:#242424;fill-opacity:1">
      <g
         id="peepers_145_"
         style="fill:#242424;fill-opacity:1">
        <path
           style="fill:#242424;fill-opacity:1"
           d="m 82.01,44.87 v 0 c -1.03,-0.72 -2.58,-0.49 -3.58,0.95 -1,1.45 -0.67,2.97 0.36,3.69 v 0 c 1.03,0.72 2.58,0.49 3.58,-0.95 1.01,-1.45 0.67,-2.97 -0.36,-3.69 z"
           id="path28655" />
      </g>
    </g>
  </g>
  <path
     style="fill:#ffffff;fill-opacity:1;stroke:#eb8f00;stroke-width:4;stroke-miterlimit:4;stroke-dasharray:none;stroke-opacity:1"
     d="m 39.282316,93.560839 h 50.09 c 6.32,0 11.440004,-5.12 11.440004,-11.44 v 0 c 0,-6.32 -5.120004,-11.44 -11.440004,-11.44 h -50.09 c -6.32,0 -11.44,5.12 -11.44,11.44 v 0 c -0.01,6.32 5.12,11.44 11.44,11.44 z"
     id="path28662" />
  <g
     id="g28666"
     transform="translate(-0.09768372,-0.42916075)">
    <path
       style="fill:#b3b3b3"
       d="M 100.74,80.67 H 28.1 c -0.1,0.61 -0.17,1.24 -0.17,1.88 0,0.73 0.07,1.43 0.2,2.12 h 72.57 c 0.13,-0.69 0.2,-1.39 0.2,-2.12 0.01,-0.65 -0.06,-1.27 -0.16,-1.88 z"
       id="path28664" />
  </g>
  <g
     id="g28678"
     transform="translate(-0.09768372,-0.42916075)">
    <path
       style="fill:#b3b3b3"
       d="m 89.46,71.1 h -0.55 v 22.89 h 0.55 c 0.91,0 1.8,-0.12 2.65,-0.32 V 71.42 C 91.26,71.22 90.38,71.1 89.46,71.1 Z"
       id="path28668" />
    <rect
       x="62.580002"
       y="71.099998"
       style="fill:#b3b3b3"
       width="3.2"
       height="22.889999"
       id="rect28670" />
    <path
       style="fill:#b3b3b3"
       d="m 39.38,71.1 c -1.09,0 -2.14,0.16 -3.14,0.45 v 21.99 c 1,0.29 2.05,0.45 3.14,0.45 h 0.06 V 71.1 Z"
       id="path28672" />
    <rect
       x="49.41"
       y="71.099998"
       style="fill:#b3b3b3"
       width="3.2"
       height="22.889999"
       id="rect28674" />
    <rect
       x="75.739998"
       y="71.099998"
       style="fill:#b3b3b3"
       width="3.2"
       height="22.889999"
       id="rect28676" />
  </g>
  <path
     style="fill:none;fill-opacity:1;stroke:#eb8f00;stroke-width:4;stroke-miterlimit:4;stroke-dasharray:none;stroke-opacity:1"
     d="m 39.282316,93.560839 h 50.090001 c 6.319999,0 11.440003,-5.12 11.440003,-11.44 v 0 c 0,-6.32 -5.120004,-11.44 -11.440003,-11.44 H 39.282316 c -6.32,0 -11.44,5.12 -11.44,11.44 v 0 c -0.01,6.32 5.12,11.44 11.44,11.44 z"
     id="path28662-0" />
</svg>
