<?xml version="1.0" encoding="UTF-8" standalone="no"?>
<svg
   enable-background="new 0 0 128 128"
   viewBox="0 0 128 128"
   version="1.1"
   id="svg5645"
   sodipodi:docname="1f628.svg"
   inkscape:version="1.1.1 (3bf5ae0d25, 2021-09-20)"
   xmlns:inkscape="http://www.inkscape.org/namespaces/inkscape"
   xmlns:sodipodi="http://sodipodi.sourceforge.net/DTD/sodipodi-0.dtd"
   xmlns="http://www.w3.org/2000/svg"
   xmlns:svg="http://www.w3.org/2000/svg">
  <defs
     id="defs5649" />
  <sodipodi:namedview
     id="namedview5647"
     pagecolor="#ffffff"
     bordercolor="#666666"
     borderopacity="1.0"
     inkscape:pageshadow="2"
     inkscape:pageopacity="0.0"
     inkscape:pagecheckerboard="0"
     showgrid="false"
     inkscape:zoom="3.1328125"
     inkscape:cx="23.620948"
     inkscape:cy="109.96509"
     inkscape:window-width="1920"
     inkscape:window-height="991"
     inkscape:window-x="-9"
     inkscape:window-y="-9"
     inkscape:window-maximized="1"
     inkscape:current-layer="svg5645" />
  <symbol
     viewBox="-64.5 -64.5 129 129"
     id="symbol5622">
    <g
       fill="none"
       stroke="#4285F4"
       stroke-miterlimit="10"
       id="g5620">
      <rect
         x="-64"
         y="-64"
         width="128"
         height="128"
         id="rect5604" />
      <path
         d="M36.95,37.82C27.32,46.32,14.2,51,0,51 c-14.27,0-27.39-4.62-36.96-13.01C-47.45,28.79-53,15.65-53,0c0-15.58,5.55-28.69,16.04-37.92C-27.36-46.35-14.24-51,0-51 c14.17,0,27.29,4.71,36.95,13.25C47.45-28.45,53-15.4,53,0C53,15.47,47.45,28.55,36.95,37.82z"
         id="path5606" />
      <path
         d="m0 55c-29.59 0-57-19.01-57-55 0-35.8 27.41-55 57-55s57 19.69 57 55c0 35.51-27.41 55-57 55z"
         id="path5608" />
      <path
         d="M0-43c-12.29,0-23.54,3.94-31.68,11.09 C-40.39-24.25-45-13.21-45,0c0,29.7,22.6,43,45,43c21.67,0,45-13.46,45-43S21.67-43,0-43L0-43z"
         id="path5610" />
      <line
         x1="-.01"
         x2="-.01"
         y1="51"
         y2="-51"
         id="line5612" />
      <line
         x1="-16"
         x2="-16"
         y1="48.95"
         y2="-48.93"
         id="line5614" />
      <line
         x1="15.99"
         x2="15.99"
         y1="48.91"
         y2="-48.93"
         id="line5616" />
      <line
         x1="53"
         x2="-53"
         y1=".08"
         y2=".08"
         id="line5618" />
    </g>
  </symbol>
  <path
     d="m4.15 64c0 37.28 28.78 57.75 59.85 57.75s59.85-19.96 59.85-57.75c0-37.59-28.78-57.75-59.85-57.75s-59.85 20.67-59.85 57.75z"
     fill="#FEE133"
     id="path5624"
     style="stroke:#47a9b0;stroke-opacity:1;stroke-width:4;stroke-miterlimit:4;stroke-dasharray:none" />
  <linearGradient
     id="a"
     x1="64"
     x2="64"
     y1="79.5"
     y2="2"
     gradientUnits="userSpaceOnUse"
     gradientTransform="translate(0,2)">
    <stop
       stop-color="#40C0E7"
       stop-opacity="0"
       offset=".3853"
       id="stop5628" />
    <stop
       stop-color="#40C0E7"
       offset="1"
       id="stop5630" />
  </linearGradient>
  <path
     d="m 4.15,66 c 0,37.28 28.780004,57.75 59.850004,57.75 C 95.070004,123.75 123.85,103.79 123.85,66 123.85,28.409997 95.070004,8.249997 64.000004,8.249997 32.930004,8.249997 4.15,28.919997 4.15,66 Z"
     fill="url(#a)"
     id="path5633"
     style="fill:url(#a)" />
  <path
     d="m52.66 102.96c-3.38 0-6.51-1.77-8.17-4.61-1.65-2.84-1.49-6.17 0.44-8.88 4.28-6.03 10.87-9.21 19.06-9.21 8.2 0 14.79 3.19 19.06 9.21 1.93 2.72 2.09 6.04 0.44 8.89-1.65 2.84-4.78 4.61-8.17 4.61-1.05 0-2.1-0.17-3.13-0.5-2.66-0.86-5.42-2.3-8.2-2.3s-5.54 1.44-8.2 2.3c-1.02 0.32-2.08 0.49-3.13 0.49z"
     fill="#242424"
     id="path5635" />
  <path
     d="m82.74 49.94c4.19 0 8 3.54 8 9.42s-3.81 9.42-8 9.42-8-3.54-8-9.42 3.81-9.42 8-9.42z"
     fill="#242424"
     id="path5637" />
  <path
     d="m45.2 49.94c-4.19 0-8 3.54-8 9.42s3.81 9.42 8 9.42 8-3.54 8-9.42-3.81-9.42-8-9.42z"
     fill="#242424"
     id="path5639" />
  <g
     id="eyes"
     style="fill:#47a9b0;fill-opacity:1;stroke:none;stroke-opacity:1"
     transform="translate(-0.3020632,-0.26388151)">
    <g
       id="eyebrows"
       style="fill:#47a9b0;fill-opacity:1;stroke:none;stroke-opacity:1">
      <path
         style="fill:#47a9b0;fill-opacity:1;stroke:none;stroke-opacity:1"
         d="m 83.4,31.31 h -0.1 c -1.01,0.08 -1.9,-0.67 -1.99,-1.68 -0.08,-1.01 0.67,-1.9 1.68,-1.99 1.93,-0.29 3.9,-0.27 5.83,0.05 5.23,0.8 9.96,3.56 13.22,7.73 1.49,2 -1.14,3.9 -2.79,2.4 -4.4,-3.89 -9.98,-6.18 -15.85,-6.51 z"
         id="path1157" />
      <path
         style="fill:#47a9b0;fill-opacity:1;stroke:none;stroke-opacity:1"
         d="M 44.85,31.31 H 45 c 1.02,0.02 1.85,-0.79 1.87,-1.81 0.02,-0.92 -0.66,-1.72 -1.57,-1.85 -1.93,-0.29 -3.9,-0.27 -5.83,0.05 -5.24,0.79 -9.97,3.56 -13.23,7.73 -1.48,2 1.15,3.9 2.79,2.4 4.4,-3.88 9.97,-6.18 15.82,-6.52 z"
         id="path1159" />
    </g>
  </g>
</svg>
