<?xml version="1.0" encoding="UTF-8" standalone="no"?>
<svg
   enable-background="new 0 0 128 128"
   viewBox="0 0 128 128"
   version="1.1"
   id="svg49"
   sodipodi:docname="1f621.svg"
   inkscape:version="1.1.1 (3bf5ae0d25, 2021-09-20)"
   xmlns:inkscape="http://www.inkscape.org/namespaces/inkscape"
   xmlns:sodipodi="http://sodipodi.sourceforge.net/DTD/sodipodi-0.dtd"
   xmlns="http://www.w3.org/2000/svg"
   xmlns:svg="http://www.w3.org/2000/svg">
  <defs
     id="defs53" />
  <sodipodi:namedview
     id="namedview51"
     pagecolor="#ffffff"
     bordercolor="#666666"
     borderopacity="1.0"
     inkscape:pageshadow="2"
     inkscape:pageopacity="0.0"
     inkscape:pagecheckerboard="0"
     showgrid="false"
     inkscape:zoom="6.265625"
     inkscape:cx="64"
     inkscape:cy="64.0798"
     inkscape:window-width="1920"
     inkscape:window-height="991"
     inkscape:window-x="-9"
     inkscape:window-y="-9"
     inkscape:window-maximized="1"
     inkscape:current-layer="svg49" />
  <symbol
     viewBox="-64.5 -64.5 129 129"
     id="symbol20">
    <g
       fill="none"
       stroke="#4285F4"
       stroke-miterlimit="10"
       id="g18">
      <rect
         x="-64"
         y="-64"
         width="128"
         height="128"
         id="rect2" />
      <path
         d="M36.95,37.82C27.32,46.32,14.2,51,0,51 c-14.27,0-27.39-4.62-36.96-13.01C-47.45,28.79-53,15.65-53,0c0-15.58,5.55-28.69,16.04-37.92C-27.36-46.35-14.24-51,0-51 c14.17,0,27.29,4.71,36.95,13.25C47.45-28.45,53-15.4,53,0C53,15.47,47.45,28.55,36.95,37.82z"
         id="path4" />
      <path
         d="m0 55c-29.59 0-57-19.01-57-55 0-35.8 27.41-55 57-55s57 19.69 57 55c0 35.51-27.41 55-57 55z"
         id="path6" />
      <path
         d="M0-43c-12.29,0-23.54,3.94-31.68,11.09 C-40.39-24.25-45-13.21-45,0c0,29.7,22.6,43,45,43c21.67,0,45-13.46,45-43S21.67-43,0-43L0-43z"
         id="path8" />
      <line
         x1="-.01"
         x2="-.01"
         y1="51"
         y2="-51"
         id="line10" />
      <line
         x1="-16"
         x2="-16"
         y1="48.95"
         y2="-48.93"
         id="line12" />
      <line
         x1="15.99"
         x2="15.99"
         y1="48.91"
         y2="-48.93"
         id="line14" />
      <line
         x1="53"
         x2="-53"
         y1=".08"
         y2=".08"
         id="line16" />
    </g>
  </symbol>
  <linearGradient
     id="a"
     x1="64"
     x2="64"
     y1="-20.03"
     y2="82.956"
     gradientUnits="userSpaceOnUse">
    <stop
       stop-color="#F15B52"
       offset=".3413"
       id="stop22" />
    <stop
       stop-color="#EF5851"
       offset=".5564"
       id="stop24" />
    <stop
       stop-color="#EA4E50"
       offset=".718"
       id="stop26" />
    <stop
       stop-color="#E13E4D"
       offset=".8618"
       id="stop28" />
    <stop
       stop-color="#D9314B"
       offset=".9457"
       id="stop30" />
  </linearGradient>
  <path
     d="M64,119.79c-27.88,0-57.9-17.46-57.9-55.79S36.12,8.21,64,8.21 c15.46,0,29.76,5.12,40.29,14.4c11.52,10.17,17.61,24.48,17.61,41.38c0,16.83-6.09,31.12-17.61,41.31 C93.73,114.65,79.43,119.79,64,119.79z"
     fill="url(#a)"
     id="path33"
     style="stroke:#c7203a;stroke-opacity:1;stroke-width:4;stroke-miterlimit:4;stroke-dasharray:none" />
  <path
     d="m83.94 103.14c-0.34-0.13-0.64-0.34-0.89-0.62-4.16-4.7-10.99-7.79-18.31-7.79-7.31 0-14.15 3.09-18.31 7.79-0.25 0.28-0.55 0.49-0.89 0.62-0.75 0.28-1.6 0.12-2.2-0.41-0.58-0.52-0.79-1.31-0.49-2.08 2.98-7.63 11.84-13.64 21.89-13.64s18.91 6 21.89 13.64c0.3 0.76 0.09 1.56-0.49 2.08-0.6 0.53-1.46 0.69-2.2 0.41z"
     fill="#242424"
     id="path37" />
  <g
     fill="#242424"
     id="g47">
    <path
       d="m55.84 73.55c-0.69 0-1.34-0.25-1.89-0.72-2.98-2.55-12.74-7.93-16.33-9.69-1.34-0.65-1.98-1.97-1.67-3.32 0.31-1.34 1.45-2.27 2.79-2.27 0.25 0 0.5 0.03 0.75 0.1 1.32 0.34 2.61 0.8 3.85 1.37 3.33 1.56 12.56 6.98 14.8 9.8 0.71 0.9 0.85 2.04 0.36 3.05-0.5 1.02-1.54 1.68-2.66 1.68z"
       id="path39" />
    <path
       d="m73.63 73.55c0.69 0 1.35-0.25 1.89-0.72 2.98-2.55 12.74-7.93 16.33-9.69 1.34-0.65 1.98-1.97 1.67-3.32-0.31-1.34-1.45-2.27-2.79-2.27-0.25 0-0.5 0.03-0.75 0.1-1.32 0.34-2.61 0.8-3.85 1.37-3.33 1.56-12.56 6.98-14.8 9.8-0.71 0.9-0.85 2.04-0.36 3.05 0.51 1.02 1.55 1.68 2.66 1.68z"
       id="path41" />
    <path
       d="m41.01 75.17c0 4.29 3.36 7.77 7.5 7.77s7.5-3.48 7.5-7.77v-1.46c0-4.29-3.36-7.77-7.5-7.77s-7.5 3.48-7.5 7.77v1.46z"
       id="path43" />
    <path
       d="m73.47 75.17c0 4.29 3.36 7.77 7.5 7.77s7.5-3.48 7.5-7.77v-1.46c0-4.29-3.36-7.77-7.5-7.77s-7.5 3.48-7.5 7.77v1.46z"
       id="path45" />
  </g>
</svg>
