<?xml version="1.0" encoding="UTF-8" standalone="no"?>
<svg
   enable-background="new 0 0 128 128"
   viewBox="0 0 128 128"
   version="1.1"
   id="svg25"
   sodipodi:docname="1f62a.svg"
   inkscape:version="1.1.1 (3bf5ae0d25, 2021-09-20)"
   xmlns:inkscape="http://www.inkscape.org/namespaces/inkscape"
   xmlns:sodipodi="http://sodipodi.sourceforge.net/DTD/sodipodi-0.dtd"
   xmlns="http://www.w3.org/2000/svg"
   xmlns:svg="http://www.w3.org/2000/svg">
  <defs
     id="defs29">
    <linearGradient
       id="effect_1_"
       gradientUnits="userSpaceOnUse"
       x1="63.599998"
       y1="1752.8"
       x2="63.599998"
       y2="1641"
       gradientTransform="translate(0.4,-1632.91)">
      <stop
         offset="0.39"
         style="stop-color:#40C0E7;stop-opacity:0"
         id="stop5244" />
      <stop
         offset="1"
         style="stop-color:#5F7AFF"
         id="stop5246" />
    </linearGradient>
    <linearGradient
       id="linearGradient5514"
       x1="64"
       x2="64"
       y1="110.28"
       y2="22.299999"
       gradientTransform="matrix(1,0,0,-1,0,130)"
       gradientUnits="userSpaceOnUse">
      <stop
         stop-color="#FEE133"
         offset=".5"
         id="stop2-7" />
      <stop
         stop-color="#FEDE32"
         offset=".6118"
         id="stop4-9" />
      <stop
         stop-color="#FCD32F"
         offset=".7076"
         id="stop6-7" />
      <stop
         stop-color="#FAC12B"
         offset=".7975"
         id="stop8-1" />
      <stop
         stop-color="#F7A924"
         offset=".8834"
         id="stop10-9" />
      <stop
         stop-color="#F6A323"
         offset=".9"
         id="stop12-6" />
    </linearGradient>
  </defs>
  <sodipodi:namedview
     id="namedview27"
     pagecolor="#ffffff"
     bordercolor="#666666"
     borderopacity="1.0"
     inkscape:pageshadow="2"
     inkscape:pageopacity="0.0"
     inkscape:pagecheckerboard="0"
     showgrid="false"
     inkscape:zoom="4.4304659"
     inkscape:cx="32.050805"
     inkscape:cy="90.171103"
     inkscape:window-width="1920"
     inkscape:window-height="991"
     inkscape:window-x="-9"
     inkscape:window-y="-9"
     inkscape:window-maximized="1"
     inkscape:current-layer="svg25" />
  <linearGradient
     id="a"
     x1="64"
     x2="64"
     y1="110.28"
     y2="22.3"
     gradientTransform="matrix(1,0,0,-1,-9.9999998e-7,130)"
     gradientUnits="userSpaceOnUse">
    <stop
       stop-color="#FEE133"
       offset=".5"
       id="stop2" />
    <stop
       stop-color="#FEDE32"
       offset=".6118"
       id="stop4" />
    <stop
       stop-color="#FCD32F"
       offset=".7076"
       id="stop6" />
    <stop
       stop-color="#FAC12B"
       offset=".7975"
       id="stop8" />
    <stop
       stop-color="#F7A924"
       offset=".8834"
       id="stop10" />
    <stop
       stop-color="#F6A323"
       offset=".9"
       id="stop12" />
  </linearGradient>
  <path
     d="M 64,119.89 C 36.07,119.89 5.999999,102.4 5.999999,63.999997 5.999999,25.599997 36.07,8.1099973 64,8.1099973 c 15.48,0 29.81,5.1199997 40.36,14.4299997 11.54,10.18 17.64,24.52 17.64,41.46 0,16.86 -6.1,31.17 -17.64,41.390003 -10.58,9.35 -24.91,14.5 -40.36,14.5 z"
     fill="url(#a)"
     id="path15"
     style="fill:url(#a);stroke:#eb8f00;stroke-width:4;stroke-miterlimit:4;stroke-dasharray:none;stroke-opacity:1" />
  <g
     id="eyes-4"
     transform="translate(0.8031776,0.753521)"
     style="fill:#242424;fill-opacity:1">
    <g
       id="peepers-4"
       style="fill:#242424;fill-opacity:1">
      <path
         style="fill:#242424;fill-opacity:1"
         d="m 49.61,54.7 -0.2,0.2 c -0.15,0.18 -0.33,0.35 -0.51,0.5 l -0.69,0.57 c -0.29,0.22 -0.62,0.46 -1,0.7 -0.39,0.25 -0.79,0.48 -1.2,0.69 -0.91,0.46 -1.88,0.77 -2.88,0.94 -0.52,0.09 -1.04,0.13 -1.57,0.13 h -0.47 c -0.13,0.01 -0.27,0.01 -0.4,0 -0.16,0 -0.45,-0.06 -0.71,-0.09 -0.5,-0.09 -1,-0.22 -1.49,-0.37 -0.47,-0.16 -0.93,-0.35 -1.38,-0.57 -0.41,-0.21 -0.81,-0.44 -1.2,-0.69 -0.6,-0.39 -1.17,-0.83 -1.7,-1.32 L 33.58,54.81 33.33,54.57 C 32.05,53.4 30.12,53.33 28.76,54.4 27.79,55.16 27.48,56.49 28,57.61 l 0.14,0.3 c 0.13,0.29 0.28,0.57 0.45,0.84 0.59,1.02 1.32,1.94 2.16,2.76 0.59,0.58 1.23,1.1 1.92,1.56 0.79,0.55 1.63,1.02 2.52,1.4 0.96,0.43 1.97,0.77 3,1 0.55,0.1 1.06,0.2 1.73,0.26 0.31,0 0.68,0.06 0.84,0.06 h 0.77 c 1.12,-0.02 2.24,-0.13 3.34,-0.35 1.03,-0.23 2.04,-0.57 3,-1 0.88,-0.38 1.73,-0.85 2.52,-1.4 0.68,-0.46 1.32,-0.98 1.91,-1.56 0.52,-0.46 1,-0.95 1.44,-1.48 l 0.47,-0.66 0.4,-0.64 c 0.15,-0.24 0.28,-0.5 0.39,-0.76 0.07,-0.17 0.11,-0.25 0.11,-0.25 0.6,-1.43 -0.08,-3.08 -1.51,-3.68 -0.1,-0.04 -0.2,-0.08 -0.3,-0.1 -1.28,-0.47 -2.71,-0.16 -3.69,0.79 z"
         id="path14968" />
      <path
         style="fill:#242424;fill-opacity:1"
         d="m 94.51,54.7 -0.2,0.2 c -0.15,0.18 -0.33,0.35 -0.51,0.5 l -0.69,0.57 c -0.29,0.22 -0.62,0.46 -1,0.7 -0.39,0.25 -0.79,0.48 -1.2,0.69 -0.44,0.22 -0.9,0.41 -1.37,0.57 -0.49,0.15 -0.99,0.28 -1.5,0.37 -0.52,0.09 -1.04,0.13 -1.57,0.13 H 86 c -0.14,0.01 -0.27,0.01 -0.41,0 -0.15,0 -0.44,-0.06 -0.7,-0.09 -0.51,-0.09 -1.01,-0.22 -1.5,-0.37 C 82.91,57.8 82.45,57.59 82,57.36 81.59,57.15 81.19,56.92 80.8,56.67 80.2,56.28 79.63,55.84 79.1,55.35 l -0.63,-0.58 -0.25,-0.24 c -1.28,-1.17 -3.21,-1.24 -4.57,-0.17 -0.99,0.76 -1.32,2.12 -0.78,3.25 0,0 0,0.11 0.15,0.3 0.13,0.29 0.28,0.57 0.44,0.84 1.03,1.73 2.42,3.2 4.09,4.32 0.79,0.55 1.63,1.02 2.51,1.4 0.98,0.44 2,0.77 3.05,1 0.55,0.1 1.06,0.2 1.73,0.26 0.31,0 0.67,0.06 0.83,0.06 h 0.78 c 1.12,-0.02 2.23,-0.13 3.33,-0.35 1.05,-0.23 2.07,-0.56 3.05,-1 0.88,-0.38 1.72,-0.85 2.51,-1.4 0.69,-0.46 1.33,-0.98 1.92,-1.56 0.49,-0.46 0.95,-0.95 1.37,-1.48 l 0.48,-0.66 0.4,-0.64 c 0.15,-0.24 0.28,-0.5 0.39,-0.76 0.07,-0.17 0.11,-0.25 0.11,-0.25 0.6,-1.43 -0.08,-3.08 -1.51,-3.68 -0.1,-0.04 -0.2,-0.08 -0.3,-0.1 -1.28,-0.47 -2.71,-0.16 -3.69,0.79 z"
         id="path14970" />
    </g>
  </g>
  <g
     id="prop"
     style="fill:#5f7aff;fill-opacity:1;stroke:#4864ed;stroke-width:4;stroke-miterlimit:4;stroke-dasharray:none;stroke-opacity:1"
     transform="translate(0.8031776,0.753521)">
    <path
       style="fill:#5f7aff;fill-opacity:1;stroke:#4864ed;stroke-width:4;stroke-miterlimit:4;stroke-dasharray:none;stroke-opacity:1"
       d="m 111.38,103.88 c 21.29,-4.71 14.81,-41.1 -21.71,-36.3 -6.34,0.84 -13,5 -17.75,9.19 -1.16,1 -0.65,3 0.9,2.89 15.23,-1.04 14.78,29.47 38.56,24.22 z"
       id="path14974" />
  </g>
  <g
     id="eyebrows"
     transform="translate(0.8031776,0.753521)"
     style="fill:#eb8f00;fill-opacity:1">
    <path
       style="fill:#eb8f00;fill-opacity:1"
       d="m 35.64,38.27 h 0.13 c 2.14,-0.5 2.06,-3.72 -0.38,-3.64 -1.97,0.1 -3.91,0.5 -5.76,1.18 -4.98,1.8 -9.09,5.45 -11.46,10.19 -0.43,0.92 -0.03,2.02 0.89,2.44 0.82,0.38 1.79,0.11 2.3,-0.63 3.54,-4.71 8.58,-8.07 14.28,-9.54 z"
       id="path14980" />
  </g>
  <g
     id="eyebrows-2"
     transform="translate(0.8031776,0.753521)"
     style="fill:#eb8f00;fill-opacity:1">
    <path
       style="fill:#eb8f00;fill-opacity:1"
       d="m 91.49,38.27 h -0.13 c -1,-0.12 -1.72,-1.02 -1.61,-2.03 0.11,-0.99 1,-1.7 1.99,-1.61 1.97,0.1 3.9,0.5 5.75,1.18 5,1.8 9.12,5.44 11.51,10.19 0.43,0.92 0.03,2.02 -0.89,2.44 -0.82,0.38 -1.79,0.11 -2.3,-0.63 -3.55,-4.71 -8.6,-8.08 -14.32,-9.54 z"
       id="path14983" />
  </g>
  <path
     id="mouth"
     style="fill:#242424;fill-opacity:1"
     d="m 56.503178,100.05352 c -3.83,-0.07 -6.88,-3.239999 -6.81,-7.069999 0.02,-1.29 0.41,-2.55 1.11,-3.63 3.1,-4.8 8,-7.3 14,-7.3 6,0 10.9,2.5 14,7.3 1.39,2.1 1.5,4.79 0.3,7 -1.19,2.22 -3.48,3.64 -6,3.699999 -0.79,0.02 -1.57,-0.109999 -2.3,-0.399999 -1.93,-0.67 -3.96,-1.01 -6,-1 -2.04,-0.02 -4.07,0.32 -6,1 -0.74,0.27 -1.52,0.409999 -2.3,0.399999 z" />
</svg>
