<?xml version="1.0" encoding="UTF-8" standalone="no"?>
<svg
   enable-background="new 0 0 128 128"
   viewBox="0 0 128 128"
   version="1.1"
   id="svg25"
   sodipodi:docname="1f62d.svg"
   inkscape:version="1.1.1 (3bf5ae0d25, 2021-09-20)"
   xmlns:inkscape="http://www.inkscape.org/namespaces/inkscape"
   xmlns:sodipodi="http://sodipodi.sourceforge.net/DTD/sodipodi-0.dtd"
   xmlns="http://www.w3.org/2000/svg"
   xmlns:svg="http://www.w3.org/2000/svg">
  <defs
     id="defs29">
    <linearGradient
       id="effect_1_"
       gradientUnits="userSpaceOnUse"
       x1="63.599998"
       y1="1752.8"
       x2="63.599998"
       y2="1641"
       gradientTransform="translate(0.4,-1632.91)">
      <stop
         offset="0.39"
         style="stop-color:#40C0E7;stop-opacity:0"
         id="stop5244" />
      <stop
         offset="1"
         style="stop-color:#5F7AFF"
         id="stop5246" />
    </linearGradient>
    <linearGradient
       id="linearGradient5514"
       x1="64"
       x2="64"
       y1="110.28"
       y2="22.299999"
       gradientTransform="matrix(1,0,0,-1,0,130)"
       gradientUnits="userSpaceOnUse">
      <stop
         stop-color="#FEE133"
         offset=".5"
         id="stop2-7" />
      <stop
         stop-color="#FEDE32"
         offset=".6118"
         id="stop4-9" />
      <stop
         stop-color="#FCD32F"
         offset=".7076"
         id="stop6-7" />
      <stop
         stop-color="#FAC12B"
         offset=".7975"
         id="stop8-1" />
      <stop
         stop-color="#F7A924"
         offset=".8834"
         id="stop10-9" />
      <stop
         stop-color="#F6A323"
         offset=".9"
         id="stop12-6" />
    </linearGradient>
    <linearGradient
       id="a-2"
       x1="64"
       x2="64"
       y1="19.716999"
       y2="107.7"
       gradientUnits="userSpaceOnUse"
       gradientTransform="translate(1.0044501,-0.12410143)">
      <stop
         stop-color="#F6A323"
         offset=".5664"
         id="stop5330" />
      <stop
         stop-color="#FEE133"
         offset=".9168"
         id="stop5332" />
    </linearGradient>
  </defs>
  <sodipodi:namedview
     id="namedview27"
     pagecolor="#ffffff"
     bordercolor="#666666"
     borderopacity="1.0"
     inkscape:pageshadow="2"
     inkscape:pageopacity="0.0"
     inkscape:pagecheckerboard="0"
     showgrid="false"
     inkscape:zoom="3.1328125"
     inkscape:cx="7.0224439"
     inkscape:cy="92.089776"
     inkscape:window-width="1920"
     inkscape:window-height="991"
     inkscape:window-x="-9"
     inkscape:window-y="-9"
     inkscape:window-maximized="1"
     inkscape:current-layer="svg25" />
  <linearGradient
     id="a"
     x1="64"
     x2="64"
     y1="110.28"
     y2="22.3"
     gradientTransform="matrix(1,0,0,-1,-9.9999998e-7,130)"
     gradientUnits="userSpaceOnUse">
    <stop
       stop-color="#FEE133"
       offset=".5"
       id="stop2" />
    <stop
       stop-color="#FEDE32"
       offset=".6118"
       id="stop4" />
    <stop
       stop-color="#FCD32F"
       offset=".7076"
       id="stop6" />
    <stop
       stop-color="#FAC12B"
       offset=".7975"
       id="stop8" />
    <stop
       stop-color="#F7A924"
       offset=".8834"
       id="stop10" />
    <stop
       stop-color="#F6A323"
       offset=".9"
       id="stop12" />
  </linearGradient>
  <path
     d="m 65.004452,119.7659 c -27.930002,0 -58.0000019,-17.48999 -58.0000019,-55.889996 0,-38.4 30.0699999,-55.8900004 58.0000019,-55.8900004 15.48,0 29.81,5.1200004 40.359998,14.4300004 11.54,10.18 17.64,24.52 17.64,41.46 0,16.86 -6.1,31.170004 -17.64,41.389996 -10.579998,9.35 -24.909998,14.5 -40.359998,14.5 z"
     fill="url(#a)"
     id="path5335"
     style="fill:url(#a-2);stroke:#eb8f00;stroke-width:4;stroke-miterlimit:4;stroke-dasharray:none;stroke-opacity:1" />
  <path
     id="path9786"
     style="fill:#242424;stroke:#eb8f00;stroke-width:4;stroke-miterlimit:4;stroke-dasharray:none;stroke-opacity:1;fill-opacity:1"
     d="m 63.875,70.515625 c -9.88,0 -20.298359,2.47 -26.068359,12 -1.607487,2.081011 -0.876943,1.381392 0,0 -2.93,4.77 -4.49125,10.249609 -4.53125,15.849609 -0.05,3.519996 2.76125,6.410936 6.28125,6.460936 1.01,0.01 2.019921,-0.21015 2.919921,-0.66015 6.710001,-3.14 13.998438,-4.840004 21.398438,-5.000004 7.41,0.14 14.700391,1.850004 21.400391,5.000004 3.15,1.56 6.971015,0.27914 8.541015,-2.88086 0.45,-0.91 0.680157,-1.909926 0.660156,-2.919926 -0.06,-5.69 -1.751328,-11.24 -4.861328,-16 -0.01364,-0.0041 -0.02738,-0.0076 -0.04102,-0.01172 C 83.527368,72.906378 72.944689,70.515625 63.875,70.515625 Z"
     sodipodi:nodetypes="scccccccccccs" />
  <path
     style="fill:#ffffff"
     d="m 89.616641,82.415625 c -6.04,-9.5 -16.65,-11.9 -25.74,-11.9 -9.88,0 -20.3,2.47 -26.07,12 8.45,-2.55 17.24,-3.8 26.07,-3.7 8.71,-0.11 17.39,1.1 25.74,3.6 z"
     id="path9788-3" />
  <path
     id="path9786-5"
     style="fill:none;stroke:#eb8f00;stroke-width:4;stroke-miterlimit:4;stroke-dasharray:none;stroke-opacity:1"
     d="m 63.875,70.515625 c -9.88,0 -20.298359,2.47 -26.068359,12 -1.607487,2.081011 -0.876943,1.381392 0,0 -2.93,4.77 -4.49125,10.249609 -4.53125,15.849611 -0.05,3.519994 2.76125,6.410934 6.28125,6.460934 1.01,0.01 2.019921,-0.21015 2.919921,-0.66015 6.710001,-3.14 13.998438,-4.840004 21.398438,-5.000004 7.41,0.14 14.700391,1.850004 21.400391,5.000004 3.15,1.56 6.97101,0.27914 8.54101,-2.88086 0.45,-0.91 0.68016,-1.909924 0.66016,-2.919924 -0.06,-5.690002 -1.75133,-11.240002 -4.86133,-16.000002 -0.0136,-0.0041 -0.0274,-0.0076 -0.041,-0.01172 C 83.527368,72.906378 72.944689,70.515625 63.875,70.515625 Z"
     sodipodi:nodetypes="scccccccccccs" />
  <g
     id="prop_24_"
     transform="translate(0.20297125,1.7727536)">
    <g
       id="g35085">
      <g
         id="g35083">
        <path
           style="fill:#5f7aff"
           d="m 38.53,48 c 0.05,0 0.02,0 0,0 z"
           id="path35081" />
      </g>
    </g>
    <g
       id="g35091">
      <g
         id="g35089">
        <path
           style="fill:#5f7aff"
           d="m 95.86,48 c 0.04,0 0.02,0 0,0 z"
           id="path35087" />
      </g>
    </g>
  </g>
  <g
     id="prop_23_"
     transform="translate(0.20297125,1.7727536)">
    <g
       id="g35121">
      <g
         id="g35119">
        <path
           style="fill:#5f7aff"
           d="m 36.53,48 c 0.05,0 0.02,0 0,0 z"
           id="path35117" />
      </g>
    </g>
    <g
       id="g35127">
      <g
         id="g35125">
        <path
           style="fill:#5f7aff"
           d="m 93.86,48 c 0.04,0 0.02,0 0,0 z"
           id="path35123" />
      </g>
    </g>
  </g>
  <path
     id="left-eyebrow_6_"
     style="fill:#eb8f00;fill-opacity:1"
     d="m 22.392971,47.682754 c -0.52,0.09 -1.06,0.01 -1.52,-0.21 -0.91,-0.44 -1.6,-1.51 -1.08,-2.91 1.91,-4.94 5.86,-9.08 10.839998,-11.38 1.85,-0.86 3.79,-1.43 5.78,-1.7 1.49,-0.17 2.36,0.74 2.57,1.71 0.23,1.08 -0.26,2.4 -1.66,2.86 l -0.12,0.04 c -5.39,1.86 -10.199998,5.67 -13.179998,10.44 -0.41,0.68 -1.01,1.04 -1.63,1.15 z" />
  <path
     id="left-eyebrow_5_"
     style="fill:#eb8f00;fill-opacity:1"
     d="m 103.73297,46.532754 c -2.98,-4.77 -7.790001,-8.58 -13.180001,-10.44 l -0.12,-0.04 c -1.4,-0.45 -1.9,-1.78 -1.66,-2.86 0.21,-0.98 1.09,-1.88 2.57,-1.71 1.98,0.26 3.93,0.84 5.78,1.7 4.980001,2.3 8.930001,6.44 10.840001,11.38 0.52,1.4 -0.17,2.47 -1.08,2.91 -0.45,0.22 -0.99,0.3 -1.52,0.21 -0.62,-0.11 -1.22,-0.47 -1.63,-1.15 z" />
  <g
     id="g35134"
     transform="translate(0.20297125,1.7727536)"
     style="fill:#5f7aff;fill-opacity:1;stroke:#4864ed;stroke-opacity:1;stroke-width:4;stroke-miterlimit:4;stroke-dasharray:none">
    <path
       style="fill:#5f7aff;fill-opacity:1;stroke:#4864ed;stroke-opacity:1;stroke-width:4;stroke-miterlimit:4;stroke-dasharray:none"
       d="m 111.74,111 c 0,-3.07 -5.55,-5.62 -12.52,-5.78 L 97.07,52.67 c -0.21,-0.16 -0.42,-0.35 -0.59,-0.56 0,0 -0.06,-0.08 -0.18,-0.22 C 96.24,51.82 96.17,51.73 96.09,51.62 96,51.51 95.91,51.39 95.83,51.33 95.66,51.16 95.45,50.95 95.21,50.71 94.96,50.46 94.66,50.19 94.35,49.92 93.71,49.38 92.95,48.88 92.15,48.53 91.35,48.2 90.54,48 89.71,48.01 h -0.13 l -0.29,0.01 c -0.26,0 -0.21,0.02 -0.29,0.03 -0.07,-0.01 -0.35,0.06 -0.54,0.09 -0.4,0.1 -0.82,0.22 -1.22,0.39 -0.8,0.35 -5.09,0.54 -5.37,0.71 l -0.46,61.25 c -4.53,1.37 -9.49,3.67 -9.49,6.24 0,4.19 7.83,7.6 17.49,7.6 9.66,0 17.49,-3.39 17.49,-7.58 0,-0.42 -0.1,-0.82 -0.25,-1.22 3.1,-1.06 5.09,-2.69 5.09,-4.53 z"
       id="path35132" />
  </g>
  <g
     id="g35140"
     transform="translate(0.20297125,1.7727536)"
     style="fill:#5f7aff;fill-opacity:1;stroke:#4864ed;stroke-opacity:1;stroke-width:4;stroke-miterlimit:4;stroke-dasharray:none">
    <path
       style="fill:#5f7aff;fill-opacity:1;stroke:#4864ed;stroke-opacity:1;stroke-width:4;stroke-miterlimit:4;stroke-dasharray:none"
       d="M 46.88,110.49 46.43,49.36 C 45.94,49.14 45.1,52.03 44.98,51.88 44.92,51.81 44.85,51.72 44.77,51.61 44.68,51.5 44.59,51.38 44.51,51.32 44.34,51.15 44.13,50.94 43.89,50.7 43.64,50.45 43.34,50.18 43.03,49.91 42.39,49.37 41.63,48.87 40.83,48.52 40.03,48.19 39.22,47.99 38.39,48 h -0.13 l -0.29,0.01 c -0.26,0 -0.21,0.02 -0.29,0.03 -0.07,-0.01 -0.35,0.06 -0.54,0.09 -0.4,0.1 -0.82,0.22 -1.22,0.39 -0.8,0.35 -1.56,0.85 -2.2,1.39 -0.63,0.54 -1.16,1.07 -1.52,1.47 -0.36,0.41 -0.57,0.64 -0.57,0.64 l -0.3,0.34 c -0.03,0.03 -0.06,0.05 -0.09,0.08 l -2.16,52.77 c -6.98,0.16 -12.52,2.69 -12.52,5.76 0,1.84 1.99,3.49 5.08,4.54 -0.15,0.4 -0.25,0.81 -0.25,1.23 0,4.19 7.83,7.59 17.49,7.59 9.66,0 17.49,-3.42 17.49,-7.61 0,-2.57 -4.97,-4.86 -9.49,-6.23 z"
       id="path35138" />
  </g>
  <path
     style="fill:#242424;fill-opacity:1"
     d="m 48.802969,56.202754 -0.2,-0.2 c -0.1,-0.1 -0.4,-0.4 -0.5,-0.5 -0.2,-0.2 -0.4,-0.3 -0.7,-0.6 -0.3,-0.2 -0.6,-0.5 -1,-0.7 -0.4,-0.2 -0.8,-0.5 -1.2,-0.7 -0.4,-0.2 -0.9,-0.4 -1.4,-0.6 -0.5,-0.2 -1,-0.3 -1.5,-0.4 -0.5,-0.1 -1,-0.1 -1.6,-0.1 h 0.1 v 0 0 0 h -0.1 -0.2 -0.3 c -0.3,0 -0.3,0 -0.4,0 -0.2,0 -0.5,0.1 -0.7,0.1 -0.5,0.1 -1,0.2 -1.5,0.4 -0.5,0.2 -1,0.3 -1.4,0.6 -0.4,0.2 -0.8,0.4 -1.2,0.7 -0.7,0.5 -1.3,1 -1.7,1.3 -0.4,0.4 -0.6,0.6 -0.6,0.6 l -0.2,0.2 c -1.2,1.2 -3.2,1.2 -4.599998,0.2 -1,-0.8 -1.3,-2.2 -0.8,-3.2 l 0.1,-0.3 c 0.1,-0.2 0.2,-0.5 0.4,-0.8 0.4,-0.7 1.099998,-1.7 2.199998,-2.8 0.5,-0.5 1.2,-1.1 1.9,-1.6 0.7,-0.5 1.6,-1 2.5,-1.4 0.9,-0.4 2,-0.8 3,-1 0.5,-0.1 1.1,-0.2 1.7,-0.3 0.3,0 0.7,-0.1 0.8,-0.1 h 0.8 c 1.1,0 2.2,0.1 3.3,0.3 1.1,0.2 2.1,0.6 3,1 0.9,0.4 1.8,0.9 2.5,1.4 0.8,0.5 1.4,1 1.9,1.6 0.5,0.5 1,1 1.3,1.5 0.2,0.2 0.3,0.5 0.5,0.7 0.1,0.2 0.3,0.4 0.4,0.6 0.3,0.4 0.3,0.6 0.4,0.8 0.1,0.2 0.1,0.2 0.1,0.2 0.7,1.5 -0.1,3.2 -1.8,3.8 -0.9,0.5 -2.4,0.2 -3.3,-0.7 z"
     id="path35144" />
  <path
     style="fill:#242424;fill-opacity:1"
     d="m 95.712969,55.842754 c 0,0 -0.07,-0.07 -0.2,-0.2 -0.11,-0.11 -0.36,-0.39 -0.51,-0.5 -0.19,-0.16 -0.42,-0.35 -0.69,-0.57 -0.29,-0.22 -0.62,-0.46 -0.98,-0.71 -0.37,-0.23 -0.77,-0.47 -1.2,-0.68 -0.42,-0.23 -0.9,-0.39 -1.38,-0.57 -0.48,-0.17 -0.99,-0.26 -1.5,-0.37 -0.51,-0.08 -1.04,-0.12 -1.57,-0.12 0.3,0 0.08,0 0.14,0 h -0.01 -0.02 -0.04 -0.08 -0.16 l -0.31,0.01 c -0.26,0 -0.3,0.02 -0.4,0.03 -0.16,0 -0.45,0.05 -0.7,0.09 -0.51,0.11 -1.02,0.2 -1.5,0.37 -0.47,0.18 -0.95,0.34 -1.37,0.57 -0.43,0.22 -0.83,0.45 -1.2,0.68 -0.72,0.48 -1.31,0.96 -1.7,1.32 -0.4,0.36 -0.63,0.58 -0.63,0.58 l -0.25,0.25 c -1.21,1.17 -3.25,1.24 -4.57,0.17 -1.04,-0.85 -1.3,-2.16 -0.78,-3.25 0,0 0.05,-0.1 0.15,-0.3 0.1,-0.19 0.22,-0.49 0.44,-0.84 0.41,-0.71 1.09,-1.71 2.17,-2.76 0.54,-0.52 1.17,-1.07 1.92,-1.57 0.73,-0.52 1.58,-0.99 2.52,-1.4 0.94,-0.4 1.96,-0.75 3.04,-0.97 0.55,-0.1 1.06,-0.2 1.73,-0.26 0.31,-0.03 0.68,-0.06 0.84,-0.07 l 0.77,-0.03 c 1.13,0.02 2.25,0.14 3.34,0.35 1.08,0.22 2.1,0.57 3.04,0.97 0.93,0.41 1.79,0.88 2.52,1.4 0.75,0.5 1.37,1.04 1.91,1.57 0.54,0.52 0.97,1.04 1.33,1.51 0.17,0.24 0.330001,0.46 0.480001,0.67 0.14,0.23 0.28,0.44 0.39,0.63 0.27,0.42 0.29,0.58 0.39,0.77 0.07,0.16 0.11,0.25 0.11,0.25 0.67,1.49 -0.14,3.18 -1.810001,3.78 -1.31,0.47 -2.78,0.11 -3.67,-0.8 z"
     id="path35146" />
</svg>
