<?xml version="1.0" encoding="UTF-8" standalone="no"?>
<svg
   enable-background="new 0 0 128 128"
   viewBox="0 0 128 128"
   version="1.1"
   id="svg68573"
   sodipodi:docname="1f625.svg"
   inkscape:version="1.1.1 (3bf5ae0d25, 2021-09-20)"
   xmlns:inkscape="http://www.inkscape.org/namespaces/inkscape"
   xmlns:sodipodi="http://sodipodi.sourceforge.net/DTD/sodipodi-0.dtd"
   xmlns="http://www.w3.org/2000/svg"
   xmlns:svg="http://www.w3.org/2000/svg">
  <defs
     id="defs68577" />
  <sodipodi:namedview
     id="namedview68575"
     pagecolor="#ffffff"
     bordercolor="#666666"
     borderopacity="1.0"
     inkscape:pageshadow="2"
     inkscape:pageopacity="0.0"
     inkscape:pagecheckerboard="0"
     showgrid="false"
     inkscape:zoom="3.1328125"
     inkscape:cx="66.713217"
     inkscape:cy="67.830424"
     inkscape:window-width="1920"
     inkscape:window-height="991"
     inkscape:window-x="-9"
     inkscape:window-y="-9"
     inkscape:window-maximized="1"
     inkscape:current-layer="svg68573" />
  <linearGradient
     id="a"
     x1="64"
     x2="64"
     y1="107.99"
     y2="24.56"
     gradientTransform="matrix(1.0364002,0,0,-1.0364002,-2.2548016,132.4004)"
     gradientUnits="userSpaceOnUse">
    <stop
       stop-color="#F6A323"
       offset=".4379"
       id="stop68546" />
    <stop
       stop-color="#FAC42C"
       offset=".6371"
       id="stop68548" />
    <stop
       stop-color="#FDD931"
       offset=".8059"
       id="stop68550" />
    <stop
       stop-color="#FEE133"
       offset=".9168"
       id="stop68552" />
  </linearGradient>
  <path
     d="m 64.074813,118.9272 c -27.454242,0 -57.0020125,-17.18352 -57.0020125,-54.929213 0,-37.735332 29.5477705,-54.929212 57.0020125,-54.929212 15.214355,0 29.309398,5.036906 39.663037,14.18832 11.34858,10.001262 17.33898,24.096305 17.33898,40.740892 0,16.57204 -5.9904,30.635991 -17.33898,40.668343 -10.384731,9.19287 -24.46941,14.26087 -39.663037,14.26087 z"
     fill="url(#a)"
     id="path68555"
     style="fill:url(#a);stroke:#eb8f00;stroke-width:4.1456;stroke-miterlimit:4;stroke-dasharray:none;stroke-opacity:1" />
  <path
     d="m82.74 54.44c4.19 0 8 3.54 8 9.42s-3.81 9.42-8 9.42-8-3.54-8-9.42 3.81-9.42 8-9.42z"
     fill="#242424"
     id="path68559" />
  <path
     d="m45.2 54.44c-4.19 0-8 3.54-8 9.42s3.81 9.42 8 9.42 8-3.54 8-9.42-3.81-9.42-8-9.42z"
     fill="#242424"
     id="path68561" />
  <path
     d="m27.39 39.77c-2.2 0.39-2.31 3.59 0.09 3.7 4.9 0.12 10.21-1.66 14.32-5.45 1.5-1.29 2.81-2.89 3.72-4.49 1.21-2.2-1.59-3.71-2.99-2.11l-0.1 0.1c-4.03 4.49-9.54 7.37-15.04 8.25z"
     fill="#6D4C41"
     id="path68563"
     style="fill:#eb8f00;fill-opacity:1" />
  <path
     d="m86.12 31.52-0.1-0.1c-1.41-1.59-4.2-0.08-2.99 2.11 0.91 1.6 2.21 3.19 3.72 4.49 4.11 3.78 9.42 5.57 14.32 5.45 2.4-0.11 2.29-3.31 0.09-3.7-5.51-0.88-11.02-3.76-15.04-8.25z"
     fill="#6D4C41"
     id="path68565"
     style="fill:#eb8f00;fill-opacity:1" />
  <path
     d="m64 87.15c10.82 0 17.83 7.92 19.65 11.57 0.7 1.41 0.74 2.58 0.14 3.13-0.46 0.41-1.21 0.4-2.08 0.01-0.29-0.13-0.59-0.31-0.9-0.52-4.76-3.34-10.72-5.41-16.84-5.4-6.08 0.01-12.02 2.07-16.77 5.4-0.3 0.21-0.61 0.39-0.9 0.52-0.87 0.4-1.63 0.41-2.08-0.01-0.6-0.55-0.56-1.72 0.14-3.13 1.81-3.64 8.82-11.57 19.64-11.57z"
     fill="#242424"
     id="path68571" />
  <path
     style="fill:#5f7aff;fill-opacity:1;fill-rule:nonzero;stroke:#4864ed;stroke-width:4;stroke-miterlimit:4;stroke-dasharray:none;stroke-opacity:1"
     d="m 23.974479,104.94155 c -6.5,0 -11.5,-6.299986 -11.5,-11.699986 0,-3.800005 1.7,-8.200005 4.1,-14.300005 0.3,-0.9 0.7,-1.8 1.1,-2.8 1.03,-2.96 2.26,-5.84 3.69,-8.63 0.73,-1.3 2.37,-1.76 3.68,-1.03 0.43,0.24 0.79,0.6 1.03,1.03 1.4,2.66 2.4,5.51 3.9,8.82 4.2,9.4 5.4,13.2 5.4,17.000005 0.1,5.31 -5,11.609986 -11.4,11.609986 z"
     id="path1543"
     inkscape:transform-center-x="-6.5586245"
     inkscape:transform-center-y="3.9293517" />
</svg>
