<?xml version="1.0" encoding="UTF-8" standalone="no"?>
<svg
   enable-background="new 0 0 128 128"
   viewBox="0 0 128 128"
   version="1.1"
   id="svg25"
   sodipodi:docname="1f627.svg"
   inkscape:version="1.1.1 (3bf5ae0d25, 2021-09-20)"
   xmlns:inkscape="http://www.inkscape.org/namespaces/inkscape"
   xmlns:sodipodi="http://sodipodi.sourceforge.net/DTD/sodipodi-0.dtd"
   xmlns="http://www.w3.org/2000/svg"
   xmlns:svg="http://www.w3.org/2000/svg">
  <defs
     id="defs29" />
  <sodipodi:namedview
     id="namedview27"
     pagecolor="#ffffff"
     bordercolor="#666666"
     borderopacity="1.0"
     inkscape:pageshadow="2"
     inkscape:pageopacity="0.0"
     inkscape:pagecheckerboard="0"
     showgrid="false"
     inkscape:zoom="4.4304659"
     inkscape:cx="38.822102"
     inkscape:cy="75.27425"
     inkscape:window-width="1920"
     inkscape:window-height="991"
     inkscape:window-x="-9"
     inkscape:window-y="-9"
     inkscape:window-maximized="1"
     inkscape:current-layer="svg25" />
  <linearGradient
     id="a"
     x1="64"
     x2="64"
     y1="110.28"
     y2="22.3"
     gradientTransform="matrix(1 0 0 -1 0 130)"
     gradientUnits="userSpaceOnUse">
    <stop
       stop-color="#FEE133"
       offset=".5"
       id="stop2" />
    <stop
       stop-color="#FEDE32"
       offset=".6118"
       id="stop4" />
    <stop
       stop-color="#FCD32F"
       offset=".7076"
       id="stop6" />
    <stop
       stop-color="#FAC12B"
       offset=".7975"
       id="stop8" />
    <stop
       stop-color="#F7A924"
       offset=".8834"
       id="stop10" />
    <stop
       stop-color="#F6A323"
       offset=".9"
       id="stop12" />
  </linearGradient>
  <path
     d="M64,119.89C36.07,119.89,6,102.4,6,64S36.07,8.11,64,8.11c15.48,0,29.81,5.12,40.36,14.43 C115.9,32.72,122,47.06,122,64c0,16.86-6.1,31.17-17.64,41.39C93.78,114.74,79.45,119.89,64,119.89z"
     fill="url(#a)"
     id="path15"
     style="stroke-width:4;stroke-miterlimit:4;stroke-dasharray:none;stroke:#eb8f00;stroke-opacity:1" />
  <path
     id="mouth"
     style="fill:#242424;fill-opacity:1;stroke:none;stroke-opacity:1"
     d="m 52.518813,102.42066 c -3.35,0 -6.45,-1.74 -8.2,-4.600005 -1.68,-2.77 -1.53,-6.29 0.4,-8.9 4.3,-6 10.9,-9.2 19.1,-9.2 8.2,0 14.8,3.2 19.1,9.2 1.93,2.61 2.08,6.13 0.4,8.9 -1.75,2.860005 -4.85,4.600005 -8.2,4.600005 -1.05,-0.01 -2.1,-0.18 -3.1,-0.5 -5.33,-1.73 -11.07,-1.73 -16.4,0 -1,0.31 -2.05,0.48 -3.1,0.5 z" />
  <g
     id="eyes"
     style="fill:#eb8f00;fill-opacity:1;stroke:none;stroke-opacity:1"
     transform="translate(-0.18118749,-0.5793448)">
    <g
       id="eyebrows"
       style="fill:#eb8f00;fill-opacity:1;stroke:none;stroke-opacity:1">
      <path
         style="fill:#eb8f00;fill-opacity:1;stroke:none;stroke-opacity:1"
         d="m 83.4,31.31 h -0.1 c -1.01,0.08 -1.9,-0.67 -1.99,-1.68 -0.08,-1.01 0.67,-1.9 1.68,-1.99 1.93,-0.29 3.9,-0.27 5.83,0.05 5.23,0.8 9.96,3.56 13.22,7.73 1.49,2 -1.14,3.9 -2.79,2.4 -4.4,-3.89 -9.98,-6.18 -15.85,-6.51 z"
         id="path1157" />
      <path
         style="fill:#eb8f00;fill-opacity:1;stroke:none;stroke-opacity:1"
         d="M 44.85,31.31 H 45 c 1.02,0.02 1.85,-0.79 1.87,-1.81 0.02,-0.92 -0.66,-1.72 -1.57,-1.85 -1.93,-0.29 -3.9,-0.27 -5.83,0.05 -5.24,0.79 -9.97,3.56 -13.23,7.73 -1.48,2 1.15,3.9 2.79,2.4 4.4,-3.88 9.97,-6.18 15.82,-6.52 z"
         id="path1159" />
    </g>
  </g>
  <path
     style="fill:#242424;fill-opacity:1;stroke:none;stroke-opacity:1"
     d="m 43.818813,49.360655 v 0 c -4.19,0 -8,3.54 -8,9.42 0,5.88 3.81,9.41 8,9.41 v 0 c 4.2,0 8,-3.54 8,-9.41 0,-5.87 -3.76,-9.42 -8,-9.42 z"
     id="path1164" />
  <path
     style="fill:#242424;fill-opacity:1;stroke:none;stroke-opacity:1"
     d="m 82.218813,49.360655 v 0 c -4.19,0 -8,3.54 -8,9.42 0,5.88 3.81,9.41 8,9.41 v 0 c 4.19,0 8,-3.54 8,-9.41 0,-5.87 -3.81,-9.42 -8,-9.42 z"
     id="path1169" />
</svg>
