<?xml version="1.0" encoding="UTF-8" standalone="no"?>
<svg
   enable-background="new 0 0 128 128"
   viewBox="0 0 128 128"
   version="1.1"
   id="svg25"
   sodipodi:docname="1f629.svg"
   inkscape:version="1.1.1 (3bf5ae0d25, 2021-09-20)"
   xmlns:inkscape="http://www.inkscape.org/namespaces/inkscape"
   xmlns:sodipodi="http://sodipodi.sourceforge.net/DTD/sodipodi-0.dtd"
   xmlns="http://www.w3.org/2000/svg"
   xmlns:svg="http://www.w3.org/2000/svg">
  <defs
     id="defs29">
    <linearGradient
       id="effect_1_"
       gradientUnits="userSpaceOnUse"
       x1="63.599998"
       y1="1752.8"
       x2="63.599998"
       y2="1641"
       gradientTransform="translate(0.4,-1632.91)">
      <stop
         offset="0.39"
         style="stop-color:#40C0E7;stop-opacity:0"
         id="stop5244" />
      <stop
         offset="1"
         style="stop-color:#5F7AFF"
         id="stop5246" />
    </linearGradient>
    <linearGradient
       id="linearGradient5514"
       x1="64"
       x2="64"
       y1="110.28"
       y2="22.299999"
       gradientTransform="matrix(1,0,0,-1,0,130)"
       gradientUnits="userSpaceOnUse">
      <stop
         stop-color="#FEE133"
         offset=".5"
         id="stop2-7" />
      <stop
         stop-color="#FEDE32"
         offset=".6118"
         id="stop4-9" />
      <stop
         stop-color="#FCD32F"
         offset=".7076"
         id="stop6-7" />
      <stop
         stop-color="#FAC12B"
         offset=".7975"
         id="stop8-1" />
      <stop
         stop-color="#F7A924"
         offset=".8834"
         id="stop10-9" />
      <stop
         stop-color="#F6A323"
         offset=".9"
         id="stop12-6" />
    </linearGradient>
  </defs>
  <sodipodi:namedview
     id="namedview27"
     pagecolor="#ffffff"
     bordercolor="#666666"
     borderopacity="1.0"
     inkscape:pageshadow="2"
     inkscape:pageopacity="0.0"
     inkscape:pagecheckerboard="0"
     showgrid="false"
     inkscape:zoom="4.4304659"
     inkscape:cx="-1.1285495"
     inkscape:cy="90.171104"
     inkscape:window-width="1920"
     inkscape:window-height="991"
     inkscape:window-x="-9"
     inkscape:window-y="-9"
     inkscape:window-maximized="1"
     inkscape:current-layer="svg25" />
  <linearGradient
     id="a"
     x1="64"
     x2="64"
     y1="110.28"
     y2="22.3"
     gradientTransform="matrix(1,0,0,-1,-9.9999998e-7,130)"
     gradientUnits="userSpaceOnUse">
    <stop
       stop-color="#FEE133"
       offset=".5"
       id="stop2" />
    <stop
       stop-color="#FEDE32"
       offset=".6118"
       id="stop4" />
    <stop
       stop-color="#FCD32F"
       offset=".7076"
       id="stop6" />
    <stop
       stop-color="#FAC12B"
       offset=".7975"
       id="stop8" />
    <stop
       stop-color="#F7A924"
       offset=".8834"
       id="stop10" />
    <stop
       stop-color="#F6A323"
       offset=".9"
       id="stop12" />
  </linearGradient>
  <path
     d="M 64,119.89 C 36.07,119.89 5.999999,102.4 5.999999,63.999997 5.999999,25.599997 36.07,8.1099973 64,8.1099973 c 15.48,0 29.81,5.1199997 40.36,14.4299997 11.54,10.18 17.64,24.52 17.64,41.46 0,16.86 -6.1,31.17 -17.64,41.390003 -10.58,9.35 -24.91,14.5 -40.36,14.5 z"
     fill="url(#a)"
     id="path15"
     style="fill:url(#a);stroke:#eb8f00;stroke-width:4;stroke-miterlimit:4;stroke-dasharray:none;stroke-opacity:1" />
  <g
     id="weary-face"
     transform="translate(-0.12409991,3.2656538)"
     style="fill:#242424;fill-opacity:1">
    <g
       id="eyes"
       style="fill:#242424;fill-opacity:1">
      <g
         id="peepers"
         style="fill:#242424;fill-opacity:1">
        <path
           style="fill:#242424;fill-opacity:1"
           d="m 35.9,51.7 c 0.34,0.01 0.67,0.04 1,0.1 0.17,-0.02 0.35,0.02 0.5,0.1 h 1.4 c 0.4,0.02 0.81,-0.02 1.2,-0.1 0.4,0 0.8,-0.2 1.3,-0.2 0.42,-0.07 0.82,-0.21 1.2,-0.4 0.81,-0.24 1.56,-0.65 2.2,-1.2 0.32,-0.24 0.63,-0.51 0.9,-0.8 0.2,-0.3 0.5,-0.6 0.7,-0.9 l 0.6,-0.9 c 0.17,-0.28 0.31,-0.58 0.4,-0.9 0.1,-0.3 0.2,-0.5 0.3,-0.8 0.09,-0.26 0.23,-0.49 0.4,-0.7 l 0.4,-0.8 c 0.86,-1.87 3.06,-2.69 4.93,-1.83 0.02,0.01 0.05,0.02 0.07,0.03 1.18,0.58 2,1.7 2.2,3 0.01,0.43 0.04,0.87 0.1,1.3 v 1.5 c -0.06,0.67 -0.16,1.34 -0.3,2 -0.19,0.79 -0.46,1.56 -0.8,2.3 -0.56,1.37 -1.38,2.63 -2.4,3.7 l -0.5,0.6 -0.7,0.4 c -0.82,0.69 -1.69,1.32 -2.6,1.9 -0.93,0.48 -1.9,0.89 -2.9,1.2 l -0.7,0.2 -0.7,0.1 c -0.46,0.11 -0.93,0.18 -1.4,0.2 -0.9,0.1 -1.8,0.1 -2.7,0 -0.77,-0.04 -1.54,-0.14 -2.3,-0.3 -0.68,-0.14 -1.35,-0.34 -2,-0.6 -0.27,-0.08 -0.54,-0.18 -0.8,-0.3 -0.2,-0.1 -0.3,-0.2 -0.5,-0.3 -0.31,-0.15 -0.61,-0.32 -0.9,-0.5 -1.79,-1.14 -2.32,-3.5 -1.2,-5.3 0.79,-1.2 2.16,-1.89 3.6,-1.8 z"
           id="path9781" />
      </g>
    </g>
  </g>
  <path
     id="path9786"
     style="fill:#242424;stroke:#eb8f00;stroke-width:4;stroke-miterlimit:4;stroke-dasharray:none;stroke-opacity:1;fill-opacity:1"
     d="m 63.875,70.515625 c -9.88,0 -20.298359,2.47 -26.068359,12 -1.607487,2.081011 -0.876943,1.381392 0,0 -2.93,4.77 -4.49125,10.249609 -4.53125,15.849609 -0.05,3.519996 2.76125,6.410936 6.28125,6.460936 1.01,0.01 2.019921,-0.21015 2.919921,-0.66015 6.710001,-3.14 13.998438,-4.840004 21.398438,-5.000004 7.41,0.14 14.700391,1.850004 21.400391,5.000004 3.15,1.56 6.971015,0.27914 8.541015,-2.88086 0.45,-0.91 0.680157,-1.909926 0.660156,-2.919926 -0.06,-5.69 -1.751328,-11.24 -4.861328,-16 -0.01364,-0.0041 -0.02738,-0.0076 -0.04102,-0.01172 C 83.527368,72.906378 72.944689,70.515625 63.875,70.515625 Z"
     sodipodi:nodetypes="scccccccccccs" />
  <path
     style="fill:#ffffff"
     d="m 89.616641,82.415625 c -6.04,-9.5 -16.65,-11.9 -25.74,-11.9 -9.88,0 -20.3,2.47 -26.07,12 8.45,-2.55 17.24,-3.8 26.07,-3.7 8.71,-0.11 17.39,1.1 25.74,3.6 z"
     id="path9788-3" />
  <path
     style="fill:#eb8f00;fill-opacity:1"
     d="m 36.5959,37.745654 c -2.07,0.86 -1.48,4 0.89,3.59 5.19,-1.07 9.77,-4.08 12.79,-8.43 1.17,-1.57 2.07,-3.32 2.66,-5.18 0.39,-0.93 -0.05,-2.01 -0.99,-2.4 -0.94,-0.39 -2.01,0.05 -2.4,0.99 v 0 l -0.08,0.12 c -2.88,5.12 -7.42,9.1 -12.87,11.31 z"
     id="path9796" />
  <path
     style="fill:#242424;fill-opacity:1"
     d="m 91.9359,54.965654 c -0.34,0.01 -0.67,0.04 -1,0.1 -0.17,-0.02 -0.35,0.02 -0.5,0.1 h -1.4 c -0.4,0.02 -0.81,-0.02 -1.2,-0.1 -0.4,0 -0.8,-0.2 -1.3,-0.2 -0.42,-0.07 -0.82,-0.21 -1.2,-0.4 -0.81,-0.24 -1.56,-0.65 -2.2,-1.2 -0.32,-0.24 -0.63,-0.51 -0.9,-0.8 -0.2,-0.3 -0.5,-0.6 -0.7,-0.9 l -0.6,-0.9 c -0.17,-0.28 -0.31,-0.58 -0.4,-0.9 -0.1,-0.3 -0.2,-0.5 -0.3,-0.8 -0.08,-0.25 -0.2,-0.49 -0.36,-0.7 l -0.4,-0.8 c -0.86,-1.87 -3.06,-2.69 -4.93,-1.83 -0.02,0.01 -0.05,0.02 -0.07,0.03 -1.18,0.58 -2,1.7 -2.2,3 -0.01,0.43 -0.04,0.87 -0.1,1.3 v 1.5 c 0.06,0.67 0.16,1.34 0.3,2 0.19,0.79 0.46,1.56 0.8,2.3 0.56,1.37 1.38,2.63 2.4,3.7 l 0.5,0.6 0.7,0.4 c 0.82,0.69 1.69,1.32 2.6,1.9 0.93,0.48 1.9,0.89 2.9,1.2 l 0.7,0.2 0.7,0.1 c 0.46,0.11 0.93,0.18 1.4,0.2 0.9,0.1 1.8,0.1 2.7,0 0.77,-0.04 1.54,-0.14 2.3,-0.3 0.68,-0.14 1.35,-0.34 2,-0.6 0.27,-0.08 0.54,-0.18 0.8,-0.3 0.2,-0.1 0.3,-0.2 0.5,-0.3 0.31,-0.15 0.61,-0.32 0.9,-0.5 1.79,-1.14 2.32,-3.5 1.2,-5.3 -0.8,-1.22 -2.19,-1.91 -3.64,-1.8 z"
     id="path9798" />
  <path
     style="fill:#eb8f00;fill-opacity:1"
     d="m 91.1159,37.745654 c 2.07,0.86 1.48,4 -0.89,3.59 -5.19,-1.07 -9.77,-4.08 -12.79,-8.43 -1.17,-1.56 -2.07,-3.32 -2.65,-5.18 -0.33,-0.95 0.17,-2 1.13,-2.33 0.87,-0.3 1.83,0.09 2.24,0.92 l 0.08,0.12 c 2.89,5.12 7.43,9.1 12.88,11.31 z"
     id="path9800" />
  <path
     id="path9786-5"
     style="fill:none;stroke:#eb8f00;stroke-width:4;stroke-miterlimit:4;stroke-dasharray:none;stroke-opacity:1"
     d="m 63.875,70.515625 c -9.88,0 -20.298359,2.47 -26.068359,12 -1.607487,2.081011 -0.876943,1.381392 0,0 -2.93,4.77 -4.49125,10.249609 -4.53125,15.849611 -0.05,3.519994 2.76125,6.410934 6.28125,6.460934 1.01,0.01 2.019921,-0.21015 2.919921,-0.66015 6.710001,-3.14 13.998438,-4.840004 21.398438,-5.000004 7.41,0.14 14.700391,1.850004 21.400391,5.000004 3.15,1.56 6.97101,0.27914 8.54101,-2.88086 0.45,-0.91 0.68016,-1.909924 0.66016,-2.919924 -0.06,-5.690002 -1.75133,-11.240002 -4.86133,-16.000002 -0.0136,-0.0041 -0.0274,-0.0076 -0.041,-0.01172 C 83.527368,72.906378 72.944689,70.515625 63.875,70.515625 Z"
     sodipodi:nodetypes="scccccccccccs" />
</svg>
