<?xml version="1.0" encoding="UTF-8" standalone="no"?>
<svg
   enable-background="new 0 0 128 128"
   viewBox="0 0 128 128"
   version="1.1"
   id="svg25"
   sodipodi:docname="1f62e.svg"
   inkscape:version="1.1.1 (3bf5ae0d25, 2021-09-20)"
   xmlns:inkscape="http://www.inkscape.org/namespaces/inkscape"
   xmlns:sodipodi="http://sodipodi.sourceforge.net/DTD/sodipodi-0.dtd"
   xmlns="http://www.w3.org/2000/svg"
   xmlns:svg="http://www.w3.org/2000/svg">
  <defs
     id="defs29">
    <linearGradient
       id="effect_1_"
       gradientUnits="userSpaceOnUse"
       x1="63.599998"
       y1="1752.8"
       x2="63.599998"
       y2="1641"
       gradientTransform="translate(0.4,-1632.91)">
      <stop
         offset="0.39"
         style="stop-color:#40C0E7;stop-opacity:0"
         id="stop5244" />
      <stop
         offset="1"
         style="stop-color:#5F7AFF"
         id="stop5246" />
    </linearGradient>
    <linearGradient
       id="linearGradient5514"
       x1="64"
       x2="64"
       y1="110.28"
       y2="22.299999"
       gradientTransform="matrix(1,0,0,-1,0,130)"
       gradientUnits="userSpaceOnUse">
      <stop
         stop-color="#FEE133"
         offset=".5"
         id="stop2-7" />
      <stop
         stop-color="#FEDE32"
         offset=".6118"
         id="stop4-9" />
      <stop
         stop-color="#FCD32F"
         offset=".7076"
         id="stop6-7" />
      <stop
         stop-color="#FAC12B"
         offset=".7975"
         id="stop8-1" />
      <stop
         stop-color="#F7A924"
         offset=".8834"
         id="stop10-9" />
      <stop
         stop-color="#F6A323"
         offset=".9"
         id="stop12-6" />
    </linearGradient>
  </defs>
  <sodipodi:namedview
     id="namedview27"
     pagecolor="#ffffff"
     bordercolor="#666666"
     borderopacity="1.0"
     inkscape:pageshadow="2"
     inkscape:pageopacity="0.0"
     inkscape:pagecheckerboard="0"
     showgrid="false"
     inkscape:zoom="4.4304659"
     inkscape:cx="34.082194"
     inkscape:cy="93.105332"
     inkscape:window-width="1920"
     inkscape:window-height="991"
     inkscape:window-x="-9"
     inkscape:window-y="-9"
     inkscape:window-maximized="1"
     inkscape:current-layer="svg25" />
  <linearGradient
     id="a"
     x1="64"
     x2="64"
     y1="110.28"
     y2="22.3"
     gradientTransform="matrix(1,0,0,-1,-9.9999998e-7,130)"
     gradientUnits="userSpaceOnUse">
    <stop
       stop-color="#FEE133"
       offset=".5"
       id="stop2" />
    <stop
       stop-color="#FEDE32"
       offset=".6118"
       id="stop4" />
    <stop
       stop-color="#FCD32F"
       offset=".7076"
       id="stop6" />
    <stop
       stop-color="#FAC12B"
       offset=".7975"
       id="stop8" />
    <stop
       stop-color="#F7A924"
       offset=".8834"
       id="stop10" />
    <stop
       stop-color="#F6A323"
       offset=".9"
       id="stop12" />
  </linearGradient>
  <path
     d="M 64,119.89 C 36.07,119.89 5.999999,102.4 5.999999,63.999997 5.999999,25.599997 36.07,8.1099973 64,8.1099973 c 15.48,0 29.81,5.1199997 40.36,14.4299997 11.54,10.18 17.64,24.52 17.64,41.46 0,16.86 -6.1,31.17 -17.64,41.390003 -10.58,9.35 -24.91,14.5 -40.36,14.5 z"
     fill="url(#a)"
     id="path15"
     style="fill:url(#a);stroke:#eb8f00;stroke-width:4;stroke-miterlimit:4;stroke-dasharray:none;stroke-opacity:1" />
  <g
     id="facial_expressions"
     transform="translate(0.12802618,1.9340167)"
     style="fill:#242424;fill-opacity:1;stroke:none;stroke-opacity:1">
    <g
       id="face-with-open-mouth"
       style="fill:#242424;fill-opacity:1;stroke:none;stroke-opacity:1">
      <path
         id="mouth"
         style="fill:#242424;fill-opacity:1;stroke:none;stroke-opacity:1"
         d="m 84,87.92 c 0,8.16 -9,13 -20,13 -11,0 -20,-4.8 -20,-13 0,-8.2 9,-17 20,-17 11,0 20,8.83 20,17 z" />
    </g>
    <path
       style="fill:#242424;fill-opacity:1;stroke:none;stroke-opacity:1"
       d="m 44,40.94 v 0 c -4.19,0 -8,3.54 -8,9.42 0,5.88 3.81,9.41 8,9.41 v 0 c 4.2,0 8,-3.54 8,-9.41 0,-5.87 -3.76,-9.42 -8,-9.42 z"
       id="path41960" />
    <g
       id="peepers"
       style="fill:#242424;fill-opacity:1;stroke:none;stroke-opacity:1">
      <path
         style="fill:#242424;fill-opacity:1;stroke:none;stroke-opacity:1"
         d="m 43.65,44.87 v 0 c -1.42,-0.68 -3.13,-0.08 -3.82,1.34 -0.53,1.11 -0.29,2.44 0.6,3.3 v 0 c 1.42,0.68 3.13,0.08 3.82,-1.34 0.53,-1.11 0.29,-2.44 -0.6,-3.3 z"
         id="path41962" />
    </g>
    <path
       style="fill:#242424;fill-opacity:1;stroke:none;stroke-opacity:1"
       d="m 82.4,40.94 v 0 c -4.19,0 -8,3.54 -8,9.42 0,5.88 3.81,9.41 8,9.41 v 0 c 4.19,0 8,-3.54 8,-9.41 0,-5.87 -3.81,-9.42 -8,-9.42 z"
       id="path41965" />
    <g
       id="peepers-2"
       style="fill:#242424;fill-opacity:1;stroke:none;stroke-opacity:1">
      <path
         style="fill:#242424;fill-opacity:1;stroke:none;stroke-opacity:1"
         d="m 82,44.87 v 0 c -1.42,-0.68 -3.13,-0.08 -3.82,1.34 -0.53,1.11 -0.29,2.44 0.6,3.3 v 0 c 1.42,0.68 3.13,0.08 3.82,-1.34 0.53,-1.11 0.29,-2.44 -0.6,-3.3 z"
         id="path41967" />
    </g>
  </g>
</svg>
