<?xml version="1.0" encoding="UTF-8" standalone="no"?>
<svg
   enable-background="new 0 0 128 128"
   viewBox="0 0 128 128"
   version="1.1"
   id="svg25"
   sodipodi:docname="1f632.svg"
   inkscape:version="1.1.1 (3bf5ae0d25, 2021-09-20)"
   xmlns:inkscape="http://www.inkscape.org/namespaces/inkscape"
   xmlns:sodipodi="http://sodipodi.sourceforge.net/DTD/sodipodi-0.dtd"
   xmlns="http://www.w3.org/2000/svg"
   xmlns:svg="http://www.w3.org/2000/svg">
  <defs
     id="defs29">
    <linearGradient
       id="effect_1_"
       gradientUnits="userSpaceOnUse"
       x1="63.599998"
       y1="1752.8"
       x2="63.599998"
       y2="1641"
       gradientTransform="translate(0.4,-1632.91)">
      <stop
         offset="0.39"
         style="stop-color:#40C0E7;stop-opacity:0"
         id="stop5244" />
      <stop
         offset="1"
         style="stop-color:#5F7AFF"
         id="stop5246" />
    </linearGradient>
    <linearGradient
       id="linearGradient5514"
       x1="64"
       x2="64"
       y1="110.28"
       y2="22.299999"
       gradientTransform="matrix(1,0,0,-1,0,130)"
       gradientUnits="userSpaceOnUse">
      <stop
         stop-color="#FEE133"
         offset=".5"
         id="stop2-7" />
      <stop
         stop-color="#FEDE32"
         offset=".6118"
         id="stop4-9" />
      <stop
         stop-color="#FCD32F"
         offset=".7076"
         id="stop6-7" />
      <stop
         stop-color="#FAC12B"
         offset=".7975"
         id="stop8-1" />
      <stop
         stop-color="#F7A924"
         offset=".8834"
         id="stop10-9" />
      <stop
         stop-color="#F6A323"
         offset=".9"
         id="stop12-6" />
    </linearGradient>
  </defs>
  <sodipodi:namedview
     id="namedview27"
     pagecolor="#ffffff"
     bordercolor="#666666"
     borderopacity="1.0"
     inkscape:pageshadow="2"
     inkscape:pageopacity="0.0"
     inkscape:pagecheckerboard="0"
     showgrid="false"
     inkscape:zoom="4.4304659"
     inkscape:cx="94.572446"
     inkscape:cy="93.105332"
     inkscape:window-width="1920"
     inkscape:window-height="991"
     inkscape:window-x="-9"
     inkscape:window-y="-9"
     inkscape:window-maximized="1"
     inkscape:current-layer="svg25" />
  <linearGradient
     id="a"
     x1="64"
     x2="64"
     y1="110.28"
     y2="22.3"
     gradientTransform="matrix(1,0,0,-1,-9.9999998e-7,130)"
     gradientUnits="userSpaceOnUse">
    <stop
       stop-color="#FEE133"
       offset=".5"
       id="stop2" />
    <stop
       stop-color="#FEDE32"
       offset=".6118"
       id="stop4" />
    <stop
       stop-color="#FCD32F"
       offset=".7076"
       id="stop6" />
    <stop
       stop-color="#FAC12B"
       offset=".7975"
       id="stop8" />
    <stop
       stop-color="#F7A924"
       offset=".8834"
       id="stop10" />
    <stop
       stop-color="#F6A323"
       offset=".9"
       id="stop12" />
  </linearGradient>
  <path
     d="M 64,119.89 C 36.07,119.89 5.999999,102.4 5.999999,63.999997 5.999999,25.599997 36.07,8.1099973 64,8.1099973 c 15.48,0 29.81,5.1199997 40.36,14.4299997 11.54,10.18 17.64,24.52 17.64,41.46 0,16.86 -6.1,31.17 -17.64,41.390003 -10.58,9.35 -24.91,14.5 -40.36,14.5 z"
     fill="url(#a)"
     id="path15"
     style="fill:url(#a);stroke:#eb8f00;stroke-width:4;stroke-miterlimit:4;stroke-dasharray:none;stroke-opacity:1" />
  <path
     id="path67062"
     style="fill:#242424;fill-opacity:1;stroke:#eb8f00;stroke-opacity:1;stroke-width:4;stroke-miterlimit:4;stroke-dasharray:none"
     d="M 63.554688 74.017578 C 56.924687 73.977578 51.524609 79.297734 51.474609 85.927734 L 51.474609 86.697266 L 51.474609 98.498047 C 51.474609 105.12805 56.844609 110.49805 63.474609 110.49805 C 70.104609 110.49805 75.474609 105.12805 75.474609 98.498047 L 75.474609 86.697266 L 75.474609 86.097656 C 75.474684 86.087825 75.474559 86.078185 75.474609 86.068359 C 75.508583 79.451813 70.174856 74.057519 63.554688 74.017578 z " />
  <path
     style="fill:#ffffff"
     d="m 63.992917,86.692656 c 3.81,0.01 7.61,-0.19 11.399996,-0.6 0.05,-6.63 -5.289996,-12.04 -11.919996,-12.08 -6.63,-0.04 -12.03,5.28 -12.08,11.91 4.18,0.52 8.39,0.78 12.6,0.77 z"
     id="path67062-7" />
  <g
     id="eyes"
     transform="translate(-0.5255189,1.0976369)"
     style="fill-opacity:1;fill:#242424">
    <g
       id="peepers"
       style="fill-opacity:1;fill:#242424">
      <path
         style="fill:#242424;fill-opacity:1"
         d="m 83.7,40.6 c 3.8,0 7.3,4.4 7.3,11.8 0,7.4 -3.5,11.8 -7.3,11.8 -3.8,0 -7.3,-4.4 -7.3,-11.8 0,-7.4 3.4,-11.8 7.3,-11.8 z"
         id="path67067" />
      <path
         style="fill:#242424;fill-opacity:1"
         d="m 44.3,40.6 c -4.1,0 -7.7,4.4 -7.7,11.8 0,7.4 3.7,11.8 7.7,11.8 4,0 7.7,-4.4 7.7,-11.8 C 52,45 48.3,40.6 44.3,40.6 Z"
         id="path67069" />
    </g>
    <g
       id="eyebrows-8"
       style="fill-opacity:1;fill:#242424">
      <path
         style="fill:#242424;fill-opacity:1"
         d="m 45.6,28.9 v 0 c 2.3,0.2 3.2,-2.9 0.8,-3.6 -1.89,-0.51 -3.85,-0.71 -5.8,-0.6 -5.29,0.2 -10.3,2.42 -14,6.2 -1.7,1.8 0.7,4 2.5,2.7 4.82,-3.37 10.63,-5.03 16.5,-4.7 z"
         id="path67072" />
      <path
         style="fill:#242424;fill-opacity:1"
         d="m 82.2,28.9 v 0 c 5.9,-0.34 11.75,1.31 16.6,4.7 1.8,1.3 4.2,-0.9 2.5,-2.7 -3.71,-3.76 -8.72,-5.98 -14,-6.2 -1.95,-0.11 -3.91,0.09 -5.8,0.6 -0.98,0.28 -1.55,1.29 -1.27,2.27 0.24,0.87 1.08,1.43 1.97,1.33"
         id="path67074" />
    </g>
  </g>
  <path
     id="path67062-4"
     style="fill:none;fill-opacity:1;stroke:#eb8f00;stroke-width:4;stroke-miterlimit:4;stroke-dasharray:none;stroke-opacity:1"
     d="m 63.554688,74.017578 c -6.630001,-0.04 -12.030079,5.280156 -12.080079,11.910156 v 0.769532 11.800782 c 0,6.630002 5.37,12.000002 12,12.000002 6.63,0 12,-5.37 12,-12.000002 v -11.800782 -0.59961 c 7.5e-5,-0.0098 -5e-5,-0.01947 0,-0.0293 0.03397,-6.616546 -5.299753,-12.01084 -11.919921,-12.050781 z" />
</svg>
