<?xml version="1.0" encoding="UTF-8" standalone="no"?>
<svg
   enable-background="new 0 0 128 128"
   viewBox="0 0 128 128"
   version="1.1"
   id="svg24779"
   sodipodi:docname="1f637.svg"
   inkscape:version="1.1.1 (3bf5ae0d25, 2021-09-20)"
   xmlns:inkscape="http://www.inkscape.org/namespaces/inkscape"
   xmlns:sodipodi="http://sodipodi.sourceforge.net/DTD/sodipodi-0.dtd"
   xmlns="http://www.w3.org/2000/svg"
   xmlns:svg="http://www.w3.org/2000/svg">
  <defs
     id="defs24783" />
  <sodipodi:namedview
     id="namedview24781"
     pagecolor="#ffffff"
     bordercolor="#666666"
     borderopacity="1.0"
     inkscape:pageshadow="2"
     inkscape:pageopacity="0.0"
     inkscape:pagecheckerboard="0"
     showgrid="false"
     inkscape:zoom="6.265625"
     inkscape:cx="64"
     inkscape:cy="64.0798"
     inkscape:window-width="1920"
     inkscape:window-height="991"
     inkscape:window-x="-9"
     inkscape:window-y="-9"
     inkscape:window-maximized="1"
     inkscape:current-layer="svg24779" />
  <symbol
     viewBox="-64.5 -64.5 129 129"
     id="symbol24756">
    <g
       fill="none"
       stroke="#4285F4"
       stroke-miterlimit="10"
       id="g24754">
      <rect
         x="-64"
         y="-64"
         width="128"
         height="128"
         id="rect24738" />
      <path
         d="M36.95,37.82C27.32,46.32,14.2,51,0,51 c-14.27,0-27.39-4.62-36.96-13.01C-47.45,28.79-53,15.65-53,0c0-15.58,5.55-28.69,16.04-37.92C-27.36-46.35-14.24-51,0-51 c14.17,0,27.29,4.71,36.95,13.25C47.45-28.45,53-15.4,53,0C53,15.47,47.45,28.55,36.95,37.82z"
         id="path24740" />
      <path
         d="m0 55c-29.59 0-57-19.01-57-55 0-35.8 27.41-55 57-55s57 19.69 57 55c0 35.51-27.41 55-57 55z"
         id="path24742" />
      <path
         d="M0-43c-12.29,0-23.54,3.94-31.68,11.09 C-40.39-24.25-45-13.21-45,0c0,29.7,22.6,43,45,43c21.67,0,45-13.46,45-43S21.67-43,0-43L0-43z"
         id="path24744" />
      <line
         x1="-.01"
         x2="-.01"
         y1="51"
         y2="-51"
         id="line24746" />
      <line
         x1="-16"
         x2="-16"
         y1="48.95"
         y2="-48.93"
         id="line24748" />
      <line
         x1="15.99"
         x2="15.99"
         y1="48.91"
         y2="-48.93"
         id="line24750" />
      <line
         x1="53"
         x2="-53"
         y1=".08"
         y2=".08"
         id="line24752" />
    </g>
  </symbol>
  <linearGradient
     id="a"
     x1="64"
     x2="64"
     y1="19.717"
     y2="107.7"
     gradientUnits="userSpaceOnUse">
    <stop
       stop-color="#FEE133"
       offset=".5"
       id="stop24758" />
    <stop
       stop-color="#FEDE32"
       offset=".6118"
       id="stop24760" />
    <stop
       stop-color="#FCD32F"
       offset=".7076"
       id="stop24762" />
    <stop
       stop-color="#FAC12B"
       offset=".7975"
       id="stop24764" />
    <stop
       stop-color="#F7A924"
       offset=".8834"
       id="stop24766" />
    <stop
       stop-color="#F6A323"
       offset=".9"
       id="stop24768" />
  </linearGradient>
  <path
     d="M64,119.89C36.07,119.89,6,102.4,6,64S36.07,8.11,64,8.11c15.48,0,29.81,5.12,40.36,14.43 C115.9,32.72,122,47.06,122,64c0,16.86-6.1,31.17-17.64,41.39C93.78,114.74,79.45,119.89,64,119.89z"
     fill="url(#a)"
     id="path24771" />
  <path
     d="m64 10.11c14.99 0 28.86 4.95 39.03 13.93 11.1 9.79 16.97 23.61 16.97 39.96 0 16.27-5.87 30.07-16.97 39.89-10.21 9.03-24.07 14-39.03 14-15.04 0-28.9-4.91-39.04-13.82-11.1-9.75-16.96-23.61-16.96-40.07 0-16.54 5.86-30.42 16.96-40.15 10.11-8.86 23.97-13.74 39.04-13.74m0-4c-31.15 0-60 20-60 57.89 0 37.68 28.85 57.89 60 57.89s60-20.73 60-57.89c0-37.37-28.85-57.89-60-57.89z"
     fill="#EB8F00"
     id="path24773" />
  <path
     d="m82.77 46.69c4.19 0 8 3.54 8 9.42s-3.81 9.42-8 9.42-8-3.54-8-9.42 3.81-9.42 8-9.42z"
     fill="#242424"
     id="path24775" />
  <path
     d="m45.23 46.69c-4.19 0-8 3.54-8 9.42s3.81 9.42 8 9.42 8-3.54 8-9.42-3.81-9.42-8-9.42z"
     fill="#242424"
     id="path24777" />
  <g
     id="face-with-medical-mask_1_"
     transform="matrix(1.000592,0,0,0.95468632,0.3621919,4.825812)"
     style="stroke:#eb8f00;stroke-width:4.07502;stroke-miterlimit:4;stroke-dasharray:none;stroke-opacity:1">
    <g
       id="g24910"
       style="stroke:#eb8f00;stroke-width:4.07502;stroke-miterlimit:4;stroke-dasharray:none;stroke-opacity:1">
      <path
         style="fill:#eeeeee;stroke:#eb8f00;stroke-width:4.07502;stroke-miterlimit:4;stroke-dasharray:none;stroke-opacity:1"
         d="m 28.19,91.17 c -7.35,3.63 -13.9,3.06 -13.9,3.06 2.05,3.76 4.08,5.57 6.09,7.56 0,0 3.71,0.33 8.23,-1.64 4.52,-1.97 6.93,-12.61 -0.42,-8.98 z"
         id="path24906" />
      <path
         style="fill:#eeeeee;stroke:#eb8f00;stroke-width:4.07502;stroke-miterlimit:4;stroke-dasharray:none;stroke-opacity:1"
         d="M 28.5,69.22 C 14.75,68.29 5.68,59.82 5.68,59.82 c -0.46,4.97 0.23,9.7 0.23,9.7 0,0 6.51,8.11 22.33,9 12.05,0.68 11.74,-8.52 0.26,-9.3 z"
         id="path24908" />
    </g>
    <g
       id="g24916"
       style="stroke:#eb8f00;stroke-width:4.07502;stroke-miterlimit:4;stroke-dasharray:none;stroke-opacity:1">
      <path
         style="fill:#eeeeee;stroke:#eb8f00;stroke-width:4.07502;stroke-miterlimit:4;stroke-dasharray:none;stroke-opacity:1"
         d="m 98.93,91.17 c 7.35,3.63 13.9,3.06 13.9,3.06 -2.05,3.76 -4.08,5.57 -6.09,7.56 0,0 -3.71,0.33 -8.23,-1.64 -4.52,-1.98 -6.93,-12.61 0.42,-8.98 z"
         id="path24912" />
      <path
         style="fill:#eeeeee;stroke:#eb8f00;stroke-width:4.07502;stroke-miterlimit:4;stroke-dasharray:none;stroke-opacity:1"
         d="m 98.62,69.22 c 13.75,-0.93 22.82,-9.4 22.82,-9.4 0.46,4.97 -0.23,9.7 -0.23,9.7 0,0 -6.51,8.11 -22.33,9 C 86.83,79.2 87.13,70 98.62,69.22 Z"
         id="path24914" />
    </g>
  </g>
  <path
     style="fill:#f5f5f5;stroke:#eb8f00;stroke-opacity:1;stroke-width:4;stroke-miterlimit:4;stroke-dasharray:none"
     d="M 101.1008,101.05337 V 90.283366 83.373367 l -0.01,-8.55 c -0.07,-1.74 -1.160002,-2.320001 -3.390002,-3.13 -5,-1.82 -20.14,-6.330001 -33.58,-6.34 v 0 h -0.01 -0.01 v 0 c -13.44,0 -28.59,4.52 -33.58,6.34 -2.23,0.81 -3.31,1.39 -3.39,3.13 l -0.01,8.55 v 6.909999 10.770004 c 0,0.55 -0.16,3.3 3.16,4.9 3.69,1.78 18.76,7.35 33.83,7.35 15.07,0 30.15,-5.57 33.83,-7.35 3.320002,-1.6 3.160002,-4.35 3.160002,-4.9 z"
     id="path24919" />
</svg>
