<?xml version="1.0" encoding="UTF-8" standalone="no"?>
<svg
   enable-background="new 0 0 128 128"
   viewBox="0 0 128 128"
   version="1.1"
   id="svg27728"
   sodipodi:docname="1f63a.svg"
   inkscape:version="1.1.1 (3bf5ae0d25, 2021-09-20)"
   xmlns:inkscape="http://www.inkscape.org/namespaces/inkscape"
   xmlns:sodipodi="http://sodipodi.sourceforge.net/DTD/sodipodi-0.dtd"
   xmlns:xlink="http://www.w3.org/1999/xlink"
   xmlns="http://www.w3.org/2000/svg"
   xmlns:svg="http://www.w3.org/2000/svg">
  <sodipodi:namedview
     id="namedview27730"
     pagecolor="#ffffff"
     bordercolor="#666666"
     borderopacity="1.0"
     inkscape:pageshadow="2"
     inkscape:pageopacity="0.0"
     inkscape:pagecheckerboard="0"
     showgrid="false"
     inkscape:zoom="6.0390625"
     inkscape:cx="63.917206"
     inkscape:cy="63.834411"
     inkscape:window-width="1920"
     inkscape:window-height="991"
     inkscape:window-x="-9"
     inkscape:window-y="-9"
     inkscape:window-maximized="1"
     inkscape:current-layer="svg27728" />
  <path
     d="m21.77 55.7c-2.21 0-4.1-0.54-5.63-1.6-12.7-8.83-10.51-37.92-10.49-38.21 0.32-4 3.38-7.02 7.12-7.02 0.23 0 0.47 0.01 0.7 0.04 11.3 1.15 26 5.56 33.36 14.49 3.78 4.59 2.47 10.03 0.7 13.78-4.56 9.69-16.84 18.52-25.76 18.52z"
     fill="#FED133"
     id="path27645" />
  <path
     d="m12.77 10.38c0.18 0 0.37 0.01 0.55 0.03 11 1.12 25.28 5.37 32.36 13.95 1.81 2.2 3.37 6.1 0.5 12.19-4.28 9.07-16.14 17.65-24.41 17.65-1.9 0-3.5-0.45-4.78-1.34-9.96-6.91-10.48-28.94-9.84-36.85 0.25-3.21 2.67-5.63 5.62-5.63m0-3c-4.51 0-8.23 3.66-8.62 8.39-0.54 6.73-0.7 31.33 11.13 39.55 1.86 1.29 4.08 1.87 6.49 1.87 14.82 0 36.81-21.92 26.23-34.75-8.05-9.76-23.6-13.93-34.37-15.03-0.29-0.02-0.58-0.03-0.86-0.03z"
     fill="#EB8F00"
     id="path27647" />
  <path
     d="m5.81 22.04c0.05-1.31 0.2-2.74 1.09-3.67 1.18-1.24 3.13-1.11 4.78-0.76 4.49 0.95 8.77 2.96 12.42 5.83 1.82 1.43 3.55 3.2 4.09 5.48 0.82 3.51-1.38 6.93-3.47 9.83-1.46 2.02-2.93 4.06-4.79 5.69-1.55 1.37-4.85 3.98-6.93 4.22-2.08 0.25-1.49-2.89-2.34-4.56-2.22-4.38-3.72-9.15-4.42-14.04-0.38-2.65-0.53-5.34-0.43-8.02z"
     fill="#EB8F00"
     id="path27649" />
  <path
     d="m106.23 55.7c-8.92 0-21.2-8.83-25.77-18.52-1.77-3.75-3.08-9.19 0.7-13.78 7.37-8.93 22.06-13.34 33.36-14.49 0.24-0.02 0.47-0.04 0.7-0.04 3.74 0 6.8 3.02 7.12 7.02 0.02 0.29 2.22 29.38-10.48 38.2-1.53 1.07-3.42 1.61-5.63 1.61z"
     fill="#FED133"
     id="path27651" />
  <path
     d="m115.23 10.38c2.95 0 5.37 2.42 5.63 5.64 0.64 7.9 0.11 29.93-9.85 36.85-1.28 0.89-2.88 1.34-4.78 1.34-8.27 0-20.13-8.58-24.41-17.65-2.87-6.09-1.31-9.99 0.5-12.19 7.08-8.58 21.36-12.83 32.36-13.95 0.18-0.04 0.37-0.04 0.55-0.04m0-3c-0.28 0-0.57 0.01-0.85 0.04-10.77 1.09-26.33 5.26-34.38 15.02-10.58 12.84 11.41 34.76 26.23 34.76 2.41 0 4.63-0.58 6.49-1.87 11.83-8.22 11.67-32.83 11.12-39.55-0.38-4.75-4.1-8.4-8.61-8.4z"
     fill="#EB8F00"
     id="path27653" />
  <path
     d="m122.19 22.04c-0.05-1.31-0.2-2.74-1.09-3.67-1.18-1.24-3.13-1.11-4.78-0.76-4.49 0.95-8.77 2.96-12.42 5.83-1.82 1.43-3.55 3.2-4.09 5.48-0.82 3.51 1.38 6.93 3.47 9.83 1.46 2.02 2.93 4.06 4.79 5.69 1.55 1.37 4.68 3.99 6.76 4.24s1.66-2.91 2.5-4.58c2.22-4.38 3.72-9.15 4.42-14.04 0.39-2.65 0.54-5.34 0.44-8.02z"
     fill="#EB8F00"
     id="path27655" />
  <linearGradient
     id="e"
     x1="64"
     x2="64"
     y1="25.031"
     y2="107.67"
     gradientUnits="userSpaceOnUse">
    <stop
       stop-color="#FED133"
       offset=".5094"
       id="stop27657" />
    <stop
       stop-color="#FDCE32"
       offset=".6339"
       id="stop27659" />
    <stop
       stop-color="#FCC32E"
       offset=".7405"
       id="stop27661" />
    <stop
       stop-color="#F9B128"
       offset=".8403"
       id="stop27663" />
    <stop
       stop-color="#F6A323"
       offset=".9"
       id="stop27665" />
  </linearGradient>
  <path
     d="m64 119.12c-25.77 0-53.5-16.43-53.5-52.5s27.73-52.5 53.5-52.5c14.27 0 27.48 4.81 37.21 13.54 10.66 9.57 16.29 23.04 16.29 38.96 0 15.84-5.63 29.29-16.29 38.89-9.76 8.78-22.97 13.61-37.21 13.61z"
     fill="url(#e)"
     id="path27668" />
  <path
     d="m64 15.62c13.9 0 26.75 4.67 36.2 13.16 10.33 9.28 15.8 22.37 15.8 37.84 0 15.4-5.46 28.46-15.8 37.77-9.47 8.53-22.33 13.23-36.2 13.23-25.04 0-52-15.96-52-51 0-15.65 5.46-28.8 15.79-38.01 9.39-8.37 22.25-12.98 36.21-12.99m0-3c-28.56 0-55 18.66-55 54 0 35.15 26.44 54 55 54 28.55 0 55-19.33 55-54 0-34.85-26.44-53.99-55-54z"
     fill="#EB8F00"
     id="path27670" />
  <g
     fill="none"
     stroke="#404040"
     stroke-linecap="round"
     stroke-linejoin="round"
     stroke-miterlimit="10"
     stroke-width="4"
     id="g27678">
    <line
       x1="8.65"
       x2="28.55"
       y1="105.57"
       y2="95.16"
       id="line27672" />
    <line
       x1="27.15"
       x2="6.05"
       y1="88.01"
       y2="90.95"
       id="line27674" />
    <line
       x1="6.05"
       x2="27.32"
       y1="75.68"
       y2="80.92"
       id="line27676" />
  </g>
  <g
     fill="none"
     stroke="#404040"
     stroke-linecap="round"
     stroke-linejoin="round"
     stroke-miterlimit="10"
     stroke-width="4"
     id="g27686">
    <line
       x1="119.35"
       x2="99.45"
       y1="105.57"
       y2="95.16"
       id="line27680" />
    <line
       x1="100.85"
       x2="121.95"
       y1="88.01"
       y2="90.95"
       id="line27682" />
    <line
       x1="121.95"
       x2="100.68"
       y1="75.68"
       y2="80.92"
       id="line27684" />
  </g>
  <line
     x1="63.95"
     x2="63.95"
     y1="75.91"
     y2="96.91"
     fill="#646464"
     id="line27688" />
  <line
     x1="56.01"
     x2="56.01"
     y1="16.69"
     y2="37.69"
     fill="none"
     stroke="#EB8F00"
     stroke-linecap="round"
     stroke-linejoin="round"
     stroke-miterlimit="10"
     stroke-width="7"
     id="line27692" />
  <line
     x1="71.99"
     x2="71.99"
     y1="16.69"
     y2="37.69"
     fill="none"
     stroke="#EB8F00"
     stroke-linecap="round"
     stroke-linejoin="round"
     stroke-miterlimit="10"
     stroke-width="7"
     id="line27694" />
  <defs
     id="defs27705">
    <path
       id="d"
       d="m63.47 83.61c-10.54 0-20.35-0.88-28.52-2.4-2.03-0.38-3.82 1.41-3.41 3.43 2.72 13.3 15.81 24.22 31.92 24.22 17.63 0 29.5-11.28 31.97-24.27 0.38-2.01-1.41-3.76-3.42-3.38-8.18 1.52-17.99 2.4-28.54 2.4z" />
  </defs>
  <clipPath
     id="a">
    <use
       xlink:href="#d"
       id="use27707" />
  </clipPath>
  <g
     id="g1073"
     transform="translate(-0.67999924,-3.3999963)"
     style="fill:#404040;fill-opacity:1">
    <path
       d="m 34.43,65.19 c -0.08,-4.47 3.06,-8.14 7,-8.21 3.94,-0.07 6.41,3.59 6.49,8.06 0.08,4.47 -3.06,8.14 -7,8.21 -3.94,0.07 -6.41,-3.59 -6.49,-8.06 z"
       id="path1069"
       style="fill:#404040;fill-opacity:1" />
    <path
       d="m 93.57,65.19 c 0.08,-4.47 -3.06,-8.14 -7,-8.21 -3.94,-0.07 -6.41,3.59 -6.49,8.06 -0.08,4.47 3.06,8.14 7,8.21 3.94,0.07 6.41,-3.59 6.49,-8.06 z"
       id="path1071"
       style="fill:#404040;fill-opacity:1" />
  </g>
  <path
     d="m 55.280001,73.790004 c -0.05,-2.86 4.06,-4.24 7.95,-4.3 3.89,-0.07 8.07,1.2 8.12,4.06 0.05,2.86 -4.86,6.64 -7.95,6.64 -3.09,0 -8.07,-3.54 -8.12,-6.4 z"
     id="path1093"
     style="fill:#404040;fill-opacity:1" />
  <path
     style="fill:#ed7770;fill-opacity:1"
     d="m 71.210001,84.950004 c 0.1,0.02 0.2,0.04 0.31,0.06 1.3,0.24 2.5,0.44 3.7,1.1 0.16,0.09 0.34,0.2 0.4,0.39 0.07,0.19 0,0.41 -0.07,0.6 -0.43,1.03 -1.23,1.8 -2.03,2.5 -3.16,2.72 -7,4.78 -10.98,4.54 -3.44,-0.2 -6.76,-2.21 -8.8,-5.31 -0.1,-0.15 -0.19,-0.31 -0.2,-0.49 -0.01,-0.19 0.08,-0.37 0.18,-0.52 0.59,-0.89 1.58,-1.29 2.47,-1.76 1.55,-0.8 2.97,-1.91 4.18,-3.26 0.56,-0.62 1.09,-1.3 1.82,-1.64 1.29,-0.6 1.81,0.47 2.7,1.17 1,0.78 2.27,1.42 3.45,1.76 0.96,0.27 1.92,0.65 2.87,0.86 z"
     id="path1095" />
  <path
     style="fill:none;stroke:#404040;stroke-width:3.7747;stroke-miterlimit:10;stroke-opacity:1"
     d="m 76.490001,85.460004 c 0,0 -4.42,9.43 -12.9,9.43 -8.13,0 -12.9,-9.43 -12.9,-9.43"
     id="path1097" />
  <g
     id="g1103"
     transform="translate(-0.67999924,-3.3999963)"
     style="stroke:#404040;stroke-opacity:1">
    <path
       style="fill:none;stroke:#404040;stroke-width:4;stroke-linecap:round;stroke-miterlimit:10;stroke-opacity:1"
       d="m 40.77,84.87 c 0,0 4.04,4.92 11.93,4.92 9.5,0 11.93,-10.48 11.93,-10.48"
       id="path1099" />
    <path
       style="fill:none;stroke:#404040;stroke-width:4;stroke-linecap:round;stroke-miterlimit:10;stroke-opacity:1"
       d="m 87.23,84.87 c 0,0 -4.04,4.92 -11.93,4.92 -9.5,0 -11.93,-10.48 -11.93,-10.48"
       id="path1101" />
  </g>
</svg>
