<?xml version="1.0" encoding="UTF-8" standalone="no"?>
<svg
   enable-background="new 0 0 128 128"
   viewBox="0 0 128 128"
   version="1.1"
   id="svg25"
   sodipodi:docname="1f635.svg"
   inkscape:version="1.1.1 (3bf5ae0d25, 2021-09-20)"
   xmlns:inkscape="http://www.inkscape.org/namespaces/inkscape"
   xmlns:sodipodi="http://sodipodi.sourceforge.net/DTD/sodipodi-0.dtd"
   xmlns="http://www.w3.org/2000/svg"
   xmlns:svg="http://www.w3.org/2000/svg">
  <defs
     id="defs29">
    <linearGradient
       id="effect_1_"
       gradientUnits="userSpaceOnUse"
       x1="63.599998"
       y1="1752.8"
       x2="63.599998"
       y2="1641"
       gradientTransform="translate(0.4,-1632.91)">
      <stop
         offset="0.39"
         style="stop-color:#40C0E7;stop-opacity:0"
         id="stop5244" />
      <stop
         offset="1"
         style="stop-color:#5F7AFF"
         id="stop5246" />
    </linearGradient>
    <linearGradient
       id="linearGradient5514"
       x1="64"
       x2="64"
       y1="110.28"
       y2="22.299999"
       gradientTransform="matrix(1,0,0,-1,0,130)"
       gradientUnits="userSpaceOnUse">
      <stop
         stop-color="#FEE133"
         offset=".5"
         id="stop2-7" />
      <stop
         stop-color="#FEDE32"
         offset=".6118"
         id="stop4-9" />
      <stop
         stop-color="#FCD32F"
         offset=".7076"
         id="stop6-7" />
      <stop
         stop-color="#FAC12B"
         offset=".7975"
         id="stop8-1" />
      <stop
         stop-color="#F7A924"
         offset=".8834"
         id="stop10-9" />
      <stop
         stop-color="#F6A323"
         offset=".9"
         id="stop12-6" />
    </linearGradient>
    <radialGradient
       id="SVGID_1_"
       cx="78.308403"
       cy="-948.81403"
       r="19.440001"
       gradientTransform="matrix(0.98,0,0,-0.93,-49.42,-800.35)"
       gradientUnits="userSpaceOnUse">
      <stop
         offset="0"
         style="stop-color:#ED7770"
         id="stop1033" />
      <stop
         offset="0.9"
         style="stop-color:#ED7770;stop-opacity:0"
         id="stop1035" />
    </radialGradient>
    <radialGradient
       id="SVGID_2_"
       cx="147.368"
       cy="-948.81403"
       r="19.440001"
       gradientTransform="matrix(0.98,0,0,-0.93,-49.42,-800.35)"
       gradientUnits="userSpaceOnUse">
      <stop
         offset="0"
         style="stop-color:#ED7770"
         id="stop1040" />
      <stop
         offset="0.9"
         style="stop-color:#ED7770;stop-opacity:0"
         id="stop1042" />
    </radialGradient>
    <radialGradient
       id="SVGID_3_"
       cx="147.42999"
       cy="-923.90002"
       r="19.440001"
       gradientTransform="matrix(1,0,0,-1,0,130)"
       gradientUnits="userSpaceOnUse">
      <stop
         offset="0"
         style="stop-color:#ED7770"
         id="stop1047" />
      <stop
         offset="0.9"
         style="stop-color:#ED7770;stop-opacity:0"
         id="stop1049" />
    </radialGradient>
    <linearGradient
       id="a-0"
       x1="64"
       x2="64"
       y1="107.99"
       y2="24.559999"
       gradientTransform="matrix(1,0,0,-1,-2.3812028,127.6188)"
       gradientUnits="userSpaceOnUse">
      <stop
         stop-color="#F6A323"
         offset=".4379"
         id="stop68546" />
      <stop
         stop-color="#FAC42C"
         offset=".6371"
         id="stop68548" />
      <stop
         stop-color="#FDD931"
         offset=".8059"
         id="stop68550" />
      <stop
         stop-color="#FEE133"
         offset=".9168"
         id="stop68552" />
    </linearGradient>
    <linearGradient
       id="a-3"
       x1="64"
       x2="64"
       y1="107.99"
       y2="24.559999"
       gradientTransform="matrix(1.0533497,0,0,-1.0533497,-3.1886706,133.1034)"
       gradientUnits="userSpaceOnUse">
      <stop
         stop-color="#F6A323"
         offset=".4379"
         id="stop68546-9" />
      <stop
         stop-color="#FAC42C"
         offset=".6371"
         id="stop68548-1" />
      <stop
         stop-color="#FDD931"
         offset=".8059"
         id="stop68550-4" />
      <stop
         stop-color="#FEE133"
         offset=".9168"
         id="stop68552-2" />
    </linearGradient>
  </defs>
  <sodipodi:namedview
     id="namedview27"
     pagecolor="#ffffff"
     bordercolor="#666666"
     borderopacity="1.0"
     inkscape:pageshadow="2"
     inkscape:pageopacity="0.0"
     inkscape:pagecheckerboard="0"
     showgrid="false"
     inkscape:zoom="4.4304659"
     inkscape:cx="92.992477"
     inkscape:cy="92.879622"
     inkscape:window-width="1920"
     inkscape:window-height="991"
     inkscape:window-x="-9"
     inkscape:window-y="-9"
     inkscape:window-maximized="1"
     inkscape:current-layer="svg25" />
  <linearGradient
     id="a"
     x1="64"
     x2="64"
     y1="110.28"
     y2="22.3"
     gradientTransform="matrix(1,0,0,-1,-9.9999998e-7,130)"
     gradientUnits="userSpaceOnUse">
    <stop
       stop-color="#FEE133"
       offset=".5"
       id="stop2" />
    <stop
       stop-color="#FEDE32"
       offset=".6118"
       id="stop4" />
    <stop
       stop-color="#FCD32F"
       offset=".7076"
       id="stop6" />
    <stop
       stop-color="#FAC12B"
       offset=".7975"
       id="stop8" />
    <stop
       stop-color="#F7A924"
       offset=".8834"
       id="stop10" />
    <stop
       stop-color="#F6A323"
       offset=".9"
       id="stop12" />
  </linearGradient>
  <path
     d="m 64.225709,119.40985 c -27.90323,0 -57.9342296,-17.46453 -57.9342296,-55.82753 0,-38.35246 30.0309996,-55.8275282 57.9342296,-55.8275282 15.46317,0 29.78873,5.1192782 40.311701,14.4203552 11.53417,10.164824 17.62253,24.490379 17.62253,41.407173 0,16.84306 -6.08836,31.137016 -17.62253,41.33343 -10.554571,9.34323 -24.869591,14.4941 -40.311701,14.4941 z"
     fill="url(#a)"
     id="path68555"
     style="fill:url(#a-3);stroke:#eb8f00;stroke-width:4.21339;stroke-miterlimit:4;stroke-dasharray:none;stroke-opacity:1" />
  <path
     id="mouth"
     style="fill:#242424;fill-opacity:1"
     d="m 82.341697,95.125477 c 0,7.580003 -8.31,12.000003 -18.56,12.000003 -10.25,0 -18.56,-4.45 -18.56,-12.000003 0,-7.55 8.31,-15.85 18.56,-15.85 10.25,0 18.56,8.27 18.56,15.85 z" />
  <path
     style="fill:#242424;fill-opacity:1"
     d="m 46.051697,58.875477 8.46,-7.87 c 1.2,-1.49 1.38,-3.5 0.17,-4.7 -1.59,-1.6 -4.41,-1.21 -5.94,0.61 -0.08,0.15 -0.14,0.19 -0.22,0.34 l -6,8.72 -8.12,-7.57 c -0.12,-0.13 -0.19,-0.15 -0.3,-0.28 -1.89,-1.44 -4.73,-1.2 -5.92,0.71 -0.93,1.44 -0.31,3.35 1.19,4.55 l 10.41,6.17 -8.82,8.25 c -1.18,1.47 -1.4,3.47 -0.18,4.7 1.58,1.61 4.4,1.24 5.94,-0.57 0.08,-0.15 0.14,-0.19 0.23,-0.34 l 6.32,-9.14 7.68,7.24 c 0.12,0.13 0.19,0.16 0.3,0.29 1.88,1.45 4.72,1.23 5.93,-0.67 0.93,-1.44 0.32,-3.36 -1.17,-4.56 z"
     id="path18582" />
  <path
     style="fill:#242424;fill-opacity:1"
     d="m 84.531697,58.875477 -8.46,-7.87 c -1.2,-1.49 -1.38,-3.5 -0.16,-4.7 1.59,-1.6 4.4,-1.21 5.93,0.61 0.08,0.15 0.15,0.19 0.23,0.34 l 6,8.72 8.13,-7.57 c 0.11,-0.13 0.18,-0.15 0.29,-0.28 1.9,-1.44 4.730003,-1.2 5.930003,0.71 0.92,1.44 0.3,3.35 -1.2,4.55 l -10.440003,6.17 8.82,8.25 c 1.210003,1.49 1.410003,3.49 0.19,4.7 -1.57,1.61 -4.39,1.24 -5.93,-0.57 -0.09,-0.15 -0.15,-0.19 -0.23,-0.34 l -6.32,-9.14 -7.69,7.24 c -0.11,0.13 -0.18,0.16 -0.3,0.29 -1.88,1.45 -4.71,1.23 -5.92,-0.67 -0.94,-1.44 -0.33,-3.36 1.16,-4.56 z"
     id="path18584" />
  <g
     id="eyebrows"
     style="fill:#eb8f00;fill-opacity:1"
     transform="translate(-0.21830262,2.2754767)">
    <path
       style="fill:#eb8f00;fill-opacity:1"
       d="m 45.6,28.9 v 0 c 2.3,0.2 3.2,-2.9 0.8,-3.6 -1.89,-0.51 -3.85,-0.71 -5.8,-0.6 -5.29,0.2 -10.3,2.42 -14,6.2 -1.7,1.8 0.7,4 2.5,2.7 4.82,-3.37 10.63,-5.03 16.5,-4.7 z"
       id="path18586" />
    <path
       style="fill:#eb8f00;fill-opacity:1"
       d="m 82.2,28.9 v 0 c 5.9,-0.34 11.75,1.31 16.6,4.7 1.8,1.3 4.2,-0.9 2.5,-2.7 -3.71,-3.76 -8.72,-5.98 -14,-6.2 -1.95,-0.11 -3.91,0.09 -5.8,0.6 -0.98,0.28 -1.55,1.29 -1.27,2.27 0.24,0.87 1.08,1.43 1.97,1.33"
       id="path18588" />
  </g>
</svg>
