<?xml version="1.0" encoding="UTF-8" standalone="no"?>
<svg
   enable-background="new 0 0 128 128"
   viewBox="0 0 128 128"
   version="1.1"
   id="svg5645"
   sodipodi:docname="1f630.svg"
   inkscape:version="1.1.1 (3bf5ae0d25, 2021-09-20)"
   xmlns:inkscape="http://www.inkscape.org/namespaces/inkscape"
   xmlns:sodipodi="http://sodipodi.sourceforge.net/DTD/sodipodi-0.dtd"
   xmlns="http://www.w3.org/2000/svg"
   xmlns:svg="http://www.w3.org/2000/svg">
  <defs
     id="defs5649">
    <radialGradient
       id="SVGID_1_"
       cx="20.59"
       cy="-456.595"
       r="33.400002"
       gradientTransform="matrix(1,0,0,-1.54,-119.43499,-637.51547)"
       gradientUnits="userSpaceOnUse">
      <stop
         offset="0.46"
         style="stop-color:#29B6F6"
         id="stop47213" />
      <stop
         offset="1"
         style="stop-color:#1E88E5"
         id="stop47215" />
    </radialGradient>
    <radialGradient
       id="radialGradient47316"
       cx="20.59"
       cy="-456.595"
       r="33.400002"
       gradientTransform="matrix(1,0,0,-1.54,0,-640.21)"
       gradientUnits="userSpaceOnUse">
      <stop
         offset="0.46"
         style="stop-color:#29B6F6"
         id="stop47312" />
      <stop
         offset="1"
         style="stop-color:#1E88E5"
         id="stop47314" />
    </radialGradient>
  </defs>
  <sodipodi:namedview
     id="namedview5647"
     pagecolor="#ffffff"
     bordercolor="#666666"
     borderopacity="1.0"
     inkscape:pageshadow="2"
     inkscape:pageopacity="0.0"
     inkscape:pagecheckerboard="0"
     showgrid="false"
     inkscape:zoom="3.1328125"
     inkscape:cx="112.5187"
     inkscape:cy="109.96509"
     inkscape:window-width="1920"
     inkscape:window-height="991"
     inkscape:window-x="-9"
     inkscape:window-y="-9"
     inkscape:window-maximized="1"
     inkscape:current-layer="svg5645" />
  <symbol
     viewBox="-64.5 -64.5 129 129"
     id="symbol5622">
    <g
       fill="none"
       stroke="#4285F4"
       stroke-miterlimit="10"
       id="g5620">
      <rect
         x="-64"
         y="-64"
         width="128"
         height="128"
         id="rect5604" />
      <path
         d="M36.95,37.82C27.32,46.32,14.2,51,0,51 c-14.27,0-27.39-4.62-36.96-13.01C-47.45,28.79-53,15.65-53,0c0-15.58,5.55-28.69,16.04-37.92C-27.36-46.35-14.24-51,0-51 c14.17,0,27.29,4.71,36.95,13.25C47.45-28.45,53-15.4,53,0C53,15.47,47.45,28.55,36.95,37.82z"
         id="path5606" />
      <path
         d="m0 55c-29.59 0-57-19.01-57-55 0-35.8 27.41-55 57-55s57 19.69 57 55c0 35.51-27.41 55-57 55z"
         id="path5608" />
      <path
         d="M0-43c-12.29,0-23.54,3.94-31.68,11.09 C-40.39-24.25-45-13.21-45,0c0,29.7,22.6,43,45,43c21.67,0,45-13.46,45-43S21.67-43,0-43L0-43z"
         id="path5610" />
      <line
         x1="-.01"
         x2="-.01"
         y1="51"
         y2="-51"
         id="line5612" />
      <line
         x1="-16"
         x2="-16"
         y1="48.95"
         y2="-48.93"
         id="line5614" />
      <line
         x1="15.99"
         x2="15.99"
         y1="48.91"
         y2="-48.93"
         id="line5616" />
      <line
         x1="53"
         x2="-53"
         y1=".08"
         y2=".08"
         id="line5618" />
    </g>
  </symbol>
  <path
     d="m4.15 64c0 37.28 28.78 57.75 59.85 57.75s59.85-19.96 59.85-57.75c0-37.59-28.78-57.75-59.85-57.75s-59.85 20.67-59.85 57.75z"
     fill="#FEE133"
     id="path5624"
     style="stroke:#47a9b0;stroke-opacity:1;stroke-width:4;stroke-miterlimit:4;stroke-dasharray:none" />
  <linearGradient
     id="a"
     x1="64"
     x2="64"
     y1="79.5"
     y2="2"
     gradientUnits="userSpaceOnUse"
     gradientTransform="translate(0,2)">
    <stop
       stop-color="#40C0E7"
       stop-opacity="0"
       offset=".3853"
       id="stop5628" />
    <stop
       stop-color="#40C0E7"
       offset="1"
       id="stop5630" />
  </linearGradient>
  <path
     d="m 4.15,66 c 0,37.28 28.780004,57.75 59.850004,57.75 C 95.070004,123.75 123.85,103.79 123.85,66 123.85,28.409997 95.070004,8.249997 64.000004,8.249997 32.930004,8.249997 4.15,28.919997 4.15,66 Z"
     fill="url(#a)"
     id="path5633"
     style="fill:url(#a)" />
  <g
     id="anxious-with-sweat-face-2"
     transform="translate(0.26575813,-0.0935046)"
     style="fill:#242424;fill-opacity:1">
    <path
       id="mouth"
       style="fill:#242424;fill-opacity:1"
       d="m 64,99.9 c 3.85,0 7.67,0.66 11.3,1.93 7.7,2.69 14.37,-6 9.9,-12.8 C 80.54,82 73.29,80 64,80 c -9.29,0 -16.53,1.91 -21.19,9 -4.48,6.81 2.2,15.48 9.9,12.8 3.63,-1.27 7.45,-1.91 11.29,-1.9 z" />
  </g>
  <path
     style="fill:#47a9b0;fill-opacity:1"
     d="m 27.655758,39.676495 c -2.2,0.39 -2.31,3.59 0.09,3.7 5.3,0.08 10.42,-1.88 14.32,-5.47 1.48,-1.28 2.74,-2.79 3.71,-4.49 0.58,-0.83 0.38,-1.97 -0.44,-2.56 -0.82,-0.59 -1.97,-0.38 -2.56,0.44 l -0.1,0.1 c -3.93,4.39 -9.22,7.3 -15.02,8.28 z"
     id="path47222" />
  <path
     style="fill:#47a9b0;fill-opacity:1"
     d="m 86.385758,31.426495 -0.1,-0.1 c -0.58,-0.83 -1.73,-1.03 -2.56,-0.45 -0.83,0.58 -1.03,1.73 -0.44,2.56 0.98,1.69 2.24,3.2 3.73,4.47 3.9,3.59 9.02,5.54 14.320002,5.45 2.4,-0.11 2.29,-3.31 0.08,-3.7 -5.800002,-0.97 -11.090002,-3.87 -15.030002,-8.23 z"
     id="path47224" />
  <path
     style="fill:#242424;fill-opacity:1"
     d="m 44.265758,49.846495 v 0 c -4.19,0 -8,3.54 -8,9.42 0,5.88 3.81,9.41 8,9.41 v 0 c 4.2,0 8,-3.54 8,-9.41 0,-5.87 -3.76,-9.42 -8,-9.42 z"
     id="path47226" />
  <path
     style="fill:#242424;fill-opacity:1"
     d="m 82.665758,49.846495 v 0 c -4.19,0 -8,3.54 -8,9.42 0,5.88 3.81,9.41 8,9.41 v 0 c 4.19,0 8,-3.54 8,-9.41 0,-5.87 -3.81,-9.42 -8,-9.42 z"
     id="path47231" />
  <path
     style="fill:#5f7aff;fill-opacity:1;fill-rule:nonzero;stroke:#4864ed;stroke-width:4.85432;stroke-miterlimit:4;stroke-dasharray:none;stroke-opacity:1"
     d="m 21.127077,111.21971 c -7.888272,0 -13.9561726,-7.64553 -13.9561726,-14.198858 0,-4.611617 2.0630866,-9.951369 4.9756786,-17.354209 0.364074,-1.092222 0.849506,-2.184444 1.334938,-3.398024 1.249988,-3.592197 2.742692,-7.087308 4.478111,-10.473197 0.885914,-1.577654 2.876185,-2.135901 4.465975,-1.249988 0.52184,0.29126 0.958729,0.728148 1.249988,1.249988 1.699012,3.228123 2.912592,6.686827 4.732963,10.703777 5.097036,11.407654 6.553333,16.019259 6.553333,20.630875 0.121358,6.444106 -6.067901,14.089636 -13.834814,14.089636 z"
     id="path1543"
     inkscape:transform-center-x="-7.9594169"
     inkscape:transform-center-y="4.7685836" />
</svg>
