<?xml version="1.0" encoding="UTF-8" standalone="no"?>
<svg
   enable-background="new 0 0 128 128"
   viewBox="0 0 128 128"
   version="1.1"
   id="svg25"
   sodipodi:docname="1f633.svg"
   inkscape:version="1.1.1 (3bf5ae0d25, 2021-09-20)"
   xmlns:inkscape="http://www.inkscape.org/namespaces/inkscape"
   xmlns:sodipodi="http://sodipodi.sourceforge.net/DTD/sodipodi-0.dtd"
   xmlns="http://www.w3.org/2000/svg"
   xmlns:svg="http://www.w3.org/2000/svg">
  <defs
     id="defs29">
    <linearGradient
       id="effect_1_"
       gradientUnits="userSpaceOnUse"
       x1="63.599998"
       y1="1752.8"
       x2="63.599998"
       y2="1641"
       gradientTransform="translate(0.4,-1632.91)">
      <stop
         offset="0.39"
         style="stop-color:#40C0E7;stop-opacity:0"
         id="stop5244" />
      <stop
         offset="1"
         style="stop-color:#5F7AFF"
         id="stop5246" />
    </linearGradient>
    <linearGradient
       id="linearGradient5514"
       x1="64"
       x2="64"
       y1="110.28"
       y2="22.299999"
       gradientTransform="matrix(1,0,0,-1,0,130)"
       gradientUnits="userSpaceOnUse">
      <stop
         stop-color="#FEE133"
         offset=".5"
         id="stop2-7" />
      <stop
         stop-color="#FEDE32"
         offset=".6118"
         id="stop4-9" />
      <stop
         stop-color="#FCD32F"
         offset=".7076"
         id="stop6-7" />
      <stop
         stop-color="#FAC12B"
         offset=".7975"
         id="stop8-1" />
      <stop
         stop-color="#F7A924"
         offset=".8834"
         id="stop10-9" />
      <stop
         stop-color="#F6A323"
         offset=".9"
         id="stop12-6" />
    </linearGradient>
    <radialGradient
       id="SVGID_1_"
       cx="78.308403"
       cy="-948.81403"
       r="19.440001"
       gradientTransform="matrix(0.98,0,0,-0.93,-49.42,-800.35)"
       gradientUnits="userSpaceOnUse">
      <stop
         offset="0"
         style="stop-color:#ED7770"
         id="stop1033" />
      <stop
         offset="0.9"
         style="stop-color:#ED7770;stop-opacity:0"
         id="stop1035" />
    </radialGradient>
    <radialGradient
       id="SVGID_2_"
       cx="147.368"
       cy="-948.81403"
       r="19.440001"
       gradientTransform="matrix(0.98,0,0,-0.93,-49.42,-800.35)"
       gradientUnits="userSpaceOnUse">
      <stop
         offset="0"
         style="stop-color:#ED7770"
         id="stop1040" />
      <stop
         offset="0.9"
         style="stop-color:#ED7770;stop-opacity:0"
         id="stop1042" />
    </radialGradient>
    <radialGradient
       id="SVGID_3_"
       cx="147.42999"
       cy="-923.90002"
       r="19.440001"
       gradientTransform="matrix(1,0,0,-1,0,130)"
       gradientUnits="userSpaceOnUse">
      <stop
         offset="0"
         style="stop-color:#ED7770"
         id="stop1047" />
      <stop
         offset="0.9"
         style="stop-color:#ED7770;stop-opacity:0"
         id="stop1049" />
    </radialGradient>
  </defs>
  <sodipodi:namedview
     id="namedview27"
     pagecolor="#ffffff"
     bordercolor="#666666"
     borderopacity="1.0"
     inkscape:pageshadow="2"
     inkscape:pageopacity="0.0"
     inkscape:pagecheckerboard="0"
     showgrid="false"
     inkscape:zoom="4.4304659"
     inkscape:cx="92.992477"
     inkscape:cy="43.223445"
     inkscape:window-width="1920"
     inkscape:window-height="991"
     inkscape:window-x="-9"
     inkscape:window-y="-9"
     inkscape:window-maximized="1"
     inkscape:current-layer="svg25" />
  <linearGradient
     id="a"
     x1="64"
     x2="64"
     y1="110.28"
     y2="22.3"
     gradientTransform="matrix(1,0,0,-1,-9.9999998e-7,130)"
     gradientUnits="userSpaceOnUse">
    <stop
       stop-color="#FEE133"
       offset=".5"
       id="stop2" />
    <stop
       stop-color="#FEDE32"
       offset=".6118"
       id="stop4" />
    <stop
       stop-color="#FCD32F"
       offset=".7076"
       id="stop6" />
    <stop
       stop-color="#FAC12B"
       offset=".7975"
       id="stop8" />
    <stop
       stop-color="#F7A924"
       offset=".8834"
       id="stop10" />
    <stop
       stop-color="#F6A323"
       offset=".9"
       id="stop12" />
  </linearGradient>
  <path
     d="M 64,119.89 C 36.07,119.89 5.999999,102.4 5.999999,63.999997 5.999999,25.599997 36.07,8.1099973 64,8.1099973 c 15.48,0 29.81,5.1199997 40.36,14.4299997 11.54,10.18 17.64,24.52 17.64,41.46 0,16.86 -6.1,31.17 -17.64,41.390003 -10.58,9.35 -24.91,14.5 -40.36,14.5 z"
     fill="url(#a)"
     id="path15"
     style="fill:url(#a);stroke:#eb8f00;stroke-width:4;stroke-miterlimit:4;stroke-dasharray:none;stroke-opacity:1" />
  <g
     id="blush"
     transform="translate(1.7301547,3.687591)">
    <radialGradient
       id="radialGradient1156"
       cx="78.308403"
       cy="-948.81403"
       r="19.440001"
       gradientTransform="matrix(0.98,0,0,-0.93,-49.42,-800.35)"
       gradientUnits="userSpaceOnUse">
      <stop
         offset="0"
         style="stop-color:#ED7770"
         id="stop1152" />
      <stop
         offset="0.9"
         style="stop-color:#ED7770;stop-opacity:0"
         id="stop1154" />
    </radialGradient>
    <circle
       style="opacity:0.8;fill:url(#SVGID_1_);enable-background:new"
       cx="27.200001"
       cy="82.199997"
       r="17.5"
       id="circle1038" />
    <radialGradient
       id="radialGradient1163"
       cx="147.368"
       cy="-948.81403"
       r="19.440001"
       gradientTransform="matrix(0.98,0,0,-0.93,-49.42,-800.35)"
       gradientUnits="userSpaceOnUse">
      <stop
         offset="0"
         style="stop-color:#ED7770"
         id="stop1159" />
      <stop
         offset="0.9"
         style="stop-color:#ED7770;stop-opacity:0"
         id="stop1161" />
    </radialGradient>
    <circle
       style="opacity:0.8;fill:url(#SVGID_2_);enable-background:new"
       cx="94.879997"
       cy="82.199997"
       r="17.5"
       id="circle1045" />
    <radialGradient
       id="radialGradient1170"
       cx="147.42999"
       cy="-923.90002"
       r="19.440001"
       gradientTransform="matrix(1,0,0,-1,0,130)"
       gradientUnits="userSpaceOnUse">
      <stop
         offset="0"
         style="stop-color:#ED7770"
         id="stop1166" />
      <stop
         offset="0.9"
         style="stop-color:#ED7770;stop-opacity:0"
         id="stop1168" />
    </radialGradient>
    <circle
       style="opacity:0.8;fill:url(#SVGID_3_);enable-background:new"
       cx="99.800003"
       cy="82.199997"
       r="17.5"
       id="circle1052" />
  </g>
  <line
     id="mouth"
     style="fill:none;stroke:#242424;stroke-width:8;stroke-linecap:round;stroke-linejoin:round;stroke-opacity:1"
     x1="57.730156"
     y1="99.687599"
     x2="72.730164"
     y2="99.687599" />
  <path
     style="fill:#ffffff;stroke:#eb8f00;stroke-width:4;stroke-miterlimit:4;stroke-dasharray:none;stroke-opacity:1"
     d="m 90.930155,45.487591 c 9.609995,0 17.399995,7.79 17.399995,17.4 0,9.61 -7.79,17.399999 -17.399995,17.399999 -9.61,0 -17.4,-7.789999 -17.4,-17.399999 v 0 c 0.01,-9.61 7.79,-17.39 17.4,-17.4"
     id="path1056" />
  <ellipse
     style="fill:#242424;fill-opacity:1;stroke:none;stroke-opacity:1"
     cx="90.930161"
     cy="62.887592"
     rx="7.5"
     ry="7.5999999"
     id="ellipse1058" />
  <path
     style="fill:#ffffff;stroke:#eb8f00;stroke-width:4;stroke-miterlimit:4;stroke-dasharray:none;stroke-opacity:1"
     d="m 40.430155,45.387591 c 9.61,0 17.4,7.79 17.4,17.4 0,9.61 -7.79,17.399999 -17.4,17.399999 -9.61,0 -17.4,-7.789999 -17.4,-17.399999 0.01,-9.61 7.79,-17.39 17.4,-17.4"
     id="path1060" />
  <ellipse
     style="fill:#242424;fill-opacity:1;stroke:none;stroke-opacity:1"
     cx="40.430153"
     cy="62.787594"
     rx="7.5"
     ry="7.5999999"
     id="ellipse1062" />
  <g
     id="eyebrows"
     transform="translate(1.7301547,3.687591)"
     style="fill:#eb8f00;fill-opacity:1">
    <path
       style="fill:#eb8f00;fill-opacity:1"
       d="m 46.56,27.27 h 0.1 c 0.95,0.35 2,-0.14 2.35,-1.09 0.35,-0.95 -0.14,-2 -1.09,-2.35 -1.79,-0.8 -3.69,-1.31 -5.64,-1.5 -5.25,-0.63 -10.55,0.77 -14.8,3.92 -2,1.51 0.07,4.06 2.05,3.06 5.29,-2.57 11.29,-3.29 17.03,-2.04 z"
       id="path1065" />
    <path
       style="fill:#eb8f00;fill-opacity:1"
       d="m 80.86,27.27 h -0.1 c -0.95,0.35 -2,-0.14 -2.35,-1.09 -0.35,-0.95 0.14,-2 1.09,-2.35 1.79,-0.8 3.69,-1.31 5.64,-1.5 5.25,-0.63 10.55,0.77 14.8,3.92 2,1.51 -0.07,4.06 -2,3.06 -5.3,-2.58 -11.32,-3.3 -17.08,-2.04 z"
       id="path1067" />
  </g>
</svg>
