<?xml version="1.0" encoding="UTF-8" standalone="no"?>
<svg
   enable-background="new 0 0 128 128"
   viewBox="0 0 128 128"
   version="1.1"
   id="svg15673"
   sodipodi:docname="1f649.svg"
   inkscape:version="1.1.1 (3bf5ae0d25, 2021-09-20)"
   xmlns:inkscape="http://www.inkscape.org/namespaces/inkscape"
   xmlns:sodipodi="http://sodipodi.sourceforge.net/DTD/sodipodi-0.dtd"
   xmlns:xlink="http://www.w3.org/1999/xlink"
   xmlns="http://www.w3.org/2000/svg"
   xmlns:svg="http://www.w3.org/2000/svg">
  <sodipodi:namedview
     id="namedview15675"
     pagecolor="#ffffff"
     bordercolor="#666666"
     borderopacity="1.0"
     inkscape:pageshadow="2"
     inkscape:pageopacity="0.0"
     inkscape:pagecheckerboard="0"
     showgrid="false"
     inkscape:zoom="6.265625"
     inkscape:cx="64"
     inkscape:cy="64.0798"
     inkscape:window-width="1920"
     inkscape:window-height="991"
     inkscape:window-x="-9"
     inkscape:window-y="-9"
     inkscape:window-maximized="1"
     inkscape:current-layer="svg15673" />
  <path
     d="M27.9,86.4C15.8,86.4,6,75.3,6,61.7s9.8-24.6,21.9-24.6s21.9,11,21.9,24.6S40,86.4,27.9,86.4z"
     fill="#E6B175"
     id="path15545" />
  <path
     d="M27.9,39.1c11,0,19.9,10.2,19.9,22.6s-8.9,22.6-19.9,22.6S8,74.2,8,61.7S16.9,39.1,27.9,39.1 M27.9,35.1C14.7,35.1,4,47,4,61.7s10.7,26.6,23.9,26.6s23.9-11.9,23.9-26.6S41.1,35.1,27.9,35.1z"
     fill="#8B5E3C"
     id="path15547" />
  <path
     d="m100.1 86.4c-12.1 0-21.9-11.1-21.9-24.6 0-13.6 9.8-24.6 21.9-24.6s21.9 11 21.9 24.5c0 13.6-9.8 24.7-21.9 24.7z"
     fill="#E6B175"
     id="path15549" />
  <path
     d="m100.1 39.1c11 0 19.9 10.2 19.9 22.6s-8.9 22.6-19.9 22.6-19.9-10.1-19.9-22.6 8.9-22.6 19.9-22.6m0-4c-13.2 0-23.9 11.9-23.9 26.6s10.7 26.6 23.9 26.6 23.9-11.9 23.9-26.6-10.7-26.6-23.9-26.6z"
     fill="#8B5E3C"
     id="path15551" />
  <linearGradient
     id="i"
     x1="64"
     x2="64"
     y1="1059.6"
     y2="959.6"
     gradientTransform="translate(0 -950)"
     gradientUnits="userSpaceOnUse">
    <stop
       stop-color="#825C40"
       offset="0"
       id="stop15553" />
    <stop
       stop-color="#855F41"
       offset=".1672"
       id="stop15555" />
    <stop
       stop-color="#906746"
       offset=".3105"
       id="stop15557" />
    <stop
       stop-color="#A2764D"
       offset=".4445"
       id="stop15559" />
    <stop
       stop-color="#A97C50"
       offset=".4881"
       id="stop15561" />
  </linearGradient>
  <path
     d="m64 109.6c-14.3 0-26.7-5.5-35.6-15.8-8.3-9.5-12.9-22.3-12.9-35.9 0-24 15-48.3 48.5-48.3s48.5 24.2 48.5 48.3c0 13.6-4.6 26.4-12.9 35.9-8.9 10.3-21.3 15.8-35.6 15.8z"
     fill="url(#i)"
     id="path15564" />
  <path
     d="m64 11.1c14.3 0 26.4 4.7 34.8 13.6 7.9 8.3 12.2 20.1 12.2 33.1 0 13.3-4.4 25.7-12.5 35-8.7 10-20.6 15.3-34.5 15.3s-25.8-5.3-34.5-15.3c-8-9.3-12.5-21.7-12.5-35 0-13 4.3-24.8 12.2-33.1 8.4-8.9 20.5-13.6 34.8-13.6m0-3c-32 0-50 22.3-50 49.8s18.6 53.2 50 53.2 50-25.7 50-53.2-18-49.8-50-49.8z"
     fill="#8B5E3C"
     id="path15566" />
  <linearGradient
     id="h"
     x1="64"
     x2="64"
     y1="982.4"
     y2="1055.5"
     gradientTransform="translate(0 -950)"
     gradientUnits="userSpaceOnUse">
    <stop
       stop-color="#E6B175"
       offset=".2592"
       id="stop15568" />
    <stop
       stop-color="#E2AC70"
       offset=".4545"
       id="stop15570" />
    <stop
       stop-color="#D59E62"
       offset=".6859"
       id="stop15572" />
    <stop
       stop-color="#C0884A"
       offset=".9346"
       id="stop15574" />
    <stop
       stop-color="#BD8446"
       offset=".9692"
       id="stop15576" />
  </linearGradient>
  <path
     d="m105.1 52.2c0-10.9-9.2-19.8-20.6-19.8-10.1 0-18.5 7-20.3 16.3h-0.3-0.2c-1.7-9.3-10.1-16.3-20.2-16.3-11.4 0-20.6 8.9-20.6 19.8 0 5.9 2.7 11.1 6.9 14.8-1.1 2.6-1.8 5.4-1.8 8.2 0 14.7 16.1 30.3 35.9 30.3s35.9-15.6 35.9-30.3c0-2.8-0.6-5.6-1.7-8.2 4.3-3.6 7-8.9 7-14.8z"
     fill="url(#h)"
     id="path15579" />
  <linearGradient
     id="g"
     x1="15.75"
     x2="15.75"
     y1="1069.1"
     y2="1026.5"
     gradientTransform="translate(0 -950)"
     gradientUnits="userSpaceOnUse">
    <stop
       stop-color="#825C40"
       offset="0"
       id="stop15587" />
    <stop
       stop-color="#876042"
       offset=".0448"
       id="stop15589" />
    <stop
       stop-color="#9A6F4A"
       offset=".2788"
       id="stop15591" />
    <stop
       stop-color="#A5794E"
       offset=".5183"
       id="stop15593" />
    <stop
       stop-color="#A97C50"
       offset=".7696"
       id="stop15595" />
  </linearGradient>
  <path
     d="m7.8 118.4c-0.4 0-0.8-0.2-1.1-0.4-0.3-0.3-0.4-0.7-0.4-1.1 0.1-5 0.3-14.6 0.6-23.4 0.3-6.6 0.3-10.5 0.3-12.7 0-0.8 0.6-1.5 1.5-1.5l11.6-0.3c0.8 0 1.5 0.6 1.5 1.4l3.4 36.4c0 0.4-0.1 0.9-0.4 1.2s-0.7 0.5-1.1 0.5c0.1-0.1-15.9-0.1-15.9-0.1z"
     fill="url(#g)"
     id="path15598" />
  <path
     d="m20.4 80.4 3.4 36.4h-16c0.1-5 0.3-14.6 0.6-23.4 0.2-5.2 0.3-9.6 0.3-12.7l11.7-0.3m0-3-11.8 0.4c-1.6 0.1-2.9 1.4-2.9 3.1 0 2.3 0 6.2-0.3 12.5-0.4 8.9-0.5 18.7-0.6 23.5 0 1.7 1.3 3.1 3 3.1h16c1.8 0 3.1-1.5 3-3.3l-3.4-36.4c-0.2-1.7-1.5-2.9-3-2.9z"
     fill="#8B5E3C"
     id="path15600" />
  <path
     d="m14.5 84.5c-0.6 0-1.1-0.1-1.4-0.2-5.8-1.5-6-3.5-6.8-12.2v-0.2c-1.8-18.3-0.7-25.8 5.2-34.9 2.6-3.9 9.3-11.6 13.2-11.6 0.5 0 1.7 0 2.6 2.4 0.8 2.1-1.3 5.4-3.6 9-2.7 4.3-5.8 9.1-6 14.5-0.1 2.1 0.3 3.5 0.9 5.7 0.8 2.9 1.9 7.2 3 16.9 0.4 3.8-0.2 6.6-1.9 8.5s-4.2 2.1-5.2 2.1z"
     fill="#FFC1AD"
     id="path15602" />
  <path
     d="m24.7 26.9c0.2 0 0.6 0 1.2 1.5 0.5 1.4-1.7 4.8-3.5 7.7-2.8 4.4-6 9.4-6.2 15.2-0.1 2.3 0.3 3.9 0.9 6.1 0.8 2.8 1.9 7.1 2.9 16.7 0.4 3.3-0.2 5.8-1.5 7.3-1.4 1.5-3.3 1.7-4.1 1.7-0.5 0-0.9-0.1-1-0.1-4.6-1.2-4.8-2-5.7-10.9v-0.2c-1.8-17.8-0.7-25.1 5-33.9 0.8-1.2 2.9-4.1 5.7-6.8 3.1-3.3 5.3-4.3 6.3-4.3m0-3c-5.1 0-12.5 9.2-14.5 12.3-6 9.2-7.3 17-5.5 35.8 0.9 9 1.1 12.1 8 13.8 0.5 0.1 1.1 0.2 1.8 0.2 3.8 0 9.6-2.5 8.6-12.3-1.8-16.9-4-17.8-3.8-22.4 0.4-9.8 11.6-18.5 9.5-24-1-2.5-2.4-3.4-4.1-3.4z"
     fill="#E39581"
     id="path15604" />
  <linearGradient
     id="f"
     x1="-3339.6"
     x2="-3339.6"
     y1="1069.1"
     y2="1026.5"
     gradientTransform="matrix(-1 0 0 1 -3227.4 -950)"
     gradientUnits="userSpaceOnUse">
    <stop
       stop-color="#825C40"
       offset="0"
       id="stop15606" />
    <stop
       stop-color="#876042"
       offset=".0448"
       id="stop15608" />
    <stop
       stop-color="#9A6F4A"
       offset=".2788"
       id="stop15610" />
    <stop
       stop-color="#A5794E"
       offset=".5183"
       id="stop15612" />
    <stop
       stop-color="#A97C50"
       offset=".7696"
       id="stop15614" />
  </linearGradient>
  <path
     d="m104.2 118.4c-0.4 0-0.8-0.2-1.1-0.5s-0.4-0.7-0.4-1.2l3.4-36.4c0.1-0.8 0.7-1.4 1.5-1.4l11.7 0.3c0.8 0 1.5 0.7 1.5 1.5 0 2.1 0 6 0.3 12.6 0.4 8.9 0.5 18.5 0.6 23.5 0 0.4-0.2 0.8-0.4 1.1-0.3 0.3-0.7 0.4-1.1 0.4h-16v0.1z"
     fill="url(#f)"
     id="path15617" />
  <path
     d="m107.6 80.4 11.7 0.4c0 3.1 0.1 7.4 0.3 12.7 0.3 8.8 0.5 18.5 0.6 23.4h-16l3.4-36.5m0-2.9c-1.5 0-2.8 1.2-3 2.7l-3.4 36.4c-0.2 1.8 1.2 3.3 3 3.3h16c1.7 0 3-1.4 3-3.1-0.1-4.8-0.3-14.6-0.6-23.5-0.2-6.3-0.3-10.2-0.3-12.5 0-1.7-1.3-3-2.9-3.1l-11.8-0.2c0.1 0 0.1 0 0 0z"
     fill="#8B5E3C"
     id="path15619" />
  <path
     d="m113.5 84.5c-1 0-3.4-0.2-5.2-2.2-1.7-1.8-2.3-4.7-1.9-8.5 1-9.8 2.2-14.1 3-16.9 0.6-2.1 0.9-3.5 0.9-5.7-0.2-5.4-3.3-10.2-6-14.5-2.3-3.6-4.4-6.9-3.6-9 0.9-2.4 2.2-2.4 2.6-2.4 4 0 10.7 7.7 13.2 11.6 5.9 9.1 7.1 16.6 5.3 34.8v0.2c-0.8 8.7-1.1 10.8-6.8 12.2-0.4 0.3-0.9 0.4-1.5 0.4z"
     fill="#FFC1AD"
     id="path15621" />
  <path
     d="m103.3 26.9c1 0 3.2 1.1 6.3 4.1 2.7 2.7 4.9 5.6 5.7 6.8 5.7 8.8 6.8 16.1 5 33.9v0.2c-0.9 8.9-1.1 9.8-5.7 10.9-0.2 0-0.5 0.1-1 0.1-0.8 0-2.7-0.2-4.1-1.7-1.3-1.5-1.9-4-1.5-7.3 1-9.6 2.2-13.9 2.9-16.7 0.6-2.2 1-3.8 0.9-6.1-0.2-5.8-3.4-10.8-6.2-15.2-1.8-2.8-4-6.3-3.5-7.6 0.5-1.4 1-1.4 1.2-1.4m0-3c-1.7 0-3.1 1-4 3.4-2.1 5.6 9.1 14.2 9.5 24 0.2 4.5-2.1 5.5-3.8 22.4-1 9.8 4.8 12.3 8.6 12.3 0.7 0 1.3-0.1 1.8-0.2 6.9-1.7 7.1-4.8 8-13.8 1.8-18.8 0.5-26.6-5.5-35.8-2.2-3.1-9.5-12.3-14.6-12.3z"
     fill="#E39581"
     id="path15623" />
  <defs
     id="defs15626">
    <path
       id="e"
       d="m64 76.5c-9.2 0-17.8-0.8-25-2.1-1.8-0.3-3.3 1.2-3 3 2.4 11.7 13.9 21.2 28 21.2 15.4 0 25.8-9.9 28-21.2 0.3-1.8-1.2-3.3-3-3-7.2 1.4-15.8 2.1-25 2.1z" />
  </defs>
  <clipPath
     id="d">
    <use
       xlink:href="#e"
       id="use15628" />
  </clipPath>
  <defs
     id="defs15634">
    <path
       id="c"
       d="m64 76.5c-9.2 0-17.8-0.8-25-2.1-1.8-0.3-3.3 1.2-3 3 2.4 11.7 13.9 21.2 28 21.2 15.4 0 25.8-9.9 28-21.2 0.3-1.8-1.2-3.3-3-3-7.2 1.4-15.8 2.1-25 2.1z" />
  </defs>
  <clipPath
     id="b">
    <use
       xlink:href="#c"
       id="use15636" />
  </clipPath>
  <defs
     id="defs15642">
    <path
       id="a"
       d="m64 76.5c-9.2 0-17.8-0.8-25-2.1-1.8-0.3-3.3 1.2-3 3 2.4 11.7 13.9 21.2 28 21.2 15.4 0 25.8-9.9 28-21.2 0.3-1.8-1.2-3.3-3-3-7.2 1.4-15.8 2.1-25 2.1z" />
  </defs>
  <clipPath
     id="n">
    <use
       xlink:href="#a"
       id="use15644" />
  </clipPath>
  <defs
     id="defs15650">
    <path
       id="m"
       d="m64 76.5c-9.2 0-17.8-0.8-25-2.1-1.8-0.3-3.3 1.2-3 3 2.4 11.7 13.9 21.2 28 21.2 15.4 0 25.8-9.9 28-21.2 0.3-1.8-1.2-3.3-3-3-7.2 1.4-15.8 2.1-25 2.1z" />
  </defs>
  <clipPath
     id="l">
    <use
       xlink:href="#m"
       id="use15652" />
  </clipPath>
  <path
     style="fill:#393531;fill-opacity:1"
     d="m 45.278803,45.806945 v 0 c -4.19,0 -8,3.54 -8,9.42 0,5.88 3.81,9.41 8,9.41 v 0 c 4.2,0 8,-3.54 8,-9.41 0,-5.87 -3.76,-9.42 -8,-9.42 z"
     id="path13" />
  <path
     style="fill:#393531;fill-opacity:1"
     d="m 83.678803,45.806945 v 0 c -4.19,0 -8,3.54 -8,9.42 0,5.88 3.81,9.41 8,9.41 v 0 c 4.19,0 8,-3.54 8,-9.41 0,-5.87 -3.81,-9.42 -8,-9.42 z"
     id="path18" />
  <path
     style="fill:#393531"
     d="m 64.11504,64.99899 c 3.88,0.08 5.3,0.08 5.17,2.02 -0.08,1.22 -2.59,3.65 -5.02,3.69 -2.05,0.04 -5.1,-2.02 -5.29,-3.8 -0.21,-2.02 1.33,-1.99 5.14,-1.91 z"
     id="path8120" />
  <path
     style="fill:#393531;fill-opacity:1;stroke:#8b5e3c;stroke-width:3;stroke-miterlimit:4;stroke-dasharray:none;stroke-opacity:1"
     d="m 63.34504,75.540623 c 16.59,0.271405 19.42,3.786111 19.28,7.50437 -0.2,5.238132 -6.8,11.494036 -18.82,11.358333 -12.58,-0.149273 -18.92,-5.984498 -19.07,-11.019076 -0.15,-4.953156 8.27,-8.006471 18.61,-7.843627 z"
     id="path8126" />
</svg>
